<svg xmlns="http://www.w3.org/2000/svg" viewBox="0 0 32 32"><path d="M26.67 10H5.33c-.71 0-1.27.61-1.2 1.32l1.63 17.16A2.79 2.79 0 0 0 8.53 31h14.94c1.43 0 2.63-1.09 2.77-2.52l1.63-17.16c.07-.71-.49-1.32-1.2-1.32M12 23c0 .55-.45 1-1 1s-1-.45-1-1v-6c0-.55.45-1 1-1s1 .45 1 1zm5 0c0 .55-.45 1-1 1s-1-.45-1-1v-6c0-.55.45-1 1-1s1 .45 1 1zm5 0c0 .55-.45 1-1 1s-1-.45-1-1v-6c0-.55.45-1 1-1s1 .45 1 1zM22.548 3.19l-.346-1.38A1.07 1.07 0 0 0 21.166 1H10.834c-.49 0-.917.334-1.036.81l-.346 1.38c-.119.476-.546.81-1.036.81H3.068C2.478 4 2 4.478 2 5.068v1.864C2 7.522 2.478 8 3.068 8h25.864C29.522 8 30 7.522 30 6.932V5.068C30 4.478 29.522 4 28.932 4h-5.348c-.49 0-.917-.334-1.036-.81" style="fill:#939ab3"/></svg>