<svg xmlns="http://www.w3.org/2000/svg" width="20" height="20" fill="none"><path fill="#fff" d="M10 9c.55 0 1 .45 1 1s-.45 1-1 1-1-.45-1-1 .45-1 1-1m0-2c-1.66 0-3 1.34-3 3s1.34 3 3 3 3-1.34 3-3-1.34-3-3-3m.07 13c-1.46 0-2.64-1.18-2.64-2.64 0-.19-.09-.32-.23-.37-.3-.12-.34-.05-.44.05-1.08 1.08-2.78 1.04-3.77.04-.5-.5-.78-1.16-.78-1.86 0-.71.28-1.37.77-1.87.15-.14.17-.29.12-.43a.36.36 0 0 0-.33-.22h-.13a2.635 2.635 0 1 1 0-5.27c.19 0 .32-.09.37-.23.08-.19.05-.34-.05-.44-1.07-1.07-1.07-2.75-.04-3.77 1-1 2.73-1 3.73-.01.16.17.3.17.43.12q.075-.045.15-.06c.08-.06.13-.16.13-.27v-.13C7.36 1.18 8.55 0 10 0s2.64 1.18 2.64 2.64c0 .21.08.33.21.39.16.06.29.03.4-.07 1.07-1.08 2.77-1.04 3.76-.04.5.5.78 1.16.78 1.86 0 .71-.28 1.37-.77 1.87-.15.14-.17.29-.12.43q.045.075.06.15c.06.08.16.13.27.13h.13C18.82 7.36 20 8.55 20 10s-1.18 2.64-2.64 2.64c-.21 0-.33.08-.38.21a.33.33 0 0 0 .06.39c.54.54.81 1.2.81 1.91 0 .7-.27 1.37-.77 1.86-.99 1-2.73 1-3.73.01-.16-.17-.3-.17-.43-.12-.14.06-.22.19-.22.33v.13c0 1.46-1.18 2.64-2.63 2.64M7 14.94c.33 0 .65.07.95.2.85.31 1.46 1.16 1.48 2.13 0 .44.28.73.64.73.35 0 .63-.29.63-.64v-.14c0-.94.56-1.78 1.43-2.15.84-.37 1.9-.19 2.58.47.35.36.72.3.95.06.13-.12.19-.28.19-.45s-.06-.33-.18-.45c-.74-.75-.92-1.77-.53-2.65.36-.85 1.21-1.41 2.15-1.41.42 0 .71-.29.71-.64s-.29-.64-.64-.64h-.14c-.94 0-1.78-.56-2.15-1.42-.03-.08-.06-.16-.07-.25-.29-.83-.08-1.76.55-2.4.17-.18.24-.34.24-.51s-.07-.33-.19-.45a.653.653 0 0 0-.9 0c-.77.75-1.78.91-2.65.53a2.35 2.35 0 0 1-1.41-2.15c0-.43-.29-.71-.64-.71s-.64.28-.64.64v.13c0 .95-.56 1.79-1.42 2.16-.08.03-.16.06-.25.07-.82.28-1.77.07-2.4-.54-.35-.36-.72-.3-.96-.06-.24.25-.25.65 0 .9.74.75.92 1.76.53 2.65-.31.85-1.16 1.45-2.13 1.48-.44 0-.73.28-.73.63 0 .36.29.64.64.64h.14c.94 0 1.78.56 2.15 1.43.39.87.2 1.89-.47 2.58-.31.3-.31.71-.06.96.24.24.66.24.9 0 .5-.49 1.08-.73 1.7-.73"/></svg>