<svg xmlns="http://www.w3.org/2000/svg" width="141" height="129" fill="none"><path fill="#fff" stroke="#fff" stroke-miterlimit="10" stroke-width="4" d="m124.102 77-1.5-.7c-2.6-1.3-4.2-4.1-3.9-7 .1-1.5.2-3.1.2-4.7s-.1-3.1-.2-4.6c-.3-2.9 1.3-5.8 3.9-7.1l1.4-.7c3.5-1.7 5-6 3.2-9.5l-4.8-9.7c-1.8-3.6-6.1-5-9.7-3.2l-.6.3c-2.7 1.4-5.9.9-8.1-1.1-4.5-4.1-9.9-7.4-15.2-9.7-2.6-1.1-4.4-3.7-4.4-6.6v-1.1c0-3.9-3.2-7.1-7.1-7.1h-15c-3.9 0-7.1 3.2-7.1 7.1v1.6c0 2.7-1.5 5.2-4 6.4-4.5 2.3-10.5 5.5-15.2 9.6-2.2 1.9-5.3 2.2-7.9.9l-.5-.1c-3.7-1.9-8.1-.4-9.8 3.2l-4.6 9.6c-1.7 3.5-.2 7.8 3.3 9.5l1.5.8c2.6 1.3 4.2 4.1 4 7-.1 1.5-.2 3.1-.2 4.6s.1 3.1.2 4.6c.3 3-1.2 5.8-3.9 7.1l-1.3.6c-3.5 1.7-5 6-3.2 9.5l4.7 9.5c1.8 3.6 6.3 5 9.8 3.1 2.6-1.4 5.8-1.1 8 .8 4.7 4 10.6 7.3 15.1 9.5 2.4 1.2 4 3.7 4 6.4v1.2c0 3.9 3.2 7.1 7.1 7.1h15c3.9 0 7.1-3.2 7.1-7.1v-.8c0-2.9 1.7-5.4 4.4-6.6 5.3-2.2 10.7-5.6 15.3-9.7 2.2-2 5.4-2.5 8-1.1l1 .5c3.5 1.8 7.9.3 9.6-3.2l4.7-9.7c1.7-3.4.2-7.6-3.3-9.4Zm-53.8 28.1c-22.4 0-40.6-18.2-40.6-40.6s18.2-40.6 40.6-40.6 40.6 18.2 40.6 40.6-18.2 40.6-40.6 40.6Z"/><path fill="#fff" stroke="#fff" stroke-miterlimit="10" stroke-width="4" d="m124.102 77-1.5-.7c-2.6-1.3-4.2-4.1-3.9-7 .1-1.5.2-3.1.2-4.7s-.1-3.1-.2-4.6c-.3-2.9 1.3-5.8 3.9-7.1l1.4-.7c3.5-1.7 5-6 3.2-9.5l-4.8-9.7c-1.8-3.6-6.1-5-9.7-3.2l-.6.3c-2.7 1.4-5.9.9-8.1-1.1-4.5-4.1-9.9-7.4-15.2-9.7-2.6-1.1-4.4-3.7-4.4-6.6v-1.1c0-3.9-3.2-7.1-7.1-7.1h-15c-3.9 0-7.1 3.2-7.1 7.1v1.6c0 2.7-1.5 5.2-4 6.4-4.5 2.3-10.5 5.5-15.2 9.6-2.2 1.9-5.3 2.2-7.9.9l-.5-.1c-3.7-1.9-8.1-.4-9.8 3.2l-4.6 9.6c-1.7 3.5-.2 7.8 3.3 9.5l1.5.8c2.6 1.3 4.2 4.1 4 7-.1 1.5-.2 3.1-.2 4.6s.1 3.1.2 4.6c.3 3-1.2 5.8-3.9 7.1l-1.3.6c-3.5 1.7-5 6-3.2 9.5l4.7 9.5c1.8 3.6 6.3 5 9.8 3.1 2.6-1.4 5.8-1.1 8 .8 4.7 4 10.6 7.3 15.1 9.5 2.4 1.2 4 3.7 4 6.4v1.2c0 3.9 3.2 7.1 7.1 7.1h15c3.9 0 7.1-3.2 7.1-7.1v-.8c0-2.9 1.7-5.4 4.4-6.6 5.3-2.2 10.7-5.6 15.3-9.7 2.2-2 5.4-2.5 8-1.1l1 .5c3.5 1.8 7.9.3 9.6-3.2l4.7-9.7c1.7-3.4.2-7.6-3.3-9.4Zm-53.8 28.1c-22.4 0-40.6-18.2-40.6-40.6s18.2-40.6 40.6-40.6 40.6 18.2 40.6 40.6-18.2 40.6-40.6 40.6Z"/></svg>