<svg xmlns="http://www.w3.org/2000/svg" width="66" height="66" fill="none"><g clip-path="url(#a)"><path fill="#60C8DD" d="M59.24 48.076v3.3a4.67 4.67 0 0 1-1.123 3.03 33 33 0 0 1-4.01 3.962c-.754.628-1.899.093-1.899-.888a7.19 7.19 0 0 0-7.187-7.187H15.037c-7.455 0-13.766-5.516-14.748-12.906Q.002 35.233 0 33C0 14.797 14.738.036 32.933 0 51.092-.036 65.954 14.756 66 32.915a33 33 0 0 1-1.573 10.18.81.81 0 0 1-.774.566 4.414 4.414 0 0 0-4.414 4.415"/><path fill="#7CD2E3" d="M60.605 33c0 15.246-12.359 27.605-27.605 27.605S5.395 48.245 5.395 33 17.755 5.395 33 5.395 60.605 17.754 60.605 33"/><path fill="#3D4EC6" d="M54.14 18.691v39.65a33 33 0 0 1-5.05 3.477.94.94 0 0 1-1.395-.824V18.691c0-.711.577-1.289 1.29-1.289h3.867a1.29 1.29 0 0 1 1.289 1.29"/><path fill="#FFB52D" d="M11.602 51.563H7.734c-.712 0-1.289-.578-1.289-1.29V18.047c0-.712.577-1.29 1.29-1.29h3.867c.711 0 1.289.578 1.289 1.29v32.226c0 .712-.578 1.29-1.29 1.29m52.851-8.549v-9.498c0-.712-.577-1.29-1.289-1.29h-3.867c-.712 0-1.29.578-1.29 1.29v21.016a32.95 32.95 0 0 0 6.446-11.518m-30.937-3.053V7.734c0-.712-.578-1.289-1.29-1.289H28.36c-.712 0-1.289.577-1.289 1.29V39.96c0 .712.577 1.289 1.29 1.289h3.867c.712 0 1.289-.577 1.289-1.29"/><path fill="#FFC14F" d="M32.227 19.336H30.94a1.29 1.29 0 0 1-1.289-1.29V7.735c0-.712.578-1.289 1.29-1.289h1.286c.712 0 1.289.577 1.289 1.29v10.312a1.29 1.29 0 0 1-1.29 1.289m32.226 21.582v-7.402a1.29 1.29 0 0 0-1.289-1.29h-1.286c-.712 0-1.29.578-1.29 1.29v7.402c0 .712.578 1.29 1.29 1.29h1.286a1.29 1.29 0 0 0 1.29-1.29M12.891 26.58v-8.532c0-.712-.577-1.29-1.29-1.29h-1.286c-.712 0-1.289.578-1.289 1.29v8.532c0 .712.577 1.29 1.29 1.29h1.286c.712 0 1.289-.578 1.289-1.29"/><path fill="#5766CE" d="M42.54 51.563h-3.868c-.712 0-1.29-.578-1.29-1.29V21.141c0-.712.578-1.29 1.29-1.29h3.867c.712 0 1.29.578 1.29 1.29v29.132c0 .712-.578 1.29-1.29 1.29m-19.337-6.446V12.891c0-.712-.577-1.29-1.289-1.29h-3.867c-.712 0-1.29.578-1.29 1.29v32.226c0 .712.578 1.29 1.29 1.29h3.867c.712 0 1.29-.578 1.29-1.29m29.649 9.415h-1.287a1.29 1.29 0 0 1-1.289-1.289V18.691c0-.711.577-1.289 1.29-1.289h1.286a1.29 1.29 0 0 1 1.289 1.29v34.551c0 .712-.578 1.29-1.29 1.29"/><path fill="#717ED6" d="M21.914 19.852h-1.286a1.29 1.29 0 0 1-1.29-1.29v-5.671c0-.712.578-1.29 1.29-1.29h1.286c.712 0 1.29.578 1.29 1.29v5.672a1.29 1.29 0 0 1-1.29 1.289m21.914 6.96v-5.671c0-.712-.577-1.29-1.289-1.29h-1.286c-.712 0-1.29.578-1.29 1.29v5.672c0 .711.578 1.289 1.29 1.289h1.286a1.29 1.29 0 0 0 1.29-1.29"/><path fill="#FFF5F5" d="M51.309 8.086v4.727a.645.645 0 0 1-1.29 0v-3.11L37.726 21.999a.645.645 0 0 1-.911 0l-3.969-3.969-14.9 13.883a.64.64 0 0 1-.91-.032.644.644 0 0 1 .03-.91l15.356-14.308a.645.645 0 0 1 .895.015l3.954 3.954 11.9-11.9h-3.233a.645.645 0 0 1 0-1.29h4.727c.356 0 .645.289.645.645"/><path fill="#7C3F2C" d="M37.266 26.182c-3.41-1.857-7.694-2.88-12.065-2.88s-8.655 1.023-12.064 2.88c-.857.466-1.369 1.276-1.369 2.166v3.005c0 1.716 1.64 3.112 3.656 3.112h19.554c2.016 0 3.656-1.396 3.656-3.113v-3.004c0-.89-.511-1.7-1.368-2.166m.08 5.17c0 1.006-1.062 1.824-2.367 1.824H15.424c-1.305 0-2.367-.818-2.367-1.824v-3.004c0-.41.26-.797.696-1.034 3.223-1.756 7.29-2.722 11.448-2.722 4.16 0 8.225.966 11.448 2.722.436.237.696.624.696 1.034z"/><path fill="#954C35" d="M45.344 35.207v14.307c0 9.018-7.368 16.336-16.385 16.194a6 6 0 0 1-.62-.035C15.417 63.846 4.903 54.537 1.318 42.27v-7.063a4.8 4.8 0 0 1 4.801-4.8h34.424a4.8 4.8 0 0 1 4.8 4.8"/><path fill="#AE583E" d="M49.082 35.207v26.616A32.85 32.85 0 0 1 33 66c-1.582 0-3.139-.112-4.662-.327a30.6 30.6 0 0 1-6.257-18.585c0-6.15 1.807-11.877 4.919-16.68h17.282a4.8 4.8 0 0 1 4.8 4.8"/><path fill="#C0694E" d="M50.402 35.414v4.458a3.6 3.6 0 0 1-1.533 2.95c-6.464 4.515-14.7 7.221-23.668 7.221S7.997 47.337 1.534 42.821A3.6 3.6 0 0 1 0 39.872v-4.458a5.066 5.066 0 0 1 5.066-5.065h40.27a5.065 5.065 0 0 1 5.066 5.065"/><path fill="#C97E67" d="M50.402 35.421v4.458a3.6 3.6 0 0 1-1.533 2.95c-6.464 4.515-14.7 7.221-23.668 7.221q-1.532 0-3.034-.104a31 31 0 0 1-.086-2.31 30.58 30.58 0 0 1 5.318-17.28h17.938a5.066 5.066 0 0 1 5.065 5.065"/><path fill="#FF9F22" d="M30.601 52.093h-10.8a1.2 1.2 0 0 1-1.2-1.2v-1.2a1.2 1.2 0 0 1 1.2-1.2h10.8a1.2 1.2 0 0 1 1.2 1.2v1.2a1.2 1.2 0 0 1-1.2 1.2"/><path fill="#FFC14F" d="M30.601 52.093h-8.52a1.2 1.2 0 0 1-1.2-1.2v-1.2a1.2 1.2 0 0 1 1.2-1.2h8.52a1.2 1.2 0 0 1 1.2 1.2v1.2a1.2 1.2 0 0 1-1.2 1.2"/><path fill="#FF9100" d="M30.001 50.893h-9.6a.6.6 0 1 1 0-1.2H30a.6.6 0 1 1 0 1.2"/><path fill="#DD7D00" d="M23.881 50.893h-3.48a.6.6 0 1 1 0-1.2h3.48a.6.6 0 1 0 0 1.2"/><path fill="#AE583E" d="M24.466 25.07a2.405 2.405 0 0 1-2.405 2.405h-6.08c-1.279 0-2.315-.662-2.315-1.479v-.532c0-.342.26-.664.7-.86 2.121-.947 4.66-1.621 7.44-1.926a2.404 2.404 0 0 1 2.66 2.392"/><path fill="#C0694E" d="M36.707 25.465v.532c0 .817-1.037 1.479-2.316 1.479H22.072a2.406 2.406 0 0 1-2.406-2.406c0-1.223.916-2.257 2.132-2.391a31 31 0 0 1 3.388-.184c4.1 0 7.865.79 10.82 2.109.44.196.7.518.7.86"/><path fill="#ECECF1" d="M42.182 8.83a.645.645 0 0 1-.645.645h-3.281a.645.645 0 0 1 0-1.29h3.281c.356 0 .645.29.645.645"/><path fill="#C2EAF2" d="M41.803 11.795a.645.645 0 0 1-.644.645h-2.525a.645.645 0 0 1 0-1.29h2.525c.356 0 .644.289.644.645M38.634 6.51h2.525a.645.645 0 0 0 0-1.29h-2.525a.645.645 0 0 0 0 1.29"/></g><defs><clipPath id="a"><path fill="#fff" d="M0 0h66v66H0z"/></clipPath></defs></svg>