<svg xmlns="http://www.w3.org/2000/svg" width="64" height="64" fill="none"><g clip-path="url(#a)"><path fill="url(#b)" d="M53.35 10.65 41.49 22.51A13.38 13.38 0 0 0 32 18.578V1.806c8.337 0 15.887 3.378 21.35 8.843"/><path fill="url(#c)" d="M22.51 22.51A13.38 13.38 0 0 0 18.578 32H1.806c0-8.338 3.379-15.887 8.844-21.35z"/><path fill="url(#d)" d="M32 1.806v16.772a13.38 13.38 0 0 0-9.49 3.932L10.65 10.65C16.113 5.183 23.663 1.805 32 1.805"/><path fill="url(#e)" d="M62.194 32H45.42a13.38 13.38 0 0 0-3.931-9.49l11.86-11.86c5.465 5.463 8.844 13.012 8.844 21.35"/><path fill="url(#f)" d="M62.194 31.999c0 8.337-3.379 15.887-8.844 21.35L41.49 41.49a13.38 13.38 0 0 0 3.931-9.49z"/><path fill="url(#g)" d="m22.51 41.489-11.86 11.86C5.185 47.886 1.806 40.336 1.806 32h16.772a13.38 13.38 0 0 0 3.932 9.49"/><path fill="url(#h)" d="M53.35 53.35c-5.463 5.465-13.013 8.843-21.35 8.843V45.421a13.38 13.38 0 0 0 9.49-3.932z"/><path fill="url(#i)" d="M32 45.42v16.773c-8.337 0-15.887-3.378-21.35-8.843l11.86-11.86A13.38 13.38 0 0 0 32 45.42"/><path fill="url(#j)" d="M48.196 15.804 41.49 22.51A13.38 13.38 0 0 0 32 18.578V9.096c6.326 0 12.05 2.563 16.196 6.708"/><path fill="url(#k)" d="M22.51 22.51A13.38 13.38 0 0 0 18.58 32H9.096c0-6.326 2.563-12.05 6.708-16.196z"/><path fill="url(#l)" d="M32 9.096v9.482a13.38 13.38 0 0 0-9.49 3.932l-6.706-6.707A22.84 22.84 0 0 1 32 9.096"/><path fill="url(#m)" d="M54.904 32H45.42a13.38 13.38 0 0 0-3.931-9.49l6.706-6.706A22.84 22.84 0 0 1 54.904 32"/><path fill="url(#n)" d="M54.904 32c0 6.326-2.563 12.05-6.708 16.196L41.49 41.49A13.38 13.38 0 0 0 45.42 32z"/><path fill="url(#o)" d="m22.51 41.49-6.706 6.706A22.84 22.84 0 0 1 9.096 32h9.483a13.38 13.38 0 0 0 3.931 9.49"/><path fill="url(#p)" d="M48.196 48.196A22.84 22.84 0 0 1 32 54.903v-9.482a13.38 13.38 0 0 0 9.49-3.932z"/><path fill="url(#q)" d="M32 45.42v9.483a22.84 22.84 0 0 1-16.196-6.707l6.707-6.707A13.38 13.38 0 0 0 32 45.421"/><path fill="url(#r)" d="m56.837 14.828-12.32 12.32c.583 1.505.904 3.14.904 4.851a13.38 13.38 0 0 1-3.931 9.49A13.38 13.38 0 0 1 32 45.421c-1.71 0-3.347-.321-4.851-.905l-12.32 12.32a30.05 30.05 0 0 0 17.17 5.357c8.338 0 15.888-3.378 21.351-8.843 5.465-5.464 8.844-13.013 8.844-21.35 0-6.38-1.98-12.297-5.357-17.172"/><path fill="url(#s)" d="M6.515 44.492.066 62.53c-.312.873.531 1.716 1.404 1.404l18.039-6.448c3.598-3.6-9.395-16.593-12.994-12.994"/><path fill="url(#t)" d="M41.284 35.711 19.508 57.486a4.2 4.2 0 0 0-1.589-1.55c-.946-.523-2.426-.236-3.45.075a.423.423 0 0 1-.51-.228.43.43 0 0 1-.005-.365q.002-.002.002-.003a4 4 0 0 0 .21-.6 4 4 0 0 0 .133-1.176 4.05 4.05 0 0 0-1.192-2.746 4.06 4.06 0 0 0-3.09-1.188 3.942 3.942 0 0 0-.832.13q-.006 0-.012.003l-.192.056a3 3 0 0 0-.202.072q-.096.035-.192.078l-.005.002a.43.43 0 0 1-.365-.005.423.423 0 0 1-.227-.51c.31-1.024.597-2.501.073-3.447a4.15 4.15 0 0 0-1.548-1.592l21.774-21.776c.981-.98 2.57-.98 3.55 0l1.852 1.852 5.741 5.741 1.852 1.853c.98.979.98 2.568 0 3.55"/><path fill="url(#u)" d="M39.432 30.309 13.96 55.782a.43.43 0 0 1-.005-.365q.003-.001.002-.002c.057-.13.304-1.015.323-1.224q.014-.106.016-.209a4.06 4.06 0 0 0-1.66-3.495 4.06 4.06 0 0 0-3.45-.652q-.006 0-.012.002a12 12 0 0 0-.586.206q-.002 0-.005.003a.43.43 0 0 1-.365-.005l25.474-25.474z"/><path fill="url(#v)" d="M3.707 60.293a9 9 0 0 0-2.252-1.646L.066 62.53c-.312.872.531 1.715 1.404 1.403l3.884-1.388a9 9 0 0 0-1.647-2.253"/><path fill="url(#w)" d="M61.969 2.031 35.674 28.326l-3.846-3.846a2.147 2.147 0 0 1 0-3.037l2.3-2.3a5.3 5.3 0 0 0 1.551-3.744v-2.867a5.295 5.295 0 0 1 3.56-5.002L60.741.07c1.19-.413 2.119 1.07 1.228 1.96"/><path fill="url(#x)" d="M61.969 2.031 35.674 28.326l3.847 3.846a2.147 2.147 0 0 0 3.036 0l2.3-2.3a5.3 5.3 0 0 1 3.744-1.55h2.867a5.295 5.295 0 0 0 5.003-3.56l7.458-21.503c.413-1.19-1.07-2.119-1.96-1.228"/><path fill="url(#y)" d="M49.58 15.655 62.789 2.447c.33-.329.368-.864.061-1.213a.873.873 0 0 0-1.274-.043L48.377 14.39c-.864.864-2.062 1.337-3.279 1.23a3.61 3.61 0 0 0-3.092 1.28 3.63 3.63 0 0 0 .04 4.693 3.618 3.618 0 0 0 6.341-2.625c-.087-1.23.322-2.441 1.194-3.312"/><path fill="url(#z)" d="M35.456 16.918c-.25.833-.702 1.6-1.328 2.225l-2.3 2.3a2.147 2.147 0 0 0 0 3.037l3.846 3.846 3.847 3.846a2.147 2.147 0 0 0 3.036 0l2.3-2.3a5.3 5.3 0 0 1 2.226-1.328z"/><path fill="url(#A)" d="M38.065 38.931 25.069 25.936l5.179-5.18c.6-.6 1.572-.6 2.172 0L43.244 31.58c.6.6.6 1.572 0 2.172z"/></g><defs><linearGradient id="b" x1="28.732" x2="48.694" y1=".67" y2="20.632" gradientUnits="userSpaceOnUse"><stop stop-color="#FFF5D9"/><stop offset="1" stop-color="#FFCE47"/></linearGradient><linearGradient id="c" x1="5.654" x2="14.589" y1="20.751" y2="29.686" gradientUnits="userSpaceOnUse"><stop stop-color="#6FA953"/><stop offset="1" stop-color="#43765A"/></linearGradient><linearGradient id="d" x1="20.226" x2="31.968" y1="5.129" y2="16.871" gradientUnits="userSpaceOnUse"><stop stop-color="#E4E08E"/><stop offset="1" stop-color="#6FA953"/></linearGradient><linearGradient id="e" x1="41.642" x2="60.7" y1="13.58" y2="32.638" gradientUnits="userSpaceOnUse"><stop stop-color="#FFCE47"/><stop offset="1" stop-color="#FF9356"/></linearGradient><linearGradient id="f" x1="45.875" x2="56.924" y1="30.777" y2="41.826" gradientUnits="userSpaceOnUse"><stop stop-color="#FF9356"/><stop offset="1" stop-color="#FF755C"/></linearGradient><linearGradient id="g" x1="4.062" x2="17.063" y1="32.122" y2="45.123" gradientUnits="userSpaceOnUse"><stop stop-color="#7ACBFF"/><stop offset="1" stop-color="#45A2E0"/></linearGradient><linearGradient id="h" x1="31.979" x2="42.885" y1="47.075" y2="57.981" gradientUnits="userSpaceOnUse"><stop stop-color="#FF755C"/><stop offset="1" stop-color="#FF4181"/></linearGradient><linearGradient id="i" x1="13.362" x2="39.734" y1="41.422" y2="67.795" gradientUnits="userSpaceOnUse"><stop stop-color="#FF4181"/><stop offset="1" stop-color="#843561"/></linearGradient><linearGradient id="j" x1="44.056" x2="31.771" y1="21.149" y2="8.863" gradientUnits="userSpaceOnUse"><stop stop-color="#FFF5D9"/><stop offset="1" stop-color="#FFCE47"/></linearGradient><linearGradient id="k" x1="19.782" x2="4.555" y1="31.234" y2="16.007" gradientUnits="userSpaceOnUse"><stop stop-color="#6FA953"/><stop offset="1" stop-color="#43765A"/></linearGradient><linearGradient id="l" x1="30.432" x2="16.881" y1="18.979" y2="5.428" gradientUnits="userSpaceOnUse"><stop stop-color="#E4E08E"/><stop offset="1" stop-color="#6FA953"/></linearGradient><linearGradient id="m" x1="54.76" x2="40.454" y1="31.852" y2="17.547" gradientUnits="userSpaceOnUse"><stop stop-color="#FFCE47"/><stop offset="1" stop-color="#FF9356"/></linearGradient><linearGradient id="n" x1="53.773" x2="44.216" y1="42.321" y2="32.764" gradientUnits="userSpaceOnUse"><stop stop-color="#FF9356"/><stop offset="1" stop-color="#FF755C"/></linearGradient><linearGradient id="o" x1="23.537" x2="5.892" y1="46.444" y2="28.798" gradientUnits="userSpaceOnUse"><stop stop-color="#7ACBFF"/><stop offset="1" stop-color="#45A2E0"/></linearGradient><linearGradient id="p" x1="42.832" x2="29.97" y1="54.283" y2="41.422" gradientUnits="userSpaceOnUse"><stop stop-color="#FF755C"/><stop offset="1" stop-color="#FF4181"/></linearGradient><linearGradient id="q" x1="32.291" x2="16.594" y1="55.197" y2="39.5" gradientUnits="userSpaceOnUse"><stop stop-color="#FF4181"/><stop offset="1" stop-color="#843561"/></linearGradient><linearGradient id="r" x1="44.963" x2="35.841" y1="44.963" y2="35.841" gradientUnits="userSpaceOnUse"><stop stop-color="#843561" stop-opacity="0"/><stop offset="1" stop-color="#3A2F4D"/></linearGradient><linearGradient id="s" x1="1.536" x2="14.528" y1="49.466" y2="62.458" gradientUnits="userSpaceOnUse"><stop stop-color="#FFE0EA"/><stop offset="1" stop-color="#FFC0D5"/></linearGradient><linearGradient id="t" x1="6.515" x2="42.019" y1="39.733" y2="39.733" gradientUnits="userSpaceOnUse"><stop stop-color="#FFCE47"/><stop offset="1" stop-color="#FF9356"/></linearGradient><linearGradient id="u" x1="29.216" x2="16.099" y1="45.566" y2="32.449" gradientUnits="userSpaceOnUse"><stop stop-color="#FFCE47"/><stop offset="1" stop-color="#FF9356"/></linearGradient><linearGradient id="v" x1="1.639" x2="4.954" y1="61.571" y2="64.886" gradientUnits="userSpaceOnUse"><stop stop-color="#2F73A0"/><stop offset="1" stop-color="#174461"/></linearGradient><linearGradient id="w" x1="46.174" x2="47.885" y1="11.232" y2="14.043" gradientUnits="userSpaceOnUse"><stop stop-color="#EDF5FF"/><stop offset="1" stop-color="#C7E9FF"/></linearGradient><linearGradient id="x" x1="50.519" x2="52.84" y1="16.641" y2="20.796" gradientUnits="userSpaceOnUse"><stop stop-color="#EDF5FF"/><stop offset="1" stop-color="#C7E9FF"/></linearGradient><linearGradient id="y" x1="54.906" x2="50.919" y1="13.862" y2="9.875" gradientUnits="userSpaceOnUse"><stop stop-color="#2F73A0"/><stop offset="1" stop-color="#174461"/></linearGradient><linearGradient id="z" x1="39.799" x2="37.621" y1="24.199" y2="26.377" gradientUnits="userSpaceOnUse"><stop stop-color="#7ACBFF" stop-opacity="0"/><stop offset="1" stop-color="#2F73A0"/></linearGradient><linearGradient id="A" x1="35.717" x2="32.327" y1="27.378" y2="32.824" gradientUnits="userSpaceOnUse"><stop stop-color="#2F73A0"/><stop offset="1" stop-color="#174461"/></linearGradient><clipPath id="a"><path fill="#fff" d="M0 0h64v64H0z"/></clipPath></defs></svg>