<svg xmlns="http://www.w3.org/2000/svg" width="66" height="66" fill="none"><g clip-path="url(#a)"><path fill="#FF4155" d="M59.047 52.28a31.43 31.43 0 0 0 5.535-17.862c0-17.442-14.14-31.582-31.582-31.582S1.418 16.976 1.418 34.418a31.43 31.43 0 0 0 5.54 17.868z"/><path fill="#41416B" d="M32.829 2.389c-7.33 0-13.293 5.963-13.293 13.293.017.255-.048.393.08.486.171.122.273.32.273.53v.753c0 .683.809 1.028.916.694.272-.844 1.023-.915 1.338-.91h.029c.259.001.51.08.725.226a.195.195 0 0 0 .295-.103c.119-.375.159-.756.133-1.112-.138-1.87-.036-5.156 2.189-6.157 1.985-.895 3.985-.275 5.299-.023.743.216 1.966.736 3.681.166 1.614-.537 3.935-.997 5.834-.143 2.22.999 2.325 4.277 2.19 6.141-.025.344.01.69.104 1.029.033.12.168.177.276.121.687-.354 1.683-.078 1.955.765.03.092.123.148.218.131a.84.84 0 0 0 .698-.825v-.754c0-.208.102-.407.273-.53.128-.092.063-.232.08-.485 0-7.33-5.963-13.293-13.293-13.293"/><path fill="#35355E" d="M32.46 2.826c.142-.1.185-.281.122-.433-7.216.132-13.046 6.042-13.046 13.29.017.255-.048.393.08.485.171.123.273.321.273.53v.753c0 .684.809 1.028.916.694.272-.843 1.023-.915 1.338-.91h.029c.259.002.51.08.725.226a.195.195 0 0 0 .295-.102c.119-.376.159-.756.133-1.113-.138-1.87-.036-5.155 2.189-6.157 1.965-.885 3.942-.287 5.257-.03l.088-.182s-2.514-4.19 1.6-7.051"/><path fill="#FFDD40" d="M6.868 52.157C12.551 60.512 22.134 66 33 66c10.869 0 20.455-5.49 26.137-13.85-.779-2.484-2.214-4.915-4.827-6.26v-.002c-.175-.083-.41-.207-.817-.366-8.383-3.727-9.349-3.56-10.198-3.843a.3.3 0 0 1 .065.087c-.03.251.131.21-.46 1.728-1.223 3.036-3.448 5.703-6.026 7.742a.76.76 0 0 1-.897.035c-.445-.297-1.228 2.508-1.185 3.304.014.478.003-.09.007 6.4a.47.47 0 0 1-.472.463H31.68a.47.47 0 0 1-.472-.464c.004-6.49-.007-5.922.008-6.399v-.017c-.11-1.403-.783-3.556-1.185-3.287a.76.76 0 0 1-.897-.035c-2.579-2.04-4.804-4.706-6.028-7.742-.59-1.518-.429-1.477-.459-1.728a.3.3 0 0 1 .066-.087c-.85.283-1.816.116-10.199 3.843-.407.16-.642.282-.817.366v.002c-2.615 1.346-4.05 3.78-4.829 6.267"/><path fill="#FFC839" d="M22.647 41.766a.3.3 0 0 1 .065-.087c-.85.283-1.815.116-10.198 3.843-.407.16-.642.282-.818.366l.001.002c-2.615 1.346-4.05 3.78-4.829 6.267a31.8 31.8 0 0 0 7.797 7.978l1.018-3.36a5.33 5.33 0 0 1 2.806-3.262l7.53-3.59v-1.687c-1.212-1.432-2.222-3.028-2.913-4.742-.59-1.518-.43-1.477-.46-1.728"/><path fill="#FCA870" d="m25.245 39.539.14.773.005.019q.061.268.137.532l.008.027.053.176.011.035.062.188.007.021c.463 1.36 1.474 3.342 3.661 5.06a14 14 0 0 0 1.842 1.219c.294.162.508.41.62.715q.01.03.033.055c.335.378.656.794.953 1.235.064.095.222.095.285 0 .296-.44.618-.856.956-1.237a.2.2 0 0 0 .033-.055c.112-.304.326-.551.62-.713 4.703-2.602 5.714-6.436 5.93-8.078-.576-1.318-.76-2.948-.803-4.199a14.7 14.7 0 0 1-2.12 2.027 7.76 7.76 0 0 1-4.757 1.627c-1.725 0-3.4-.573-4.757-1.627a14.7 14.7 0 0 1-2.12-2.026c-.044 1.25-.228 2.88-.803 4.198z"/><path fill="#F9955F" d="M28.164 37.34a14.7 14.7 0 0 1-2.12-2.028c-.043 1.251-.227 2.88-.803 4.199l.004.028.14.774.005.018q.061.268.137.532l.008.027.053.176.011.035.062.188.007.021c.463 1.36 1.474 3.342 3.661 5.06q.27.21.552.409c1.918-3.23 2.533-6.23 2.73-7.82a7.75 7.75 0 0 1-4.447-1.62"/><path fill="#F9BD91" d="M43.613 18.907a5.4 5.4 0 0 0-.482-.968 2.8 2.8 0 0 1-.419-1.694c.139-1.916.024-5.285-2.304-6.333-1.955-.88-4.328-.412-5.975.136a4.82 4.82 0 0 1-3.024 0c-1.647-.548-4.02-1.016-5.975-.136-1.001.45-2.632 1.874-2.303 6.348a2.77 2.77 0 0 1-.42 1.68c-.179.279-.337.595-.47.937a6.5 6.5 0 0 0-.365 3.22l.546 3.97c0 6.577 3.979 10.377 5.69 11.705a7.88 7.88 0 0 0 4.809 1.645 7.88 7.88 0 0 0 4.81-1.645c1.71-1.328 5.69-5.128 5.688-11.693l.547-3.982a6.5 6.5 0 0 0-.353-3.19"/><path fill="#FCA870" d="M32.706 37.773c-1.217-1.329-4.048-5.129-4.048-11.705l-.388-3.971a8.9 8.9 0 0 1 .26-3.22c.095-.342.207-.658.334-.938.224-.493.33-1.09.299-1.679-.234-4.474.926-5.898 1.638-6.348l.058-.035c-1.598-.461-3.678-.751-5.425.035-1 .45-2.631 1.874-2.303 6.348a2.77 2.77 0 0 1-.42 1.68c-.178.279-.336.595-.47.937a6.5 6.5 0 0 0-.365 3.22l.546 3.97c0 6.577 3.98 10.377 5.69 11.706a7.88 7.88 0 0 0 4.81 1.644c.633 0 1.262-.079 1.873-.229-.757-.261-1.472-.742-2.09-1.416"/><path fill="#FF9100" d="M33.042 49.68c-.938-1.449-1.862-2.21-1.862-2.21l-2.388 3.836c1.72 1.107 2.028 3.813 2.082 4.684a12.05 12.05 0 0 1 2.168-6.31"/><path fill="#FFB332" d="M34.955 61.577v-5.31s.03-3.632 2.095-4.96l-2.388-3.836s-3.806 3.126-3.806 8.796v5.31z"/><path fill="#FFC839" d="M31.255 47.438c-4.763-2.634-5.68-6.555-5.857-8.057a.35.35 0 0 0-.555-.24l-3.224 2.364a.53.53 0 0 0-.202.55c1.282 5.106 5.406 8.834 7.223 10.27a1.01 1.01 0 0 0 1.467-.229l1.668-2.478a1.5 1.5 0 0 0-.52-2.18"/><path fill="#FFB332" d="M29.436 46.236c-3.19-2.507-3.887-5.569-4.038-6.855a.35.35 0 0 0-.555-.24l-3.224 2.364a.53.53 0 0 0-.203.551c.821 3.267 2.805 5.968 4.603 7.868 1.428-4.688 3.02-3.962 3.417-3.688"/><path fill="#FFC839" d="m44.223 41.505-3.224-2.363a.35.35 0 0 0-.555.239c-.176 1.502-1.094 5.423-5.857 8.057a1.5 1.5 0 0 0-.52 2.18l1.669 2.478c.329.49 1.004.596 1.466.23 1.818-1.437 5.94-5.165 7.223-10.27a.53.53 0 0 0-.202-.55M33.906 54.718a.805.805 0 1 1-1.61 0 .805.805 0 0 1 1.61 0M33.726 58.713a.805.805 0 1 1-1.61 0 .805.805 0 0 1 1.61 0"/><path fill="#FF9100" d="M30.856 61.398v1.505c0 .377.31.682.691.682h2.717c.382 0 .691-.305.691-.682v-1.505z"/><path fill="#E3E7FC" d="M32.83 0C24.32 0 17.42 6.898 17.42 15.408v1.831h2.31v-1.557c0-7.234 5.864-13.099 13.098-13.099s13.1 5.865 13.1 13.1v1.556h2.308v-1.831C48.237 6.898 41.34 0 32.83 0"/><path fill="#C8CEFC" d="M17.421 15.408v1.831h2.31v-1.557c0-7.16 5.744-12.977 12.876-13.096a.37.37 0 0 0-.082-.292c-.348-.415-.744-1.246.304-2.294-8.51 0-15.408 6.898-15.408 15.408M47.635 15.85h-1.212a.85.85 0 0 0-.848.847v.754a.65.65 0 0 1-.713.642h-.008q.073.214.074.449v10.1q-.001.236-.073.45a6 6 0 0 0 2.285-.674 2.53 2.53 0 0 0 1.342-2.237v-9.484a.85.85 0 0 0-.847-.847"/><path fill="#B8C0F4" d="M47.14 22.135a6 6 0 0 1-2.212.665v5.843q-.001.235-.073.45a6 6 0 0 0 2.285-.674 2.53 2.53 0 0 0 1.342-2.237v-6.284a2.53 2.53 0 0 1-1.342 2.237"/><path fill="#E3E7FC" d="M43.61 30.144h-.118a1.506 1.506 0 0 1-1.501-1.501v-10.1c0-.826.675-1.502 1.501-1.502h.117c.826 0 1.501.676 1.501 1.501v10.1c0 .826-.675 1.502-1.5 1.502"/><path fill="#B8C0F4" d="M18.024 15.85h1.211c.469 0 .848.38.848.847v.754c0 .383.332.677.714.642h.007a1.4 1.4 0 0 0-.073.449v10.1q.001.236.073.45a6 6 0 0 1-2.285-.674 2.53 2.53 0 0 1-1.343-2.237v-9.484c0-.468.38-.847.848-.847"/><path fill="#A4B0EA" d="M20.73 22.67a6 6 0 0 1-2.211-.664 2.53 2.53 0 0 1-1.343-2.237v6.413c0 .936.516 1.798 1.343 2.237.688.364 1.461.6 2.285.673a1.4 1.4 0 0 1-.073-.45v-5.971"/><path fill="#E3E7FC" d="M22.05 30.144h.117c.825 0 1.501-.676 1.501-1.501v-10.1c0-.826-.675-1.502-1.501-1.502h-.118c-.825 0-1.5.676-1.5 1.501v10.1c0 .826.675 1.502 1.5 1.502"/><path fill="#C8CEFC" d="M43.61 23.769h-.118a1.506 1.506 0 0 1-1.501-1.501v6.375c0 .825.675 1.501 1.5 1.501h.118c.826 0 1.501-.675 1.501-1.501v-6.375c0 .825-.675 1.5-1.5 1.5M22.167 23.769h-.118a1.506 1.506 0 0 1-1.5-1.501v6.375c0 .825.675 1.501 1.5 1.501h.118c.825 0 1.501-.675 1.501-1.501v-6.375c0 .825-.676 1.5-1.501 1.5"/><path fill="#E3E7FC" d="M38.45 39.703a.97.97 0 0 1 .643-1.215 38.5 38.5 0 0 0 4.8-1.864c.415-.192.733-.553.874-.989l1.532-4.743c.3-.927-.251-1.555-.366-1.88a.972.972 0 0 1 1.743-.86c.09.277 1.053 1.544.474 3.338l-1.533 4.743c-.306.949-1 1.734-1.902 2.154a40.5 40.5 0 0 1-5.05 1.96.97.97 0 0 1-1.216-.644"/><path fill="#FF4155" d="M33.896 42.137a1.75 1.75 0 1 1 0-3.5c1.105 0 2.418-.198 3.903-.589a1.75 1.75 0 1 1 .89 3.385c-1.775.467-3.388.704-4.793.704"/><path fill="#E80054" d="M35.661 39.828c0-.567.24-1.077.623-1.437-.876.163-1.676.246-2.388.246a1.75 1.75 0 1 0 0 3.5c1.017 0 2.144-.126 3.361-.371a1.975 1.975 0 0 1-1.596-1.938"/><path fill="#49DAFC" d="M54.471 2.388h-8.885c-4.736 0-8.61 3.874-8.61 8.61s3.874 8.61 8.61 8.61h6.055a.52.52 0 0 1 .52.52v3.02c0 .342.371.555.666.384 1.662-.97 2.486-2.319 2.893-3.454.126-.353.416-.625.781-.714 3.765-.919 6.58-4.33 6.58-8.366 0-4.736-3.874-8.61-8.61-8.61"/><path fill="#26C6F7" d="M36.976 10.998c0 4.736 3.874 8.61 8.61 8.61h2.754c-3.45-3.381-.246-7.542-.246-7.542l-.64-2.122c-3.294-3.866 0-7.552 0-7.552l-.007-.004h-1.861c-4.736 0-8.61 3.874-8.61 8.61"/><path fill="#fff" d="M43.98 11.102a1.158 1.158 0 1 1-2.316 0 1.158 1.158 0 0 1 2.316 0M48.611 11.102a1.158 1.158 0 1 1-2.315 0 1.158 1.158 0 0 1 2.315 0M53.243 11.102a1.158 1.158 0 1 1-2.316 0 1.158 1.158 0 0 1 2.316 0M57.874 11.102a1.158 1.158 0 1 1-2.315 0 1.158 1.158 0 0 1 2.315 0"/></g><defs><clipPath id="a"><path fill="#fff" d="M0 0h66v66H0z"/></clipPath></defs></svg>