<svg xmlns="http://www.w3.org/2000/svg" width="66" height="66" fill="none"><g clip-path="url(#a)"><path fill="#5AAB5F" d="M61.003 49.03a31.44 31.44 0 0 0 3.579-14.611c0-17.442-14.14-31.582-31.582-31.582S1.418 16.977 1.418 34.419A31.44 31.44 0 0 0 4.997 49.03z"/><path fill="#665364" d="M30.632.148c-7.11.968-7.786 5-7.79 6.48 0 .31-.172.597-.451.733-3.699 1.8-1.705 10.471-1.705 10.471.372.025.76.176 1.05.316q.106-.665.351-1.297c.125-.32.28-.645.476-.95.338-.531.492-1.157.446-1.783-.133-1.81-.069-5.374 2.32-6.449 2.023-.91 4.504-.383 6.087.143a5.03 5.03 0 0 0 3.169 0c1.583-.526 4.064-1.053 6.088-.143 2.38 1.072 2.451 4.62 2.32 6.434-.046.63.104 1.263.445 1.797.201.316.361.651.488.981q.236.618.338 1.267c.366-.177.888-.37 1.335-.307.055-1.896.23-3.94.23-3.94C47.936 3.58 38.289-.896 30.632.148"/><path fill="#543E5B" d="M30.632.148c-7.11.969-7.787 5-7.79 6.48 0 .31-.172.598-.451.733-3.699 1.8-1.705 10.472-1.705 10.472.372.025.76.175 1.05.316q.107-.665.351-1.298c.125-.32.28-.644.476-.95a2.92 2.92 0 0 0 .446-1.783c-.133-1.809-.069-5.374 2.32-6.448 1.924-.867 4.264-.431 5.85.066q-.02-.04-.042-.078C28.489 3.028 32.969.108 33.13.003a16.5 16.5 0 0 0-2.499.145"/><path fill="#FCAD6D" d="M46.398 18.088c-.554-.508-1.657-.25-2.134.06.105.65.11 1.316.02 1.974l-.563 4.1q0 .495-.03.973c1.374.414 2.055-.818 2.17-1.664q.074-.547.243-1.073c.365-1.14 1.682-3.099.294-4.37"/><path fill="#FD995B" d="M45.206 21.539c-.394 0-.761-.114-1.074-.307l-.41 2.99q0 .495-.03.973c1.373.414 2.054-.818 2.17-1.664q.074-.547.242-1.073c.142-.446.43-1.018.646-1.624a2.04 2.04 0 0 1-1.544.705"/><path fill="#FCAD6D" d="M19.602 18.088c.554-.508 1.657-.25 2.134.06a6.7 6.7 0 0 0-.02 1.974l.563 4.1q0 .495.03.973c-1.373.414-2.055-.818-2.17-1.664a6.3 6.3 0 0 0-.242-1.073c-.365-1.14-1.683-3.099-.295-4.37"/><path fill="#FD995B" d="M21.849 21.086a2.04 2.04 0 0 1-2.478.067c.192.487.409.939.526 1.306q.168.526.242 1.073c.115.845.797 2.078 2.17 1.664q-.03-.478-.03-.974z"/><path fill="#FCAD6D" d="M25.997 40.611c.754 1.828 2.092 3.548 3.977 5.112.23.192.369.474.38.775l.006.18h5.28l.007-.18c.01-.3.15-.583.38-.775 1.884-1.564 3.222-3.284 3.976-5.112.521-1.263.667-2.345.68-3.126-.42-1.235-.564-2.635-.602-3.745a15 15 0 0 1-2.183 2.087A8 8 0 0 1 33 37.501c-1.776 0-3.5-.589-4.897-1.674a15 15 0 0 1-2.183-2.087c-.038 1.11-.183 2.51-.602 3.745.013.78.159 1.863.68 3.126"/><path fill="#FD995B" d="M33 37.501c-1.776 0-3.5-.589-4.897-1.674a15 15 0 0 1-2.183-2.087c-.038 1.11-.183 2.51-.602 3.745.013.78.159 1.863.68 3.126.753 1.828 2.091 3.548 3.976 5.112l.05.046C32.826 43.143 33 37.5 33 37.5"/><path fill="#BEC8F7" d="M35.546 62.43c2.712-4.795 4.442-9.542 5.543-13.724a56 56 0 0 1-1.155 1.707.976.976 0 0 1-1.574.029l-1.109-1.45-1.135 2.02a1.71 1.71 0 0 1-1.54.95h-3.133a1.71 1.71 0 0 1-1.538-.95l-1.144-2.037-1.12 1.467a.98.98 0 0 1-.797.384.97.97 0 0 1-.778-.413 56 56 0 0 1-1.155-1.707c1.1 4.182 2.831 8.929 5.543 13.724z"/><path fill="#543E5B" d="M34.577 51.962h-3.133q-.227 0-.44-.057c-.83 2.216-1.376 5.503-1.732 8.32a55 55 0 0 0 3.386 5.77q.171.003.342.005.171-.002.342-.005a55 55 0 0 0 3.522-6.04c-.358-2.756-.9-5.941-1.712-8.09a1.7 1.7 0 0 1-.575.097"/><path fill="#543E5B" d="M34.577 51.962h-3.133q-.227 0-.44-.057c-.83 2.216-1.376 5.503-1.732 8.32a55 55 0 0 0 3.386 5.77q.171.003.342.005.171-.002.342-.005a55 55 0 0 0 3.522-6.04c-.358-2.756-.9-5.941-1.712-8.09a1.7 1.7 0 0 1-.575.097"/><path fill="#422953" d="M33.012 58.204a3.85 3.85 0 0 1-3.18-1.678c-.225 1.24-.41 2.511-.56 3.699a55 55 0 0 0 3.386 5.77Q32.83 66 33 66q.172-.001.342-.004a55 55 0 0 0 3.522-6.04 69 69 0 0 0-.558-3.605 3.85 3.85 0 0 1-3.294 1.853"/><path fill="#665364" d="M35.76 46.491h-5.375l-1.72 2.714 1.072 2.142a1.91 1.91 0 0 0 1.707 1.055h3.133c.723 0 1.384-.409 1.707-1.055l1.071-2.142z"/><path fill="#543E5B" d="M33.458 51.322a4.34 4.34 0 0 1 .216-4.264l.36-.567h-3.649l-1.72 2.714 1.072 2.142a1.91 1.91 0 0 0 1.707 1.055h3.133q.159 0 .312-.027a1.95 1.95 0 0 1-1.43-1.053"/><path fill="#E9EFFF" d="M38.21 50.556a1.164 1.164 0 0 0 1.877-.035c.384-.545.857-1.238 1.357-2.02 1.125-4.463 1.504-8.007 1.654-9.803l-2.134-1.86a.287.287 0 0 0-.475.23c.068 1.464-.3 4.955-4.582 8.51a1.24 1.24 0 0 0-.196 1.708zM24.557 48.502c.5.782.972 1.474 1.356 2.02.452.642 1.4.659 1.876.034l2.5-3.27a1.24 1.24 0 0 0-.196-1.708c-4.282-3.555-4.65-7.046-4.582-8.51a.287.287 0 0 0-.475-.23l-2.134 1.86c.15 1.796.53 5.341 1.655 9.804"/><path fill="#DAE2FE" d="M28.666 44.253c-2.94-3.07-3.214-5.904-3.154-7.185a.287.287 0 0 0-.476-.23l-2.133 1.86a60 60 0 0 0 1.22 7.966c.482-.09.919-.369 1.206-.788 1.618-2.36 3.337-1.623 3.337-1.623"/><path fill="#422953" d="M20.543 58.011a.546.546 0 0 1-.04-.662l2.229-3.32c.16-.239.2-.533.108-.806a.92.92 0 0 0-.573-.579l-3.726-1.286a.55.55 0 0 1-.366-.465 43.3 43.3 0 0 1 .056-8.673c.031-.28.13-.549.28-.785-.946.427-1.877.902-2.802 1.424-1.077.607-1.563.961-2.477 1.036-4.16.34-6.726 2.407-8.303 5.006 4.634 8.962 13.433 15.42 23.836 16.815-4.072-3.083-7.21-6.542-8.222-7.705"/><path fill="#30144A" d="M12.688 58.599c.465-8.132 5.109-9.893 5.109-9.893q.108-.109.217-.21a44 44 0 0 1 .217-6.276c.031-.28.13-.549.28-.785-.946.427-1.877.902-2.802 1.424-1.077.607-1.563.961-2.477 1.036-4.159.34-6.726 2.407-8.303 5.006a31.7 31.7 0 0 0 7.76 9.698"/><path fill="#543E5B" d="M23.329 38.402a.544.544 0 0 0-.875-.388l-3.632 2.8a2.03 2.03 0 0 0-.778 1.386c-.168 1.527-.431 4.893-.056 8.71.028.287.219.532.491.626l3.726 1.286a.734.734 0 0 1 .37 1.102l-2.23 3.32a.73.73 0 0 0 .056.89c1.01 1.162 4.036 4.496 7.981 7.528 1.47.216 2.974.33 4.503.336-7.984-11.806-9.275-24.054-9.556-27.596"/><path fill="#422953" d="M23.329 38.402a.544.544 0 0 0-.875-.388l-3.632 2.8a2.03 2.03 0 0 0-.778 1.386 44 44 0 0 0-.21 6.47c2.14-2.117 4.35-2.207 5.662-1.998.375.06.749 0 1.08-.155a57 57 0 0 1-1.247-8.115"/><path fill="#543E5B" d="M37.261 65.713c10.392-1.402 19.181-7.857 23.81-16.812-1.576-2.599-4.143-4.666-8.302-5.006-.914-.075-1.4-.43-2.477-1.036a35 35 0 0 0-2.801-1.424c.15.236.248.504.279.785.178 1.63.424 4.924.056 8.673a.55.55 0 0 1-.366.465l-3.726 1.286a.92.92 0 0 0-.574.579.92.92 0 0 0 .109.806l2.23 3.32a.546.546 0 0 1-.041.662 55 55 0 0 1-8.197 7.702"/><path fill="#665364" d="m47.178 40.815-3.631-2.8a.544.544 0 0 0-.875.387c-.281 3.542-1.571 15.79-9.556 27.596a32 32 0 0 0 4.503-.336c3.945-3.033 6.97-6.366 7.98-7.528a.73.73 0 0 0 .055-.89l-2.229-3.32a.734.734 0 0 1 .37-1.102l3.726-1.286a.74.74 0 0 0 .492-.625c.375-3.817.111-7.184-.057-8.711a2.03 2.03 0 0 0-.778-1.386"/><path fill="#F9BA8F" d="M43.984 16.859c-.4-1.045-1.02-1.478-.929-2.753.332-4.578-1.334-6.034-2.357-6.494-2.005-.903-4.442-.422-6.133.14a5 5 0 0 1-3.13 0c-1.69-.562-4.127-1.043-6.132-.14-1.025.46-2.694 1.92-2.356 6.51.092 1.25-.52 1.681-.918 2.705a6.64 6.64 0 0 0-.375 3.302l.563 4.092c0 6.76 4.09 10.665 5.848 12.03a8.07 8.07 0 0 0 9.871 0c1.758-1.365 5.848-5.27 5.848-12.021l.563-4.1a6.64 6.64 0 0 0-.363-3.271"/><path fill="#FCAD6D" d="M33.994 36.253c-1.758-1.366-5.848-5.271-5.848-12.03l-.562-4.093a6.64 6.64 0 0 1 .375-3.302c.398-1.024 1.01-1.456.917-2.705-.327-4.45 1.232-5.958 2.261-6.465-1.67-.518-3.944-.896-5.834-.045-1.025.46-2.694 1.92-2.356 6.51.091 1.249-.52 1.681-.918 2.705a6.64 6.64 0 0 0-.375 3.302l.563 4.092c0 6.76 4.09 10.665 5.848 12.03a8.07 8.07 0 0 0 7.9 1.123 8 8 0 0 1-1.97-1.123"/><path fill="#422953" d="M54.523 57.528c-.4-.47-.822-.89-1.236-1.26-1.06-.942-2.739-.174-2.739 1.244v3.166a32 32 0 0 0 3.975-3.15"/><path fill="#81C66D" d="M64.582 34.418c0-10.188-4.826-19.248-12.314-25.022.94 3.194 1.37 7.661-.762 12.63-3.274 7.631-5.105 12.494 1.03 14.74 4.35 1.593 8.66 2.37 11.215 4.875.543-2.32.83-4.738.83-7.223M1.418 34.418c0-10.188 4.826-19.248 12.315-25.022-.94 3.194-1.371 7.661.761 12.63 3.274 7.631 5.105 12.494-1.03 14.74-4.35 1.593-8.66 2.37-11.215 4.875a31.7 31.7 0 0 1-.83-7.223"/></g><defs><clipPath id="a"><path fill="#fff" d="M0 0h66v66H0z"/></clipPath></defs></svg>