<svg xmlns="http://www.w3.org/2000/svg" width="66" height="66" fill="none"><g clip-path="url(#a)"><path fill="#746BF9" d="M31.672 2.915c-17.397 0-31.5 14.103-31.5 31.5 0 1.858.163 3.678.471 5.448L26.61 65.507c1.648.266 3.339.407 5.063.407 17.396 0 31.499-14.103 31.499-31.5S49.068 2.916 31.671 2.916"/><path fill="#42C3FC" d="M40.66 15.313a7.613 7.613 0 1 0 0-15.227 7.613 7.613 0 0 0 0 15.227"/><path fill="#1AA9E8" d="M43.991 14.546a.6.6 0 0 0-.187-.109c-2.005-.697-1.84-2.274-1.61-3.064a.63.63 0 0 0-.243-.694c-.786-.561-.538-1.438-.367-1.836a.62.62 0 0 0 .015-.453l-1.395-3.857a.64.64 0 0 0-.332-.357c-1.727-.81-1.462-2.729-1.274-3.502a.6.6 0 0 0-.003-.302 7.613 7.613 0 1 0 5.397 14.174"/><path fill="#E9EFFF" d="M40.66 4.251a6.08 6.08 0 0 0-5.28 3.064.77.77 0 0 0 0 .769 6.08 6.08 0 0 0 5.28 3.065 6.08 6.08 0 0 0 5.28-3.065.77.77 0 0 0 0-.769 6.08 6.08 0 0 0-5.28-3.064"/><path fill="#BEC8F7" d="M41.951 10.679c-.785-.562-.538-1.438-.367-1.836a.62.62 0 0 0 .015-.454l-1.394-3.856a.6.6 0 0 0-.171-.247 6.08 6.08 0 0 0-4.654 3.03.77.77 0 0 0 0 .768 6.08 6.08 0 0 0 6.79 2.872.64.64 0 0 0-.219-.277"/><path fill="#FF4155" d="M64.827 20.2A7.612 7.612 0 1 0 50.012 16.7 7.612 7.612 0 0 0 64.827 20.2"/><path fill="#E80054" d="M59.936 21.025a.6.6 0 0 0-.453-.523.8.8 0 0 1-.411-.263.5.5 0 0 1-.073-.113c-.12-.246-.809-1.545-2.375-2.386-1.21-.65-1.103-1.558-.927-2.05a.59.59 0 0 0-.147-.626c-1.488-1.452-.78-3.01-.362-3.665a.6.6 0 0 0 .093-.278 7.613 7.613 0 1 0 7.829 12.355c-2.623.112-3.103-1.564-3.175-2.451"/><path fill="#E9EFFF" d="M61.497 16.677c-.689-1.262-2.305-1.679-3.558-.976l-.306.171a.46.46 0 0 1-.446 0l-.361-.203a2.563 2.563 0 0 0-3.527 1.053 2.557 2.557 0 0 0 .974 3.393 11.6 11.6 0 0 1 2.732 2.168.55.55 0 0 0 .81 0 11.6 11.6 0 0 1 2.732-2.168 2.56 2.56 0 0 0 .95-3.438"/><path fill="#BEC8F7" d="M54.273 20.115a11.6 11.6 0 0 1 2.732 2.168.55.55 0 0 0 .81 0 11.2 11.2 0 0 1 1.916-1.65.6.6 0 0 0-.248-.13.8.8 0 0 1-.412-.264.5.5 0 0 1-.072-.113c-.12-.246-.81-1.545-2.376-2.386-1.209-.65-1.102-1.558-.926-2.05a.6.6 0 0 0 .016-.342 2.56 2.56 0 0 0-2.414 1.374 2.56 2.56 0 0 0 .974 3.393"/><path fill="#FFB332" d="M63.759 43.37a7.612 7.612 0 1 0-10.766-10.765A7.612 7.612 0 0 0 63.76 43.37"/><path fill="#FF9100" d="m59.884 42.478-1.823-8.233c-2.684-1-1.603-3.62-1.6-3.628a7.613 7.613 0 1 0 4.735 14.443c-1.89-.631-1.312-2.582-1.312-2.582"/><path fill="#E9EFFF" d="M54.967 34.246h6.84c.604 0 1.099.495 1.099 1.1v4.86c0 .605-.495 1.1-1.1 1.1h-.978a.32.32 0 0 0-.27.145l-.674 1.027a.414.414 0 0 1-.694 0l-.673-1.027a.32.32 0 0 0-.27-.146h-3.28a1.1 1.1 0 0 1-1.1-1.099v-4.86c0-.605.495-1.1 1.1-1.1"/><path fill="#BEC8F7" d="M56.962 40.206v-4.86c0-.605.494-1.1 1.099-1.1h-3.095c-.604 0-1.099.495-1.099 1.1v4.86c0 .605.495 1.1 1.1 1.1h3.094a1.1 1.1 0 0 1-1.1-1.1"/><path fill="#47477F" d="M38.733 4.563a2.576 2.576 0 1 0 3.854 0 6 6 0 0 0-1.927-.312c-.674 0-1.322.11-1.927.312"/><path fill="#D3DCFB" d="M19.036 51.714a1.69 1.69 0 0 1-2.02-.254l-.117-.114-2.562 1.479 5.086 5.327a5.017 5.017 0 0 0 1.735-7.663z"/><path fill="#BEC8F7" d="m17.015 51.46-.116-.114-2.562 1.479 5.086 5.327q.17-.08.333-.174a5 5 0 0 0 1.873-1.901c-3.558-.88-2.593-4.363-2.593-4.363a1.69 1.69 0 0 1-2.02-.254"/><path fill="#E9EFFF" d="M14.478 52.661 8.72 55.986c4.685 4.983 10.975 8.44 18.045 9.547z"/><path fill="#D3DCFB" d="m19.624 58.05-5.146-5.39-5.758 3.325a31.6 31.6 0 0 0 6.841 5.499c-.138-3.93 4.063-3.433 4.063-3.433"/><path fill="#E9EFFF" d="m5.371 37.295-1.76-3.049A1.935 1.935 0 1 0 .26 36.181l1.76 3.049z"/><path fill="#D3DCFB" d="M3.79 34.556q.01.105.01.212a2.147 2.147 0 0 1-3.319 1.797L2.02 39.23l3.351-1.935z"/><path fill="#FF7186" d="m8.922 56.2 8.306-4.796a2 2 0 0 1-.32-.409L8.205 35.922a2 2 0 0 1-.194-.482L.618 39.71a31.4 31.4 0 0 0 8.304 16.49"/><path fill="#FF4155" d="m12.138 43.572.007-.827-3.94-6.823a2 2 0 0 1-.194-.482L.618 39.71a31.3 31.3 0 0 0 2.815 8.67c.174-1.654 1.28-2.193 1.28-2.193s2.25-1.318 4.21-2.395c1.959-1.078 3.215-.22 3.215-.22"/><path fill="#D3DCFB" d="M26.77 46.614a29.58 29.58 0 0 1 17.992-1.246L27.005 14.612A29.6 29.6 0 0 1 16.93 29.57c.365.157.685.426.899.796l8.702 15.073c.213.37.287.781.24 1.175"/><path fill="#BEC8F7" d="m33.216 25.37-6.211-10.758A29.58 29.58 0 0 1 16.93 29.57c.365.157.685.426.899.796l4.238 7.34c4.96-3.589 8.783-7.911 11.149-12.337"/><path fill="#FF4155" d="m26.083 47.894-6.94 4.006a1.9 1.9 0 0 1-2.598-.696L7.843 36.13a1.9 1.9 0 0 1 .696-2.599l6.94-4.006a1.9 1.9 0 0 1 2.598.696l8.702 15.073c.526.91.214 2.073-.696 2.599"/><path fill="#E80054" d="M18.077 30.222a1.9 1.9 0 0 0-2.599-.696l-6.94 4.006a1.9 1.9 0 0 0-.695 2.599l4.295 7.44c.49-2.168 2.29-1.194 2.29-1.194l5.766-3.329c.266-2.084 2.105-1.512 2.105-1.512z"/><path fill="#FF7186" d="M11.71 36.705a.964.964 0 0 1-.483-1.8l4.097-2.364a.964.964 0 1 1 .964 1.67l-4.096 2.365a.96.96 0 0 1-.482.129M13.487 39.783a.964.964 0 0 1-.483-1.8L17.1 35.62a.964.964 0 1 1 .964 1.67l-4.096 2.365a.96.96 0 0 1-.481.129M15.264 42.86a.964.964 0 0 1-.483-1.8l4.096-2.364a.964.964 0 1 1 .964 1.67l-4.096 2.365a.96.96 0 0 1-.481.13M17.04 45.937a.964.964 0 0 1-.482-1.8l4.096-2.364a.964.964 0 1 1 .964 1.67l-4.096 2.365a.96.96 0 0 1-.481.13M18.817 49.015a.964.964 0 0 1-.483-1.8l4.096-2.365a.964.964 0 1 1 .964 1.67l-4.096 2.365a.96.96 0 0 1-.481.13"/><path fill="#E9EFFF" d="M47.247 46.317a1.935 1.935 0 0 1-2.643-.708l-17.887-30.98a1.935 1.935 0 1 1 3.352-1.936l17.886 30.98a1.935 1.935 0 0 1-.708 2.644"/><path fill="#D3DCFB" d="M34.18 23.529a2.27 2.27 0 0 1 2.093-.09L30.07 12.693a1.935 1.935 0 1 0-3.351 1.935l6.33 10.965a2.27 2.27 0 0 1 1.131-2.064"/><path fill="#827DF9" d="M54.4 56.221c-2-3.068-5.5-6.6-9.716-6.098-7.213.859-25.085 1.812-11.533 15.755 8.341-.386 15.835-4.016 21.25-9.657M2.606 22.254C5 35.904 22.233 14.121 23.146 9.292c.41-2.167-.646-3.623-1.983-4.58A31.6 31.6 0 0 0 2.606 22.255"/><path fill="#5F5F9B" d="M41.412 6.828a.94.94 0 1 0 0-1.88.94.94 0 0 0 0 1.88"/></g><defs><clipPath id="a"><path fill="#fff" d="M0 0h66v66H0z"/></clipPath></defs></svg>