<svg xmlns="http://www.w3.org/2000/svg" width="66" height="66" fill="none"><path fill="#64C4FF" d="M33 66c18.225 0 33-14.775 33-33S51.225 0 33 0 0 14.775 0 33s14.775 33 33 33"/><path fill="#FAC149" d="M62.023 23.204c0-.936-.759-1.694-1.694-1.694H15.087c-.843 0-1.526.683-1.526 1.525v32.373c0 2-1.621 3.622-3.622 3.622h43.346a33.15 33.15 0 0 0 8.738-10.31z"/><path fill="#F8A748" d="M17.712 55.408V23.035c0-.842.683-1.525 1.525-1.525h-4.15c-.843 0-1.526.683-1.526 1.525v32.373c0 2-1.621 3.622-3.622 3.622h4.15c2.001 0 3.623-1.622 3.623-3.622"/><path fill="#FCD597" d="m13.56 55.435.002-.028V23.034c0-.842.682-1.525 1.524-1.525h33.26a13.722 13.722 0 0 1 .24-3.602h-17.44c-.368 0-.712-.187-.912-.497l-2.263-3.5a1.68 1.68 0 0 0-1.297-.612H8.114c-.993 0-1.798.804-1.798 1.797v40.23c0 2.02 1.644 3.723 3.66 3.703a3.62 3.62 0 0 0 3.585-3.593"/><path fill="#FAC149" d="M17.721 19.45a6.153 6.153 0 0 1 6.153-6.152H8.114c-.993 0-1.798.804-1.798 1.797v40.23c0 2.02 1.644 3.722 3.66 3.703a3.62 3.62 0 0 0 3.585-3.593V23.034c0-.842.683-1.525 1.525-1.525h2.635z"/><path fill="#EFEFEF" d="M52.054 34.264c7.537 0 13.647-6.11 13.647-13.647S59.59 6.971 52.054 6.971s-13.646 6.11-13.646 13.646 6.11 13.647 13.646 13.647"/><path fill="#DDD" d="M43.658 25.465c-3.433-5.946-1.882-13.401 3.356-17.53q-.91.36-1.782.864c-6.527 3.768-8.763 12.114-4.995 18.641s12.114 8.763 18.641 4.995a14 14 0 0 0 1.64-1.111c-6.195 2.47-13.427.086-16.86-5.86"/><path fill="#EFEFEF" d="M60.79 50.805a32.8 32.8 0 0 0 4.62-11.575H33.456c-.934 0-1.698.763-1.698 1.697v8.18c0 .934.764 1.698 1.698 1.698z"/><path fill="#DDD" d="M38.726 49.108v-8.181c0-.934.764-1.697 1.697-1.697h-6.967c-.934 0-1.698.763-1.698 1.697v8.18c0 .934.764 1.698 1.698 1.698h6.967a1.7 1.7 0 0 1-1.697-1.697"/><path fill="#BAB6B3" d="M40.566 43.178a1.06 1.06 0 0 0-1.5 0l-.34.339-.338-.34a1.06 1.06 0 0 0-1.5 1.5l.339.34-.34.34a1.06 1.06 0 1 0 1.5 1.5l.34-.34.339.34a1.057 1.057 0 0 0 1.5 0 1.06 1.06 0 0 0 0-1.5l-.34-.34.34-.34a1.06 1.06 0 0 0 0-1.5M47.23 43.178a1.06 1.06 0 0 0-1.5 0l-.34.339-.339-.34a1.06 1.06 0 0 0-1.5 1.5l.34.34-.34.34a1.06 1.06 0 0 0 1.5 1.5l.34-.34.339.34a1.057 1.057 0 0 0 1.5 0 1.06 1.06 0 0 0 0-1.5l-.339-.34.34-.34a1.06 1.06 0 0 0-.001-1.5M53.894 43.178a1.06 1.06 0 0 0-1.5 0l-.34.339-.338-.34a1.06 1.06 0 0 0-1.5 1.5l.339.34-.34.34a1.06 1.06 0 1 0 1.5 1.5l.34-.34.339.34a1.057 1.057 0 0 0 1.5 0 1.06 1.06 0 0 0 0-1.5l-.339-.34.34-.34a1.06 1.06 0 0 0-.001-1.5M60.559 43.178a1.06 1.06 0 0 0-1.5 0l-.34.339-.339-.34a1.06 1.06 0 1 0-1.5 1.5l.34.34-.34.34a1.06 1.06 0 1 0 1.5 1.5l.34-.34.339.34a1.057 1.057 0 0 0 1.5 0 1.06 1.06 0 0 0 0-1.5l-.34-.34.34-.34a1.06 1.06 0 0 0 0-1.5"/><path fill="#DDD" d="M55.953 19.375a1.06 1.06 0 0 1-1.06-1.06v-2.86a2.84 2.84 0 0 0-2.838-2.838 2.84 2.84 0 0 0-2.838 2.837v2.86a1.06 1.06 0 0 1-2.121 0v-2.86a4.965 4.965 0 0 1 4.959-4.959 4.965 4.965 0 0 1 4.959 4.96v2.86c0 .585-.475 1.06-1.061 1.06"/><path fill="#CCC" d="M53.123 10.612a4.965 4.965 0 0 0-6.027 4.842v2.86a1.06 1.06 0 0 0 2.121 0v-2.86q0-.234.038-.458a4.97 4.97 0 0 1 3.868-4.384"/><path fill="#FC5B6F" d="M57.066 28.673H47.044a1.057 1.057 0 0 1-1.056-1.057v-8.652c0-.584.473-1.057 1.056-1.057h10.022c.583 0 1.056.473 1.056 1.057v8.652c0 .584-.473 1.057-1.056 1.057"/><path fill="#F74352" d="M49.085 27.616v-8.652c0-.584.473-1.057 1.056-1.057h-3.097c-.583 0-1.056.473-1.056 1.057v8.652c0 .584.473 1.057 1.056 1.057h3.097a1.056 1.056 0 0 1-1.056-1.057"/><path fill="#F74352" d="M53.88 22.575a1.825 1.825 0 1 0-2.886 1.483v1.079a1.06 1.06 0 0 0 2.121 0v-1.079a1.82 1.82 0 0 0 .765-1.483"/><path fill="#E8364C" d="M52.358 22.574c0-.61.3-1.15.761-1.481a1.826 1.826 0 1 0-2.125 2.965v1.078a1.06 1.06 0 0 0 2.121 0v-1.078l.004-.003a1.82 1.82 0 0 1-.761-1.481"/></svg>