<svg xmlns="http://www.w3.org/2000/svg" width="54" height="54" fill="none"><path fill="url(#a)" d="M47.362 40.922a.79.79 0 0 0 .791-.791V21.146c0-.944-.368-1.91-1.036-2.719l-5.867-7.108a4.6 4.6 0 0 0-1.044-.936q.037-.363.037-.733V.791a.791.791 0 0 0-1.582 0l-.002 8.973a4 4 0 0 0-.684-.06h-10.23c-.72 0-1.426.201-2.058.573a1 1 0 0 0-.081.033l-7.711 3.756a4.13 4.13 0 0 0-1.936 2.053l-3.188 8.087a.791.791 0 0 0 1.472.58l3.181-8.071c.24-.535.658-.973 1.172-1.23L22.67 13.5l-4.067 4.927c-.609.738-.93 1.678-.93 2.72v27.316q.002.478.078.933l-8.15-3.612a3.67 3.67 0 0 1-1.86-4.83l.01-.024 5.155-12.813a.791.791 0 1 0-1.467-.59l-5.151 12.8c-1.159 2.642.038 5.737 2.672 6.904l9.558 4.235.035.013c.97 1.516 2.647 2.52 4.551 2.52h19.512c3.002 0 5.537-2.535 5.537-5.536v-4.64a.791.791 0 1 0-1.582 0v4.64c0 2.144-1.811 3.955-3.955 3.955H23.104c-2.122 0-3.85-1.774-3.85-3.955V21.146c0-.679.192-1.255.57-1.712l5.866-7.108c.546-.662 1.295-1.04 2.055-1.04h10.23q.225 0 .445.043a5.96 5.96 0 0 1-3.379 3.803 2.48 2.48 0 0 0-4.607 1.268 2.48 2.48 0 0 0 2.479 2.479 2.48 2.48 0 0 0 2.46-2.175 7.54 7.54 0 0 0 4.458-4.597q.104.104.2.219l5.866 7.108c.435.527.674 1.135.674 1.712v18.985c0 .437.354.79.791.79m-14.45-23.625a.898.898 0 0 1 0-1.793.898.898 0 0 1 0 1.793"/><path fill="url(#b)" d="M26.057 42.082a.8.8 0 0 0 .56-.232l13.5-13.5a.791.791 0 1 0-1.12-1.118l-13.5 13.5c-.504.47-.117 1.374.56 1.35"/><path fill="url(#c)" d="M27.744 33.75a3.43 3.43 0 0 0 3.428-3.428 3.43 3.43 0 0 0-3.428-3.427h-.105a3.43 3.43 0 0 0-3.428 3.427 3.43 3.43 0 0 0 3.428 3.428zm-1.951-3.428c0-1.017.828-1.845 1.846-1.845h.105c1.018 0 1.846.828 1.846 1.845a1.85 1.85 0 0 1-1.846 1.846h-.105a1.85 1.85 0 0 1-1.846-1.846"/><path fill="url(#d)" d="M37.975 42.082h.105a3.43 3.43 0 0 0 3.428-3.428 3.43 3.43 0 0 0-3.428-3.427h-.105a3.43 3.43 0 0 0-3.428 3.427 3.43 3.43 0 0 0 3.428 3.428m0-5.273h.105c1.018 0 1.846.828 1.846 1.845A1.85 1.85 0 0 1 38.08 40.5h-.105a1.85 1.85 0 0 1-1.846-1.846c0-1.017.828-1.845 1.846-1.845"/><defs><linearGradient id="a" x1="5.846" x2="47.626" y1="36.61" y2="36.056" gradientUnits="userSpaceOnUse"><stop stop-color="#679FEF"/><stop offset="1" stop-color="#A87FFF"/></linearGradient><linearGradient id="b" x1="25.268" x2="40.158" y1="37.225" y2="36.974" gradientUnits="userSpaceOnUse"><stop stop-color="#679FEF"/><stop offset="1" stop-color="#A87FFF"/></linearGradient><linearGradient id="c" x1="24.211" x2="31.084" y1="31.542" y2="31.424" gradientUnits="userSpaceOnUse"><stop stop-color="#679FEF"/><stop offset="1" stop-color="#A87FFF"/></linearGradient><linearGradient id="d" x1="34.547" x2="41.42" y1="39.874" y2="39.756" gradientUnits="userSpaceOnUse"><stop stop-color="#679FEF"/><stop offset="1" stop-color="#A87FFF"/></linearGradient></defs></svg>