<svg xmlns="http://www.w3.org/2000/svg" width="54" height="54" fill="none"><path fill="url(#a)" d="M28.511 6.644a3.7 3.7 0 0 0-2.262.316 2.36 2.36 0 0 0-2.86.276l-2.512 2.352v-.205a3.83 3.83 0 0 0-3.832-3.832 2.3 2.3 0 0 0-2.3 2.299v7.507l-1.876 2.035a3.05 3.05 0 0 0-.81 2.119 50.4 50.4 0 0 0 .59 7.981q.024.091.071.173l-1.25 3.519a3.03 3.03 0 0 0 1.16 3.552l.438.297a3.07 3.07 0 0 0 1.161 3.526l12.41 8.508c.21.143.334.38.334.633a2.3 2.3 0 0 0 2.3 2.3H40.41c.7.001 1.361-.318 1.795-.866a2.3 2.3 0 0 0 .436-1.98l-1.119-4.138a18.2 18.2 0 0 1-.343-5.51c.631-8.01-4.739-13.797-6.1-14.803-2.506-1.846-4.375-3.772-5.13-5.283-1.13-2.267-.368-3.818.369-5.317.617-1.258 1.257-2.558.35-3.921a3.37 3.37 0 0 0-2.158-1.538m-11.466.44a2.3 2.3 0 0 1 2.3 2.299v1.64l-3.067 2.87V7.85a.765.765 0 0 1 .767-.766M13.59 19.49a1.52 1.52 0 0 1 .405-1.059l2.023-2.197a1 1 0 0 0 .052-.05l4.501-4.212a.8.8 0 0 0 .119-.112l3.765-3.525a.773.773 0 0 1 1.078 0l.053-.053a1 1 0 0 0 .06.061l-.05.062a2.3 2.3 0 0 1-.051 3.173l-3.015 2.895-4.245 3.823a1.5 1.5 0 0 0-.402 1.088 3.83 3.83 0 0 0-3.113 2.509l-.962 2.706c-.154-1.885-.203-4.018-.218-5.11m5.82-.143 2.214-1.993a12.4 12.4 0 0 0 .073 1.993zm-6.5 12.36 3.305-9.3a2.31 2.31 0 0 1 2.182-1.527h6.578c.159.001.314.05.443.143l3.968 2.811a.585.585 0 0 1 .17.779c-.026.044-.062.089-.094.133l-1.245-.891a3.8 3.8 0 0 0-2.222-.714h-6.032a3.83 3.83 0 0 0-3.608 2.557l-2.76 7.841-.1-.067a1.5 1.5 0 0 1-.585-1.765m16.035-20.27c-.774 1.575-1.834 3.731-.364 6.678 1.175 2.355 4.007 4.665 5.59 5.83 1.018.75 6.062 6.1 5.482 13.45a19.8 19.8 0 0 0 .383 6.001l1.12 4.14a.767.767 0 0 1-.745.937H29.268a.767.767 0 0 1-.766-.766 2.3 2.3 0 0 0-.996-1.898L15.096 37.3a1.54 1.54 0 0 1-.578-1.777l3.282-9.32a2.3 2.3 0 0 1 2.162-1.533h6.032c.478 0 .945.15 1.333.428l3.539 2.534a.595.595 0 0 1 .161.785 2.29 2.29 0 0 1-3.236.73l-1.533-1.023a2.3 2.3 0 0 0-1.276-.388h-2.36a2.28 2.28 0 0 0-2.186 1.589c-.046.143-.11.321-.183.521-.552 1.525-1.84 5.094 1.082 6.266a.767.767 0 1 0 .57-1.422c-1.285-.516-1.013-2.102-.21-4.322.081-.224.153-.42.203-.58a.75.75 0 0 1 .724-.52h2.36c.15 0 .297.046.422.13l1.533 1.024a3.824 3.824 0 0 0 5.404-1.218 2.137 2.137 0 0 0-.586-2.82l-1.048-.753c.056-.076.117-.153.164-.23.57-.95.309-2.177-.596-2.813l-3.966-2.816a2.3 2.3 0 0 0-1.333-.426h-1.734c-.159-1.187-.12-2.392.114-3.567l3.266-3.106a3.83 3.83 0 0 0 .677-4.484 1.776 1.776 0 0 1 2.097.851c.38.572.167 1.14-.45 2.396"/><path fill="url(#b)" d="M25.688 36.21a.768.768 0 0 0-.486 1.457c1.77.593 6.362 2.72 6.362 5.404a.766.766 0 0 0 1.533 0c-.002-4.34-7.106-6.762-7.409-6.86"/><path fill="url(#c)" d="M30.865 33.405a.766.766 0 1 0-1.22.928c1.17 1.533 3.115 3.368 5.741 3.368a.767.767 0 1 0 0-1.533c-1.998 0-3.56-1.503-4.52-2.763"/><path fill="url(#d)" d="m31.39 4.257-.731.766a.766.766 0 1 0 1.11 1.056l.73-.766a.766.766 0 1 0-1.11-1.056"/><path fill="url(#e)" d="M35.018 7.697a.766.766 0 0 0-.946-.53l-.996.28a.767.767 0 1 0 .416 1.477l.996-.28a.766.766 0 0 0 .53-.947"/><path fill="url(#f)" d="M32.882 10.815a.767.767 0 0 0-.414 1.476l.996.28a.767.767 0 1 0 .415-1.476z"/><defs><linearGradient id="a" x1="11.287" x2="42.317" y1="35.685" y2="35.314" gradientUnits="userSpaceOnUse"><stop stop-color="#679FEF"/><stop offset="1" stop-color="#A87FFF"/></linearGradient><linearGradient id="b" x1="24.678" x2="32.991" y1="41.368" y2="41.214" gradientUnits="userSpaceOnUse"><stop stop-color="#679FEF"/><stop offset="1" stop-color="#A87FFF"/></linearGradient><linearGradient id="c" x1="29.488" x2="36.067" y1="36.22" y2="36.059" gradientUnits="userSpaceOnUse"><stop stop-color="#679FEF"/><stop offset="1" stop-color="#A87FFF"/></linearGradient><linearGradient id="d" x1="30.43" x2="32.7" y1="5.584" y2="5.546" gradientUnits="userSpaceOnUse"><stop stop-color="#679FEF"/><stop offset="1" stop-color="#A87FFF"/></linearGradient><linearGradient id="e" x1="32.51" x2="35.014" y1="8.369" y2="8.309" gradientUnits="userSpaceOnUse"><stop stop-color="#679FEF"/><stop offset="1" stop-color="#A87FFF"/></linearGradient><linearGradient id="f" x1="31.908" x2="34.406" y1="12.016" y2="11.957" gradientUnits="userSpaceOnUse"><stop stop-color="#679FEF"/><stop offset="1" stop-color="#A87FFF"/></linearGradient></defs></svg>