<svg xmlns="http://www.w3.org/2000/svg" width="54" height="54" fill="none"><g clip-path="url(#a)"><path fill="url(#b)" d="M50.544 15.008h-1.65A24.91 24.91 0 0 0 27 2.042C17.852 2.042 9.5 7 5.107 15.008H3.456c-.803 0-1.456.653-1.456 1.456v21.074c0 .802.653 1.456 1.456 1.456h1.65A24.92 24.92 0 0 0 27 51.959a24.91 24.91 0 0 0 21.894-12.966h1.65c.803 0 1.456-.653 1.456-1.455V16.464c0-.803-.653-1.456-1.456-1.456M3.466 16.473h30.289l-1.466 1.466H9.206a.733.733 0 0 0-.733.733 2.81 2.81 0 0 1-2.809 2.809.733.733 0 0 0-.733.732v9.575c0 .404.328.732.733.732a2.81 2.81 0 0 1 2.81 2.81c0 .404.327.732.732.732h4.96L12.7 37.528H3.467zm31.755-1.465H11.54c3.684-4.737 9.324-7.552 15.33-7.591a19.4 19.4 0 0 1 11.813 3.876.15.15 0 0 1 .06.112.16.16 0 0 1-.047.126zM15.63 34.596H9.877a4.285 4.285 0 0 0-3.479-3.478v-8.235a4.285 4.285 0 0 0 3.479-3.478h12.189a9.06 9.06 0 0 0-3.076 11.834zm34.903 2.932H26.363a.733.733 0 0 0 0 1.465H42.46a19.8 19.8 0 0 1-3.814 3.73.733.733 0 0 0 .875 1.175 21.2 21.2 0 0 0 4.76-4.905h2.926A23.44 23.44 0 0 1 27 50.494a23.45 23.45 0 0 1-20.206-11.5h2.917q.199.287.406.567a1.62 1.62 0 0 0 1.3.65c.43 0 .844-.17 1.15-.476l10.99-10.99a.733.733 0 1 0-1.037-1.035l-2.436 2.435a7.6 7.6 0 0 1-.68-3.143c0-4.189 3.408-7.596 7.596-7.596 1.091 0 2.162.234 3.143.68L24.728 25.5a.733.733 0 1 0 1.037 1.036l13.969-13.969a1.627 1.627 0 0 0-.174-2.45 20.85 20.85 0 0 0-12.7-4.166c-6.827.044-13.213 3.426-17.137 9.057H6.794A23.45 23.45 0 0 1 27 3.508a23.44 23.44 0 0 1 20.206 11.5H44.29a22 22 0 0 0-.406-.567 1.625 1.625 0 0 0-2.45-.174L14.266 41.434a1.626 1.626 0 0 0 .174 2.45 20.85 20.85 0 0 0 12.7 4.166 21 21 0 0 0 9.632-2.419.733.733 0 1 0-.684-1.296 19.55 19.55 0 0 1-8.958 2.25 19.38 19.38 0 0 1-11.813-3.876.15.15 0 0 1-.061-.113.16.16 0 0 1 .046-.126l3.477-3.477h4.461a.733.733 0 1 0 0-1.465h-2.995l1.465-1.466h23.084a.733.733 0 0 0 .733-.733 2.81 2.81 0 0 1 2.809-2.809.733.733 0 0 0 .733-.732v-9.574a.733.733 0 0 0-.733-.733 2.81 2.81 0 0 1-2.81-2.81.733.733 0 0 0-.732-.732h-4.96l1.466-1.466h9.234zm-26.677-3.612 10.059-10.059c.446.982.68 2.053.68 3.144 0 4.188-3.407 7.595-7.596 7.595a7.6 7.6 0 0 1-3.143-.68m12.205-6.915a9.05 9.05 0 0 0-1.051-4.239l3.357-3.357h5.756a4.29 4.29 0 0 0 3.479 3.479v8.234a4.285 4.285 0 0 0-3.479 3.479H31.935A9.06 9.06 0 0 0 36.063 27"/></g><defs><linearGradient id="b" x1="2" x2="51.371" y1="35.884" y2="35.047" gradientUnits="userSpaceOnUse"><stop stop-color="#679FEF"/><stop offset="1" stop-color="#A87FFF"/></linearGradient><clipPath id="a"><path fill="#fff" d="M2 2h50v50H2z"/></clipPath></defs></svg>