<svg xmlns="http://www.w3.org/2000/svg" width="51" height="51" fill="none"><g clip-path="url(#a)"><path fill="url(#b)" d="M43.333 17.043H.73a.73.73 0 0 0-.73.729v20.45c0 .403.326.73.728.73H29.7a.73.73 0 0 0 0-1.46H1.46V18.503h41.142v1.826c0 .403.325.73.728.73h.002a.73.73 0 0 0 .73-.728v-2.558a.73.73 0 0 0-.729-.73"/><path fill="url(#c)" d="M38.38 13.652 4.297 5.983a.733.733 0 0 0-.873.554L1.72 14.206a.73.73 0 1 0 1.426.317l1.545-6.954 33.367 7.507a.73.73 0 0 0 .32-1.425"/><path fill="url(#d)" d="M34.24 9.426 13.793.906a.733.733 0 0 0-.937.349L11.15 4.663a.733.733 0 1 0 1.31.654v.002L13.86 2.52l19.818 8.257a.732.732 0 0 0 .564-1.352"/><path fill="url(#e)" d="M34.758 20.451h-6.762a.73.73 0 0 0 0 1.46h6.762a.73.73 0 0 0 0-1.46"/><path fill="url(#f)" d="M21.18 20.499a7.5 7.5 0 0 0-7.498 7.498 7.506 7.506 0 0 0 7.498 7.498 7.498 7.498 0 1 0 0-14.996m0 13.633a6.135 6.135 0 0 1-6.135-6.135 6.14 6.14 0 0 1 6.135-6.135 6.135 6.135 0 1 1 0 12.27"/><path fill="url(#g)" d="M41.628 22.885c-4.516 0-9.372 1.066-9.372 3.408v20.449c0 2.341 4.856 3.408 9.372 3.408s9.373-1.067 9.373-3.408v-20.45c0-2.34-4.857-3.407-9.373-3.407m7.669 23.844c-.13.473-2.684 1.717-7.669 1.717s-7.54-1.244-7.668-1.704v-1.34c1.813.914 4.808 1.34 7.668 1.34s5.856-.43 7.669-1.34zm0-3.408c-.13.473-2.684 1.717-7.669 1.717s-7.54-1.244-7.668-1.704v-1.34c1.813.913 4.808 1.34 7.668 1.34s5.856-.43 7.669-1.34zm0-3.408c-.13.473-2.684 1.716-7.669 1.716s-7.54-1.243-7.668-1.704v-1.339c1.813.913 4.808 1.34 7.668 1.34s5.856-.43 7.669-1.34zm0-3.408c-.13.472-2.684 1.716-7.669 1.716s-7.54-1.244-7.668-1.704v-1.34c1.813.914 4.808 1.34 7.668 1.34s5.856-.43 7.669-1.34zm0-3.409c-.13.473-2.684 1.717-7.669 1.717s-7.54-1.244-7.668-1.704v-1.34c1.813.91 4.808 1.34 7.668 1.34s5.856-.43 7.669-1.34zm0-3.408c-.13.473-2.684 1.717-7.669 1.717s-7.54-1.244-7.668-1.704v-1.34c1.813.91 4.808 1.34 7.668 1.34s5.856-.43 7.669-1.34zm-7.669-1.691c-4.977 0-7.53-1.24-7.668-1.689v-.005c.137-.475 2.691-1.714 7.668-1.714 4.942 0 7.498 1.222 7.669 1.704-.17.482-2.727 1.704-7.669 1.704"/><path fill="url(#h)" d="M14.362 34.083h-6.44l-3.055-3.34v-5.538l3.373-3.293h6.122a.73.73 0 0 0 0-1.46H7.943a.73.73 0 0 0-.51.206L3.625 24.37a.92.92 0 0 0-.22.597v6.06c0 .182.068.357.191.492l3.462 3.787a.73.73 0 0 0 .54.237h6.763a.73.73 0 0 0 0-1.46"/><path fill="url(#i)" d="M21.605 27.145h-.852c-.265 0-.426-.148-.426-.213s.161-.213.426-.213h2.13a.852.852 0 0 0 0-1.704h-.852a.852.852 0 0 0-1.704 0v.038a1.984 1.984 0 0 0-1.704 1.875 2.035 2.035 0 0 0 2.13 1.921h.852c.265 0 .426.148.426.213s-.16.213-.426.213h-2.13a.852.852 0 1 0 0 1.704h.852a.852.852 0 0 0 1.704 0v-.038a1.984 1.984 0 0 0 1.704-1.874 2.035 2.035 0 0 0-2.13-1.922"/></g><defs><linearGradient id="b" x1="0" x2="43.47" y1="31.897" y2="30.417" gradientUnits="userSpaceOnUse"><stop stop-color="#679FEF"/><stop offset="1" stop-color="#A87FFF"/></linearGradient><linearGradient id="c" x1="1.703" x2="38.317" y1="12.155" y2="9.627" gradientUnits="userSpaceOnUse"><stop stop-color="#679FEF"/><stop offset="1" stop-color="#A87FFF"/></linearGradient><linearGradient id="d" x1="11.063" x2="34.363" y1="7.619" y2="6.686" gradientUnits="userSpaceOnUse"><stop stop-color="#679FEF"/><stop offset="1" stop-color="#A87FFF"/></linearGradient><linearGradient id="e" x1="27.266" x2="35.314" y1="21.441" y2="20.674" gradientUnits="userSpaceOnUse"><stop stop-color="#679FEF"/><stop offset="1" stop-color="#A87FFF"/></linearGradient><linearGradient id="f" x1="13.682" x2="28.489" y1="30.666" y2="30.415" gradientUnits="userSpaceOnUse"><stop stop-color="#679FEF"/><stop offset="1" stop-color="#A87FFF"/></linearGradient><linearGradient id="g" x1="32.256" x2="50.768" y1="41.37" y2="41.154" gradientUnits="userSpaceOnUse"><stop stop-color="#679FEF"/><stop offset="1" stop-color="#A87FFF"/></linearGradient><linearGradient id="h" x1="3.406" x2="14.946" y1="30.683" y2="30.532" gradientUnits="userSpaceOnUse"><stop stop-color="#679FEF"/><stop offset="1" stop-color="#A87FFF"/></linearGradient><linearGradient id="i" x1="18.623" x2="23.672" y1="29.362" y2="29.305" gradientUnits="userSpaceOnUse"><stop stop-color="#679FEF"/><stop offset="1" stop-color="#A87FFF"/></linearGradient><clipPath id="a"><path fill="#fff" d="M0 0h51v51H0z"/></clipPath></defs></svg>