<svg xmlns="http://www.w3.org/2000/svg" width="118" height="118" fill="none"><path stroke="#000" stroke-linecap="round" stroke-linejoin="round" stroke-miterlimit="10" stroke-width="7" d="m113.655 20.172-77.2 17.8M114.354 81.072l-.5-73.8c0-4.6-4.3-8.1-8.9-7.1l-65.2 14.4c-3.4.8-5.9 3.8-5.8 7.4l2 77.1"/><path stroke="#000" stroke-linecap="round" stroke-linejoin="round" stroke-miterlimit="10" stroke-width="7" d="M22.047 112.962c9.095-2.1 15.219-9.212 13.678-15.885s-10.163-10.38-19.258-8.28S1.25 98.009 2.79 104.682c1.54 6.673 10.163 10.38 19.257 8.28M100.45 94.856c9.094-2.1 15.218-9.212 13.677-15.885s-10.163-10.38-19.257-8.28-15.219 9.212-13.678 15.885 10.163 10.38 19.258 8.28"/></svg>