<svg xmlns="http://www.w3.org/2000/svg" width="72" height="72" fill="none"><path stroke="#EB3148" stroke-linecap="round" stroke-linejoin="round" stroke-miterlimit="10" stroke-width="7" d="M36 68c17.673 0 32-14.327 32-32S53.673 4 36 4 4 18.327 4 36s14.327 32 32 32"/><path fill="#EB3148" d="M31.74 40.632c0-1.118.16-2.076.426-2.875a5.5 5.5 0 0 1 1.545-2.183c1.064-1.012 2.023-1.917 2.875-2.662.905-.746 1.65-1.438 2.29-2.13a11 11 0 0 0 1.49-1.864 3.25 3.25 0 0 0 .532-1.81c0-1.224-.372-2.183-1.17-2.928-.746-.692-1.758-1.065-2.93-1.065-1.756 0-3.087.479-4.046 1.49-.905.959-1.438 2.184-1.544 3.568l-8.679-.586c.426-3.993 1.864-7.028 4.42-9.104 2.502-2.077 5.75-3.142 9.69-3.142 1.704 0 3.354.213 4.898.692 1.545.48 2.876 1.172 4.047 2.13s2.077 2.13 2.769 3.514 1.011 2.982 1.011 4.792c0 1.065-.106 2.077-.32 2.982a7.6 7.6 0 0 1-1.17 2.609c-.533.852-1.278 1.757-2.13 2.609-.905.905-2.023 1.863-3.355 2.928-.852.692-1.437 1.331-1.757 1.97-.32.64-.426 1.278-.426 1.917v1.597H31.74zm-.958 10.809c0-.692.107-1.385.373-2.023a5 5 0 0 1 1.118-1.651 5 5 0 0 1 1.65-1.118c.64-.266 1.332-.373 2.024-.373s1.384.107 2.023.373a5 5 0 0 1 1.65 1.118c.48.48.853 1.012 1.119 1.65.266.64.373 1.332.373 2.024s-.107 1.384-.373 2.023a5 5 0 0 1-1.118 1.65c-.48.48-1.012.853-1.65 1.119-.64.266-1.332.373-2.024.373s-1.385-.107-2.024-.373a5 5 0 0 1-1.65-1.118 5 5 0 0 1-1.118-1.65c-.213-.64-.373-1.332-.373-2.024"/><path fill="#EB3148" d="M30.09 44.413c.213-.213.32-.533.32-.852v-3.089c0-.319 0-.639.053-.905 0-.266-.32-.426-.48-.213L12.04 57.884c-.745.745 0 1.544.745 2.236.373.372.107.958.586.958.48 0 1.012-.213 1.331-.586zM41.165 29.185a12.3 12.3 0 0 1-1.65 2.076q-.96 1.038-2.397 2.236c-.799.746-1.81 1.65-2.875 2.663h-.053a5.3 5.3 0 0 0-1.278 1.757c-.266.745-.373 1.597-.373 2.555v1.385h.213l15.494-15.974c0-1.703-.372-3.141-1.011-4.366h-.054l-5.324 5.591c-.053.745-.32 1.438-.692 2.077M59.268 11.774c-.745-.693-1.917-.64-2.61.053-2.182 2.236-6.495 6.709-7.613 7.827a.41.41 0 0 0-.053.532c.106.16.213.373.32.533q.558 1.038.798 2.236a.47.47 0 0 0 .798.213l8.999-9.265c.692-.692.16-1.437-.64-2.13"/></svg>