<svg xmlns="http://www.w3.org/2000/svg" width="135" height="111" fill="none"><path stroke="#000" stroke-linecap="round" stroke-linejoin="round" stroke-miterlimit="10" stroke-width="7" d="M101.2 21.9 96.1 6.8c-.2-1.5-1.5-2.6-3.1-2.6H42c-1.5 0-2.8 1.1-3.1 2.6l-5.1 15.1c-.2 1.5-1.5 2.6-3.1 2.6H13.6C8 24.5 3.5 29 3.5 34.6v62.2c0 5.6 4.5 10.1 10.1 10.1H121c5.6 0 10.1-4.5 10.1-10.1V34.6c0-5.5-4.5-10-10-10h-16.8c-1.6-.1-2.9-1.2-3.1-2.7"/><path stroke="#000" stroke-linecap="round" stroke-linejoin="round" stroke-miterlimit="10" stroke-width="7" d="M67.3 89.7c13.862 0 25.1-11.238 25.1-25.1S81.161 39.5 67.3 39.5 42.2 50.738 42.2 64.6s11.237 25.1 25.1 25.1"/></svg>