<svg xmlns="http://www.w3.org/2000/svg" width="132" height="101" fill="none"><path stroke="#000" stroke-linecap="round" stroke-linejoin="round" stroke-miterlimit="10" stroke-width="7" d="M30 3.6H13.3C7.9 3.6 3.5 8.7 3.5 15v70.4c0 6.3 4.4 11.4 9.8 11.4h104.8c5.4 0 9.8-5.1 9.8-11.4V15c0-6.3-4.4-11.4-9.8-11.4H30"/><path stroke="#000" stroke-linecap="round" stroke-linejoin="round" stroke-miterlimit="10" stroke-width="7" d="M90.1 57.5 50.7 36.9c-1.3-.7-3 .3-3 1.8V80c0 1.5 1.6 2.5 3 1.8l39.4-20.6c1.5-.8 1.5-2.9 0-3.7M5.7 20.3h122.199"/></svg>