<svg xmlns="http://www.w3.org/2000/svg" width="1190" height="1380" fill="none"><path stroke="url(#a)" stroke-miterlimit="10" stroke-width=".5" d="M-236.035 1C-132.211 108.397-94.348 271.66-67.752 431.501S-21.53 758.03 55.075 890.058c64.592 111.272 168.749 192.162 292.562 227.082 127.518 36 270.536 23.77 408.521 25.58s279.952 20.71 375.712 107.97M-241.19 5.77C-136.221 110.045-95.888 270.788-67.769 429.064-39.649 587.34-19.14 753.022 56.614 884.922c60.4 105.511 154.733 184.928 268.065 224.838 7.223 2.52 14.432 4.92 21.793 7.12 63.859 19.23 132.026 26.19 201.86 27.16 68.715 1.06 138.39-3.36 207.092-3.78 138.845-1.22 282.516 17.93 378.276 106.57M-246.411 10.49C-140.247 111.576-97.545 269.931-67.785 426.627s51.084 321.321 125.938 453.159c59.972 106.34 152.979 187.473 265.55 229.323 7.121 2.65 14.345 5.17 21.722 7.49 63.593 20.39 131.961 28.46 202.173 28.67 68.873.44 138.403-5.56 207.093-7.48 139.631-3.87 285.139 15.22 380.879 105.11M-251.566 15.259C-144.207 113.158-99.085 269.06-67.685 424.176S-14.145 742.86 59.76 874.702c59.543 107.168 151.225 190.018 262.983 233.878 7.137 2.77 14.325 5.47 21.6 7.92 63.326 21.56 131.881 30.61 202.552 30.23 69.032-.18 138.402-7.89 207.093-11.17 140.456-6.71 287.693 12.46 383.483 103.64M-256.721 20.029c108.438 94.726 156.046 248.225 189.02 401.71s56.332 315.885 128.999 447.827c59.399 107.9 149.471 192.564 260.469 238.364 7.035 2.9 14.238 5.72 21.411 8.3 62.994 22.68 131.75 32.83 202.813 31.8 69.191-.78 138.401-10.2 207.095-14.85 141.279-9.56 290.254 9.69 385.974 102.19M-261.876 24.799c109.633 91.539 159.661 242.583 194.224 394.555 34.564 151.971 58.854 313.299 130.57 445.245C122.006 973.313 210.7 1059.76 320.872 1107.45c6.999 3.09 14.151 5.97 21.339 8.67 62.728 23.84 131.656 34.86 203.127 33.31 69.334-1.52 138.384-12.64 207.146-18.61 142.102-12.4 292.806 6.92 388.576 100.72M-267.097 29.518c110.777 88.417 163.225 237.008 199.429 387.399s61.36 310.596 132.125 442.546c58.777 109.527 146.03 197.707 255.44 247.347 6.948 3.14 14.064 6.21 21.216 9.09 62.461 25.01 131.525 37.09 203.506 34.87 69.493-2.14 138.383-14.96 207.147-22.29 142.859-15.3 295.364 4.14 391.184 99.25M-272.252 34.288c111.972 85.229 166.84 231.366 204.619 380.126 37.778 148.761 63.816 307.96 133.68 439.847 58.399 110.29 144.276 200.259 252.874 251.899 6.912 3.33 13.977 6.46 21.078 9.41 62.195 26.17 131.446 39.24 203.819 36.37 69.586-2.8 138.382-17.28 207.082-26.03 143.734-18.21 297.88 1.44 393.74 97.85M-277.407 39.058c113.168 82.041 170.338 225.739 209.823 372.97S-1.246 717.402 67.602 849.242c58.036 111.17 142.522 202.808 250.359 256.388 6.861 3.4 13.89 6.71 20.955 9.84 61.929 27.34 131.381 41.51 204.198 37.93 69.744-3.42 138.431-19.66 207.083-29.72 144.608-21.11 300.503-1.27 396.353 96.39M-282.562 43.828c114.312 78.919 173.954 220.097 215.028 365.815S1.31 712.313 69.206 844.158c57.725 111.983 140.769 205.352 247.845 260.872 6.826 3.58 13.804 6.96 20.884 10.21 61.596 28.45 131.25 43.72 204.511 39.44 69.903-4.03 138.363-22.04 207.134-33.48 145.417-24.07 303.06-4.04 398.84 94.94M-287.718 48.598C-172.21 124.329-110.199 263.12-67.434 407.192c42.765 144.071 71.3 300.033 138.312 431.932 57.296 112.812 139.014 207.896 245.279 265.426a556 556 0 0 0 20.694 10.6c61.381 29.54 131.171 45.87 204.89 40.99 70.062-4.65 138.413-24.42 207.135-37.16 146.225-27.04 305.614-6.82 401.444 93.46M-292.938 53.317c116.652 72.609 181.133 208.88 225.422 351.387S6.24 702.1 72.35 833.937c56.985 113.625 137.312 210.373 242.764 269.923 6.739 3.82 13.63 7.46 20.623 10.95 61.115 30.71 131.04 48.09 205.203 42.5 70.22-5.26 138.397-26.86 207.136-40.85 147.099-29.94 308.173-9.58 404.053 92M-298.093 58.086c117.781 69.371 184.697 203.305 230.626 344.232S8.746 697.077 73.957 828.852c56.622 114.505 135.558 212.918 240.249 274.408 6.687 3.89 13.492 7.77 20.5 11.39 60.848 31.87 130.96 50.24 205.516 44 70.379-5.88 138.446-29.24 207.137-44.53 147.958-32.97 310.731-12.36 406.611 90.59M-303.248 62.857c118.976 66.182 188.312 197.662 235.882 337.009S11.368 692.04 75.562 823.768c56.244 115.267 133.804 215.472 237.683 278.962 6.652 4.08 13.405 8.02 20.312 11.77 60.582 33.04 130.829 52.46 205.894 45.56 70.538-6.49 138.43-31.68 207.189-48.29 148.767-35.93 313.29-15.12 409.21 89.13M-308.403 67.627c120.12 63.06 191.877 192.087 241.02 329.803s81.19 289.536 144.484 421.202C132.983 934.779 209.217 1036.7 312.27 1102.08a385 385 0 0 0 20.239 12.14c60.25 34.15 130.699 54.68 206.208 47.06 70.696-7.1 138.428-33.99 207.189-51.97 149.561-39.01 315.914-17.84 411.824 87.66M-313.559 72.397c121.316 59.873 195.493 186.445 246.226 322.647C-16.6 531.247 16.313 681.944 78.72 813.665 134.174 930.64 209.084 1034.28 311.375 1101.6c6.565 4.33 13.231 8.52 20.117 12.57 59.983 35.32 130.685 56.88 206.586 48.63 70.856-7.73 138.413-36.44 207.191-55.67 150.368-41.96 318.471-20.61 414.311 86.21M-318.779 77.115c122.46 56.752 199.107 180.804 251.43 315.492C-15.028 527.296 18.7 676.936 80.26 808.529 135.35 926.383 208.868 1031.69 310.4 1100.96a386 386 0 0 0 19.979 12.88c59.717 36.48 130.554 59.1 206.899 50.13 71.014-8.34 138.396-38.87 207.191-59.36 151.228-44.98 321.031-23.37 416.921 84.75M-323.934 81.885c123.655 53.563 202.671 175.228 256.62 308.22C-13.368 523.096 21.191 671.797 81.85 803.327c54.662 118.683 126.855 225.703 227.573 296.983 6.478 4.57 13.058 9.02 19.857 13.31 59.45 37.65 130.423 61.32 207.278 51.69 71.172-8.95 138.379-41.31 207.243-63.11 152.021-48.06 323.588-26.14 419.518 83.28M-329.09 86.656C-204.239 137.03-122.869 256.19-67.266 387.719c55.603 131.529 90.963 279.056 150.67 410.589 54.3 119.563 125.102 228.252 225.059 301.472a384 384 0 0 0 19.719 13.63c59.184 38.81 130.293 63.53 207.591 53.19 71.28-9.5 138.414-43.81 207.244-66.79 152.815-51.15 326.143-28.92 422.073 81.87M-334.295 91.491C-208.3 138.745-124.51 255.451-67.267 385.4S26.1 661.884 84.96 793.289c53.922 120.326 123.348 230.801 222.544 305.961 6.391 4.82 12.884 9.52 19.596 14.06 58.852 39.93 130.279 65.74 207.904 54.7 71.439-10.12 138.397-46.25 207.244-70.48 153.608-54.22 328.653-31.62 424.683 80.41M-339.451 96.262C-212.26 140.327-126.05 254.579-67.166 382.948-8.283 511.317 28.657 656.795 86.63 788.256c53.509 121.271 121.594 233.344 219.979 310.514 6.289 4.96 12.796 9.77 19.472 14.5 58.586 41.08 130.149 67.95 208.233 56.32 71.597-10.74 138.381-48.69 207.245-74.18 154.401-57.29 331.271-34.33 427.291 78.95M-344.671 100.98c128.268 40.893 216.964 152.742 277.422 279.48S30.98 651.737 88.103 783.069c53.08 122.1 119.84 235.891 217.464 315.001 6.253 5.14 12.71 10.02 19.335 14.81 58.319 42.26 130.018 70.17 208.546 57.83 71.822-11.3 138.364-51.12 207.296-77.93 155.195-60.37 333.836-37.1 429.786 77.5M-349.827 105.75c129.465 37.705 220.58 147.101 282.628 272.325S33.484 646.714 89.708 777.984c52.652 122.929 118.087 238.436 214.949 319.486 6.203 5.21 12.69 10.32 19.213 15.25 58.052 43.42 129.953 72.44 208.924 59.38 71.981-11.91 138.348-53.55 207.298-81.61 156.039-63.52 336.388-39.88 432.388 76.03m-1527.461-1056c130.659 34.517 224.144 141.525 287.831 265.169S35.873 641.706 91.263 772.965C143.552 896.773 207.662 1014 303.712 1097.06c6.167 5.39 12.603 10.57 19.141 15.61 57.786 44.58 129.822 74.66 209.237 60.89 72.089-12.46 138.332-55.99 207.298-85.3 156.767-66.64 338.952-42.65 434.992 74.56M-360.137 115.29c131.804 31.396 227.76 135.883 293.022 257.897S38.312 636.633 92.853 767.764c51.809 124.703 114.645 243.576 209.935 328.586 6.115 5.45 12.464 10.88 18.951 15.99 57.505 45.63 129.809 76.86 209.617 62.45 72.247-13.08 138.315-58.43 207.299-88.99 157.559-69.72 341.505-45.42 437.545 73.16M-365.291 120.06c132.999 28.208 231.323 130.307 298.225 250.741C-.163 491.234 40.818 631.611 94.474 762.796c51.38 125.531 112.89 246.124 207.419 333.074 6.08 5.64 12.378 11.13 18.88 16.36 57.239 46.79 129.642 79.26 209.929 63.95 72.487-13.53 138.284-60.98 207.351-92.74 158.338-72.92 344.067-48.19 440.157 71.69M-370.513 124.78c134.144 25.085 234.939 124.665 303.43 243.585C1.41 487.284 43.207 626.604 96.013 757.661 146.964 884.02 207.15 1006.33 300.866 1095.29c6.029 5.7 12.291 11.38 18.758 16.79 56.972 47.96 129.628 81.46 210.308 65.51 72.595-14.08 138.267-63.42 207.352-96.43 159.064-76.04 346.686-50.91 442.766 70.22M-375.668 129.55c135.339 21.897 238.503 119.089 308.62 236.312S45.58 621.479 97.602 752.459c50.473 127.254 109.384 251.221 202.34 342.111a419 419 0 0 0 18.568 17.17c56.706 49.13 129.498 83.68 210.621 67.02 72.754-14.69 138.185-65.91 207.353-100.12 159.792-79.165 349.246-53.67 445.256 68.78M-380.822 134.319c136.534 18.71 242.052 113.397 313.824 229.157S47.8 616.552 99.157 747.44c49.825 128.23 107.63 253.76 199.825 346.6 5.941 5.96 12.117 11.88 18.496 17.54 56.44 50.29 129.367 85.9 210.934 68.52 72.912-15.3 138.168-68.34 207.354-103.8 160.57-82.365 351.804-56.44 447.854 67.3M-385.978 139.089c137.679 15.588 245.617 107.822 319.03 222.002C6.463 475.27 50.253 611.596 100.761 742.355c49.447 128.993 105.876 256.311 197.31 351.095a435 435 0 0 0 18.374 17.97c56.107 51.4 129.287 88.05 211.313 70.08 73.07-15.92 138.07-70.95 207.339-107.62 161.069-85.87 354.362-59.2 450.412 65.91M-391.198 143.808c138.807 12.349 249.231 102.18 324.284 214.779C8.14 471.187 52.745 606.456 102.367 737.27c49.085 129.873 104.174 258.791 194.745 355.65 5.803 6.27 11.943 12.37 18.236 18.28 55.84 52.57 129.222 90.32 211.626 71.59 73.229-16.54 138.054-73.39 207.34-111.3 161.877-88.837 356.866-61.91 453.016 64.44M-396.354 148.578c139.952 9.227 252.796 96.604 329.424 207.573S55.25 601.434 103.906 732.135s102.42 261.337 192.23 360.135c57.233 62.91 137.848 113.41 230.118 91.86 73.388-17.15 138.038-75.82 207.341-114.99 162.671-91.909 359.425-64.68 455.625 62.97M-400.217 150.445c137.288 11.178 250.11 96.535 326.906 203.735C3.125 460.891 45.71 591.543 97.314 716.51c12.256 29.585 26.1 59.025 39.363 89.491 18.887 43.659 37.199 87.927 57.447 129.685 22.733 46.731 48.191 90.614 78.961 130.474 3.721 4.87 7.609 9.66 11.549 14.39 36.744 44.68 85.093 83.88 141.692 98.46 26.336 6.83 54.599 8.3 84.165 2.34 29.917-6.01 58.711-18.89 87.017-35.09 41.981-24.1 82.721-55.06 125.134-79.04 35.754-20.26 73.065-34.89 110.575-43.36 43.301-9.7 86.303-11.09 126.975-5.63 44.038 5.73 85.648 19.39 123.238 40.17 37.64 20.71 71.38 48.54 98.72 81.65M-404.029 152.246c134.64 13.244 247.358 96.414 324.323 199.845 76.26 102.57 115.99 229.546 170.412 348.677 13.007 28.477 29.055 56.561 43.101 87.105 19.955 43.639 37.359 89.631 56.024 132.486 20.783 47.755 43.844 92.421 72.562 133.441 3.502 5.02 7.106 9.91 10.775 14.85 34.57 46.27 81.171 87.6 137.171 104.46 26.238 7.91 54.585 10.49 84.506 5.44 30.338-5.05 59.924-17.32 89.029-33.33 43.028-23.82 84.695-55.43 127.881-79.86 36.528-20.72 74.547-35.86 112.784-43.77 44.195-9.22 87.402-8.55 127.817-1.4 43.644 7.75 84.474 23.23 122.054 45.26 37.52 22.1 72 50.6 100.86 82.56M-407.893 154.113c131.926 15.26 244.541 96.242 321.807 196.006C-10.1 448.264 27.058 571.884 84.048 685.092c13.822 27.42 31.958 54.164 46.853 84.836 21.038 43.738 37.519 91.335 54.534 135.236 18.95 48.765 39.498 94.232 66.114 136.476a688 688 0 0 0 10 15.3c32.227 47.95 77.183 91.27 132.584 110.41 26.022 9.01 54.622 12.63 84.898 8.48 30.743-4.2 61.087-15.68 90.974-31.61 43.958-23.52 86.618-55.74 130.68-80.76 37.302-21.18 76.044-36.71 115.043-44.24 45.104-8.62 88.553-6.09 128.726 2.88 43.234 9.64 83.356 27.01 120.796 50.31 37.39 23.36 72.63 52.65 102.95 83.53M-411.756 155.98c129.211 17.276 241.789 96.122 319.29 192.167 75.795 93.887 110.496 214.137 169.922 321.32 14.718 26.531 35.028 51.686 50.589 82.45 22.173 43.77 37.613 92.989 53.045 137.986 17.001 49.79 35.268 96.027 59.715 139.447 2.998 5.26 6.113 10.51 9.227 15.76 30.002 49.6 73.21 95.05 127.996 116.35 25.925 10.09 54.609 14.83 85.29 11.53 31.216-3.32 62.3-14.12 93.037-29.92 45.006-23.24 88.541-56.05 133.545-81.61 38.076-21.63 77.541-37.55 117.251-44.65 46.065-8.09 89.704-3.61 129.635 7.17 42.773 11.61 82.174 30.73 119.544 55.35 37.32 24.68 73.25 54.72 105.09 84.45M-415.62 157.847c126.498 19.292 238.972 95.95 316.708 188.278 75.42 89.593 108.096 206.595 169.71 307.666 15.665 25.576 37.982 49.223 54.392 80.115 23.241 43.751 37.758 94.576 51.621 140.787 15.168 50.801 30.922 97.838 53.266 142.477 2.728 5.48 5.624 10.87 8.57 16.2 27.726 51.32 69.287 98.77 123.409 122.3 25.775 11.24 54.595 17.04 85.631 14.63 31.687-2.42 63.462-12.47 94.982-28.2 45.936-22.95 90.515-56.42 136.293-82.44 38.85-22.09 79.022-38.52 119.459-45.05 46.908-7.54 90.855-1.15 130.493 11.52 42.363 13.5 81.056 34.5 118.236 60.45 37.19 25.95 73.87 56.78 107.23 85.36M-419.484 159.714c123.784 21.308 236.089 95.728 314.191 184.44C-30.13 429.438.587 543.243 64.204 638.167c16.629 24.738 40.937 46.759 58.131 77.729 24.324 43.848 37.918 96.28 50.08 143.603 13.32 51.693 26.575 99.648 46.868 145.441 2.443 5.58 5.119 11.12 7.796 16.66 25.5 52.98 65.247 102.51 118.822 128.24 25.676 12.33 54.632 19.18 86.023 17.68 32.158-1.53 64.675-10.91 96.993-26.44 46.983-22.67 92.438-56.73 139.092-83.34 39.623-22.54 80.519-39.36 121.667-45.45 47.869-7.01 91.939 1.27 131.402 15.8 41.953 15.4 79.932 38.28 117.052 65.54 37.11 27.27 74.49 58.85 109.37 86.28M-423.347 161.581c121.069 23.324 233.22 95.623 311.608 180.55 74.788 80.99 104.016 191.538 169.285 280.36 17.591 23.9 43.84 44.362 61.882 75.46 25.459 43.88 38.063 97.867 48.591 146.353 11.422 52.652 22.295 101.51 40.419 148.479a503 503 0 0 0 7.022 17.117c23.224 54.7 61.34 106.34 114.235 134.19 25.461 13.42 54.619 21.37 86.415 20.72 32.579-.58 65.837-9.28 98.938-24.74 47.965-22.43 94.296-57.08 141.906-84.11 40.397-23 81.95-40.26 123.875-45.86 48.779-6.42 93.09 3.74 132.244 20.04 41.544 17.3 78.747 41.99 115.797 70.58 37.05 28.58 75.11 60.9 111.46 87.26M-427.211 163.448c118.421 25.391 230.271 95.349 309.092 176.711C-43.706 416.856.717 513.307 50.954 606.866c22.66 19.379 46.794 41.898 65.619 73.074 26.476 43.927 38.274 99.505 47.168 149.154 9.588 53.662 17.947 103.32 34.02 151.446 2.005 5.868 4.127 11.72 6.249 17.573 20.881 56.367 57.366 110.127 109.647 140.137 25.312 14.57 54.605 23.58 86.755 23.83 32.985.26 67.051-7.71 100.884-23.03 48.946-22.2 96.219-57.39 144.705-85.01 41.222-23.52 83.498-41.17 126.069-46.38 49.672-5.93 94.24 6.21 133.152 24.33 41.134 19.19 77.627 45.76 114.538 75.61 36.87 29.92 75.74 62.97 113.6 88.18M-431.023 165.249c115.706 27.408 227.335 95.193 306.508 172.822C-50.593 410.489-6.122 502.235 44.331 591.007c24.08 17.947 49.748 39.435 69.423 70.739 27.61 43.96 38.485 101.144 45.677 151.904 7.807 54.607 13.602 105.131 27.572 154.48 1.668 6.03 3.622 11.964 5.525 17.964 18.554 58.156 53.342 113.976 105.06 146.076 25.214 15.66 54.643 25.72 87.148 26.87 33.456 1.16 68.212-6.07 102.895-21.25 49.942-21.86 98.193-57.77 147.504-85.91 41.996-23.98 84.928-42.08 128.276-46.78 50.583-5.348 95.325 8.62 134.062 28.6 40.657 21.04 76.506 49.54 113.307 80.78 36.79 31.23 76.35 65.02 115.74 89.08M-434.887 167.117c112.993 29.423 224.269 94.934 303.992 168.982 73.43 68.14 118 155.114 168.633 239.284 25.436 16.462 52.702 36.971 73.109 68.418 28.628 44.007 38.63 102.731 44.188 154.654 5.909 55.566 9.306 106.876 21.239 157.499 1.45 6.177 3.134 12.324 4.818 18.471 16.278 59.875 49.369 117.765 100.422 152.095 25.064 16.8 54.629 27.92 87.489 29.98 33.877 2.1 69.425-4.51 104.891-19.62 50.924-21.62 100.116-58.07 150.318-86.68 42.77-24.44 86.425-42.93 130.485-47.19 51.542-4.814 96.526 11.03 134.919 32.95 40.247 22.94 75.32 53.27 112.044 85.82 36.67 32.5 76.99 67.08 117.88 90M-438.75 168.983c110.278 31.439 221.151 94.743 301.475 165.144 72.887 63.927 117.557 146.13 168.421 225.63 26.858 15.03 55.656 34.509 76.912 66.084 29.762 44.039 38.841 104.369 42.765 157.455 4.126 56.509 5.025 108.737 14.789 160.533a532 532 0 0 0 4.044 18.928c13.885 61.613 45.345 121.613 95.835 158.033 24.915 17.96 54.615 30.13 87.881 33.03 34.348 3 70.639-2.94 106.903-17.86 51.904-21.39 102.039-58.38 153.117-87.58 43.543-24.89 87.972-43.84 132.692-47.59 52.452-4.216 97.611 13.45 135.762 37.19 39.889 24.77 74.201 57.03 110.794 90.85 36.59 33.82 77.6 69.15 119.9 90.93M-442.614 170.851c107.564 33.455 227.5 84.465 298.892 161.254 63.796 68.61 117.165 137.08 168.21 211.977 28.227 13.663 58.558 32.111 80.649 63.697 30.778 44.086 39.103 105.942 41.275 160.205 2.345 57.454.678 110.548 8.391 163.501.946 6.421 2.141 12.928 3.27 19.385 11.608 63.33 42.661 123.86 91.248 163.98 24.154 19.9 54.718 32.31 88.272 36.07 34.82 3.89 71.801-1.31 108.848-16.14 52.835-21.1 103.962-58.69 155.865-88.42 44.317-25.35 89.403-44.73 134.901-47.992 53.347-3.738 98.813 15.852 136.67 41.472 39.479 26.67 73.081 60.81 109.54 95.89 36.523 35.14 78.223 71.21 122.043 91.84M-446.544 172.667c104.901 35.405 224.629 83.408 296.427 157.349C-87.089 394.978-33.396 458.113 17.88 528.34c29.65 12.231 61.513 29.648 84.402 61.428 31.795 44.133 39.314 107.58 39.851 163.007.563 58.397-3.668 112.357 1.942 166.534.676 6.634 1.586 13.237 2.496 19.841 9.215 65.07 37.413 129.3 86.661 169.93 24.616 20.25 54.704 34.51 88.613 39.17 35.241 4.85 73.014.27 110.86-14.37 53.882-20.82 105.936-59.07 158.663-89.32 45.091-25.81 90.9-45.58 137.109-48.396 54.256-3.141 99.898 18.266 137.58 45.756 39.002 28.51 71.894 64.53 108.351 100.99 36.392 36.4 78.852 73.26 124.182 92.75M-450.407 174.533c102.187 37.421 221.639 82.367 293.844 153.461 62.327 61.365 116.329 119.046 167.784 184.67 31.071 10.798 64.467 27.184 88.14 59.042 32.929 44.165 39.524 109.218 38.31 165.823-1.218 59.341-8.015 114.168-4.456 169.501.391 6.731 1.082 13.482 1.84 20.284 6.938 66.793 33.388 133.146 82.073 175.876 24.466 21.4 54.691 36.71 89.005 42.21 35.712 5.74 74.176 1.9 112.805-12.66 54.864-20.59 107.793-59.43 161.529-90.16 45.865-26.26 92.381-46.548 139.367-48.869 55.217-2.61 100.437 21.529 138.489 50.039 39.306 29.49 70.774 68.31 107.046 106.09 36.321 37.72 79.421 75.4 126.321 93.67M-454.271 176.401c99.539 39.488 218.416 81.356 291.327 149.621C-101.267 383.724-47.058 436.085 4.629 497.04c32.492 9.365 67.37 24.787 91.942 56.707 33.947 44.212 39.787 110.79 36.821 168.572-3.051 60.351-12.295 116.03-10.905 172.536.172 6.877.593 13.842 1.065 20.74 4.545 68.53 29.364 136.995 77.486 181.815 24.267 22.63 54.729 38.86 89.397 45.26 36.133 6.7 75.324 3.42 114.817-10.9 55.845-20.36 109.716-59.73 164.277-90.99 46.638-26.72 93.878-47.394 141.575-49.272 56.061-2.065 102.184 23.082 139.397 54.322 38.234 32.24 69.655 72.08 105.792 111.13s80.047 77.46 128.417 94.65M-458.083 178.201c96.824 41.504 204.978 93.858 288.744 145.732 69.29 42.919 115.493 101.013 167.295 157.313 33.862 7.999 70.324 22.324 95.679 54.322 35.03 44.309 39.998 112.428 35.398 171.373-4.833 61.295-16.592 117.774-17.304 175.503-.098 7.091.089 14.086.292 21.197 2.151 70.267 25.405 140.899 72.898 187.769 24.118 23.77 54.715 41.05 89.738 48.36 36.605 7.59 76.537 4.99 116.813-9.25 56.826-20.13 111.691-60.11 167.076-91.89 47.412-27.18 95.375-48.243 143.784-49.677 56.97-1.469 103.385 25.487 140.188 58.627 37.875 34.07 68.469 75.8 104.604 116.22 36.07 40.37 80.668 79.51 130.548 95.56M-461.946 180.068c94.109 43.52 201.575 93.762 286.227 141.894 68.411 38.868 115.05 92.028 167.082 143.659 35.284 6.566 73.278 19.861 99.432 52.053 36.047 44.356 40.26 114 33.908 174.123-6.615 62.239-20.938 119.584-23.753 178.537-.383 7.187-.4 14.446-.482 21.654-.242 72.003 21.33 144.822 68.311 193.712 23.968 24.92 54.767 43.31 90.13 51.41 37.025 8.54 77.699 6.62 118.824-7.5 57.757-19.83 113.614-60.41 169.89-92.66 48.186-27.64 96.857-49.21 145.992-50.083 57.93-.939 104.521 27.843 141.097 62.913 37.45 35.84 67.349 79.57 103.35 121.25 36.001 41.69 81.288 81.58 132.688 96.48M-465.81 181.936c91.396 45.536 198.005 93.746 283.645 138.003 67.481 34.885 114.657 82.979 166.87 130.007 36.639 5.082 76.232 17.397 103.168 49.666 37.182 44.389 40.538 115.69 32.419 176.873-8.331 63.234-25.285 121.395-30.151 181.505-.602 7.334-.904 14.689-1.205 22.045-2.636 73.739 17.306 148.665 63.724 199.655 23.767 26.14 54.753 45.51 90.522 54.45 37.496 9.44 78.911 8.19 120.769-5.78 58.738-19.6 115.537-60.72 172.689-93.56 49.011-28.16 98.353-50.057 148.134-50.539 58.774-.393 105.723 30.239 142.006 67.199 37.04 37.74 66.229 83.34 102.096 126.29 35.866 42.96 81.914 83.64 134.834 97.39M-469.674 183.803c88.682 47.552 194.501 93.783 281.129 134.165 66.383 30.981 114.213 73.995 166.657 116.353 38.06 3.65 79.135 15 106.972 47.331 38.199 44.436 40.748 117.328 30.995 179.675-10.061 64.111-29.565 123.256-36.6 184.538a461 461 0 0 0-1.913 22.552c-5.029 75.477 13.23 152.583 59.137 205.603 23.618 27.28 54.74 47.71 90.862 57.56 37.918 10.39 80.126 9.76 122.715-4.07 59.786-19.32 117.46-61.03 175.437-94.39 49.785-28.62 99.784-50.958 150.393-51.011 59.734.137 106.925 32.641 142.915 71.481 36.681 39.57 65.043 87.06 100.79 131.4 35.799 44.27 82.535 85.7 136.925 98.36M-473.537 185.67c85.967 49.568 190.894 93.951 278.611 130.326 65.352 27.13 113.821 64.945 166.445 102.7 39.431 2.284 82.09 12.537 110.659 45.012 39.282 44.533 41.076 118.95 29.505 182.424-11.843 65.055-33.912 125.067-42.999 187.506-1.156 7.644-1.947 15.36-2.686 23.009-7.423 77.213 9.206 156.433 54.549 211.543 23.418 28.51 54.726 49.92 91.255 60.61 38.389 11.28 81.221 11.34 124.726-2.31 60.767-19.09 119.434-61.4 178.302-95.24 50.559-29.07 101.331-51.867 152.601-51.41 60.644.733 108.06 35 143.824 75.76 36.321 41.41 63.923 90.84 99.602 136.5 35.73 45.58 83.154 87.76 139.063 99.27M-477.401 187.537c83.253 51.584 187.237 94.185 276.029 126.436 64.336 23.395 113.378 55.962 166.233 89.047 40.852.851 84.992 10.139 114.462 42.676 40.299 44.581 41.287 120.589 27.964 185.241-13.558 66.05-38.207 126.811-49.448 190.54-1.375 7.791-2.45 15.603-3.46 23.466-9.765 78.883 5.13 160.357 49.962 217.497 23.203 29.6 54.83 52.1 91.647 63.64 38.81 12.24 82.434 12.91 126.672-.6 61.748-18.86 121.357-61.71 181.1-96.13 51.333-29.53 102.762-52.767 154.81-51.816 61.538 1.212 109.261 37.396 144.615 80.066 35.963 43.23 62.803 94.61 98.348 141.53s83.777 89.82 141.197 100.19M-481.264 189.404c80.604 53.651 183.543 94.603 273.512 122.598 63.202 19.675 112.985 46.912 166.02 75.394 42.274-.582 87.947 7.675 118.2 40.29 41.382 44.679 41.614 122.212 26.54 188.041-15.274 67.045-42.554 128.622-55.846 193.508a475 475 0 0 0-4.183 23.856c-12.158 80.621 1.106 164.204 45.375 223.439 23.002 30.82 54.816 54.31 91.987 66.75 39.282 13.13 83.648 14.48 128.734 1.1 62.73-18.63 123.215-62.07 183.849-96.96 52.107-29.988 104.259-53.616 157.018-52.221 62.447 1.808 110.397 39.751 145.523 84.341 35.604 45.07 61.618 98.34 97.094 146.58 35.477 48.23 84.399 91.88 143.271 101.05M-485.077 191.205c77.891 55.667 179.865 95.137 270.93 118.708 62.084 16.072 112.541 37.928 165.742 61.69 43.695-2.015 90.9 5.212 122.002 37.955 42.451 44.66 41.826 123.85 25.052 190.791-17.056 67.989-46.835 130.483-62.296 196.541-1.88 8.035-3.444 16.207-4.891 24.365-14.617 82.306-2.969 168.12 40.788 229.385 22.853 31.96 54.802 56.51 92.379 69.8 39.702 14.08 84.795 15.99 130.68 2.81 63.644-18.45 125.188-62.45 186.713-97.81 52.881-30.447 105.807-54.532 159.226-52.628 63.408 2.339 111.599 42.158 146.433 88.628 35.245 46.9 60.497 102.11 95.839 151.61 35.343 49.51 85.022 93.95 145.36 102.04M-488.941 193.072c75.177 57.683 176.151 95.856 268.413 114.87 60.981 12.586 112.149 28.878 165.53 48.036 45.066-3.381 93.753 2.881 125.689 35.635 43.366 44.839 42.154 125.474 23.627 193.593-18.771 68.984-51.18 132.293-68.693 199.508-2.15 8.249-4 16.517-5.666 24.822-17.01 84.043-7.11 171.986 36.201 235.334 22.653 33.18 54.789 58.71 92.721 72.9 40.173 14.98 86.007 17.56 132.69 4.57 64.626-18.22 127.112-62.75 189.462-98.64 53.654-30.897 107.237-55.424 161.434-53.025 64.251 2.884 112.8 44.555 147.341 92.915 34.82 48.68 59.326 105.95 94.601 156.77s85.644 96 147.501 102.94M-492.803 194.938c72.512 59.633 172.451 96.69 265.829 110.981 59.944 9.151 111.706 19.894 165.37 34.317 46.42-4.865 96.706.418 129.49 33.3 44.501 44.871 42.432 127.162 22.14 196.342-20.488 69.979-55.529 134.104-75.144 202.543-2.434 8.344-4.503 16.76-6.439 25.278-19.404 85.779-11.185 175.902 31.614 241.281 22.437 34.27 54.775 60.91 93.112 75.94 40.594 15.93 87.17 19.2 134.636 6.29 65.607-17.99 129.035-63.06 192.26-99.54 54.429-31.358 108.735-56.275 163.694-53.499 65.211 3.414 114.002 46.959 148.183 97.149 34.527 50.56 58.141 109.67 93.347 161.81 35.206 52.13 86.266 98.06 149.641 103.85M-496.667 196.806c69.798 61.649 168.782 97.759 263.313 107.142 58.921 5.833 110.378 19.292 165.156 20.663 48.273 1.201 99.66-2.045 133.23 30.914 45.517 44.918 42.758 128.786 20.648 199.093-22.27 70.923-59.809 135.965-81.542 205.51-2.653 8.492-4.991 17.121-7.161 25.669-21.864 87.465-15.261 179.819 27.026 247.223 22.237 35.49 54.776 63.23 93.504 78.99 41.015 16.89 88.317 20.71 136.648 8.05 66.588-17.76 130.958-63.37 195.059-100.44 55.202-31.813 110.216-57.238 165.901-53.901 66.122 4.01 115.204 49.361 149.093 101.431 34.117 52.46 57.02 113.44 92.092 166.85 35.072 53.4 86.889 100.12 151.78 104.77M-500.531 198.673c67.084 63.665 165.312 98.98 260.796 103.303 57.914 2.632 110.61 8.615 164.945 7.011 49.828-1.499 102.563-4.443 136.98 28.644 46.602 45.017 42.971 130.424 19.226 201.894-23.985 71.917-64.104 137.71-87.99 208.544-2.873 8.639-5.496 17.364-7.936 26.126-24.257 89.201-19.285 183.67 22.44 253.165 22.036 36.71 54.812 65.37 93.844 82.1 41.436 17.85 89.53 22.28 138.593 9.76 67.57-17.53 132.932-63.74 197.873-101.22 55.976-32.266 111.713-58.082 168.043-54.353 67.016 4.49 116.34 51.713 149.951 105.783 33.758 54.29 55.9 117.21 90.904 171.94 35.004 54.72 87.511 102.18 153.872 105.75M-504.395 200.54c64.437 65.732 161.806 100.385 258.214 99.414 57.024-.584 110.657-2.098 164.733-6.643 51.302-4.366 105.517-6.906 140.718 26.259 47.618 45.063 43.298 132.047 17.735 204.644-25.7 72.912-68.45 139.52-94.389 211.511-3.208 8.801-6.05 17.674-8.643 26.633-26.665 90.822-23.427 187.536 17.801 259.182 21.821 37.81 54.8 67.57 94.237 85.14 41.907 18.74 90.692 23.91 140.589 11.4 68.566-17.18 134.855-64.05 200.672-102.11 56.75-32.726 113.21-58.933 170.252-54.76 67.925 5.086 117.541 54.11 150.859 110.07 33.399 56.12 54.714 120.93 89.65 176.97 34.935 56.04 88.133 104.25 156.012 106.67M-508.324 202.356c61.722 67.748 158.43 101.892 255.697 95.575 56.215-3.632 110.404-12.831 164.52-20.296 52.594-7.268 108.471-9.369 144.521 23.924 48.752 45.095 43.759 133.772 16.195 207.46C45.325 583.028-.188 650.35-28.229 723.564c-3.427 8.948-6.605 17.983-9.417 27.09-29.242 92.522-27.502 191.453 13.214 265.126 21.62 39.02 54.786 69.77 94.628 88.18 42.328 19.7 91.906 25.49 142.601 13.17 69.547-16.95 136.712-64.41 203.42-102.94 57.509-33.304 114.691-59.902 172.46-55.169 68.886 5.617 118.859 56.499 151.768 114.349 33.091 57.89 53.594 124.71 88.344 182.08 34.75 57.38 88.705 106.38 158.152 107.58M-512.136 204.157c59.007 69.764 155.253 103.551 253.114 91.685 55.457-6.746 109.918-23.534 164.308-33.949C-40.91 251.554 16.71 250.06 53.544 283.43c49.769 45.143 43.97 135.411 14.772 210.262C39.25 568.644-8.762 636.884-38.921 711.204a545 545 0 0 0-10.191 27.548c-31.584 94.192-31.694 195.384 8.627 271.068 21.354 40.19 54.772 71.98 94.97 91.29 42.799 20.59 93.118 27.06 144.545 14.88 70.529-16.72 138.635-64.71 206.285-103.79 58.283-33.754 116.188-60.742 174.719-55.632 69.729 6.162 119.995 58.852 152.61 118.582 32.733 59.72 52.475 128.49 87.091 187.12 34.682 58.69 89.327 108.44 160.292 108.5M-516 206.024c56.293 71.78 152.158 105.378 250.597 87.847 54.883-9.824 109.198-34.208 164.03-47.654s114.329-14.23 151.945 19.218c50.852 45.24 44.18 137.048 13.282 213.011-30.899 75.963-81.425 145.003-113.686 220.546-44.141 103.369-50.583 219.594-6.809 305.008 43.775 85.41 140.546 134.36 241.919 110.97 133.21-30.64 258.063-172.808 385.96-160.656 70.69 6.692 121.146 61.326 153.519 122.866 32.322 61.61 51.289 132.21 85.903 192.21 34.613 60.01 89.949 110.5 162.38 109.47"/><defs><linearGradient id="a" x1="-125.399" x2="1187.49" y1="231.077" y2="1235.34" gradientUnits="userSpaceOnUse"><stop stop-color="#2973FF"/><stop offset=".49" stop-color="#8846D3" stop-opacity=".12"/><stop offset="1" stop-color="#FF22AC" stop-opacity=".11"/></linearGradient></defs></svg>