<svg xmlns="http://www.w3.org/2000/svg" viewBox="0 0 124.35 137.47"><g data-name="Слой 2"><g data-name="Слой 1"><path d="M118.11 29.73 68.57 1.49a14.11 14.11 0 0 0-12.63 0L6.31 29.73A13.64 13.64 0 0 0 0 40.41v56.66a13.65 13.65 0 0 0 6.3 10.67L55.92 136a14.11 14.11 0 0 0 12.6 0l49.59-28.25a13.56 13.56 0 0 0 6.24-10.67V40.41a13.53 13.53 0 0 0-6.24-10.68M105 88.11a9.3 9.3 0 0 1-4.29 7.29l-34.17 19.29a9.72 9.72 0 0 1-8.67 0L23.71 95.4a9.35 9.35 0 0 1-4.34-7.29V49.36a9.39 9.39 0 0 1 4.35-7.3l34.16-19.28a9.83 9.83 0 0 1 8.69 0l34.11 19.28a9.33 9.33 0 0 1 4.29 7.3Z" style="fill:#2b3040"/><path d="M114.27 92.23a11.24 11.24 0 0 1-5.22 8.86L67.5 124.51a12 12 0 0 1-10.56 0l-41.58-23.42a11.31 11.31 0 0 1-5.28-8.86v-47a11.33 11.33 0 0 1 5.29-8.85L57 13a11.93 11.93 0 0 1 10.58 0l41.52 23.41a11.25 11.25 0 0 1 5.22 8.85Z" style="fill:none;stroke-width:8px;stroke:url(#Безымянный_градиент)"/></g></g></svg>