<svg xmlns="http://www.w3.org/2000/svg" width="141" height="129" fill="none"><g stroke="#F9F9F9" stroke-linecap="round" stroke-linejoin="round" stroke-width="7" clip-path="url(#a)"><path d="M99.1 112.2v-29c0-5.1-4.5-9.2-10-9.2H51.7c-5.6 0-10.1 4.1-10.1 9.3v29M54.1 112.2V91.9M70.7 64.8c8.837 0 16-6.76 16-15.1s-7.163-15.1-16-15.1-16 6.76-16 15.1 7.164 15.1 16 15.1M87.5 112.2V91.9M136.6 68.9V50.3c0-3.2-2.6-5.9-5.9-5.9h-21.8c-3.2 0-5.9 2.7-5.9 5.9v18.6M119.8 36.2c5.136 0 9.3-4.342 9.3-9.7 0-5.356-4.164-9.7-9.3-9.7s-9.3 4.344-9.3 9.7c0 5.358 4.164 9.7 9.3 9.7M37.6 68.9V50.3c0-3.2-2.6-5.9-5.9-5.9H9.9c-3.2 0-5.9 2.7-5.9 5.9v18.6M20.8 36.2c5.136 0 9.3-4.342 9.3-9.7 0-5.356-4.164-9.7-9.3-9.7s-9.3 4.344-9.3 9.7c0 5.358 4.164 9.7 9.3 9.7"/></g><defs><clipPath id="a"><path fill="#fff" d="M0 0h140.6v129H0z"/></clipPath></defs></svg>