<svg xmlns="http://www.w3.org/2000/svg" width="44" height="44" fill="none"><g clip-path="url(#a)"><path fill="#FCB44D" d="M23.33 19.98H7.48v17.089c0 .36.212.686.542.831l13.61 6.022a.9.9 0 0 0 .737 0l.963-.426z"/><path fill="#FCA62F" d="M36.521 19.98v10.764l-8.537 3.777a2.727 2.727 0 0 1-3.369-.972L22 29.664l-2.614 3.885a2.723 2.723 0 0 1-3.37.972l-8.537-3.777V19.98h4.498L22 24.414l10.023-4.434z"/><path fill="#FB8627" d="M36.521 19.98v17.089a.91.91 0 0 1-.542.831l-13.611 6.022a.9.9 0 0 1-.368.079V19.98z"/><path fill="#FB7722" d="M32.023 19.98 22 24.414v5.25l2.614 3.885a2.73 2.73 0 0 0 3.37.972l4.702-2.08a1.05 1.05 0 0 1 1.475.96v5.304l1.818-.804a.91.91 0 0 0 .542-.832v-17.09z"/><path fill="#5B5555" d="M22 13.556 7.48 19.98 22 26.404l14.521-6.424z"/><path fill="#433F43" d="m36.521 19.98-14.52 6.424-2.288-1.012 11.314-5.005a.445.445 0 0 0 0-.814l-11.314-5.006L22 13.556z"/><path fill="#F3EAE6" d="m26.575 18.072-1.02 6.849-3.554 1.572-3.555-1.572-1.02-6.849z"/><path fill="#E0D3CE" d="m26.574 18.071-.392 2.637-.628 4.214-2.54 1.123.687-4.614q-.831.135-1.7.136c-1.484 0-2.898-.306-4.181-.86l-.394-2.636z"/><path fill="#FCC16D" d="M22 19.514a8.635 8.635 0 1 0 0-17.27 8.635 8.635 0 0 0 0 17.27"/><path fill="#FCB44D" d="M30.635 10.879a8.635 8.635 0 0 1-10.009 8.525c4.115-.66 7.259-4.226 7.259-8.525s-3.144-7.867-7.259-8.527q.672-.109 1.374-.109a8.635 8.635 0 0 1 8.635 8.636"/><path fill="#FB8627" d="M26.064 9.675a.67.67 0 0 0-.667.667v.454a.384.384 0 0 1-.384.384h-6.025a.384.384 0 0 1-.384-.384v-.454a.667.667 0 0 0-1.334 0v.454c0 .948.77 1.718 1.718 1.718h.41v6.6q.647.205 1.335.306V15.38h2.535v4.039a8.5 8.5 0 0 0 1.335-.306v-6.6h.41a1.72 1.72 0 0 0 1.718-1.718v-.454a.667.667 0 0 0-.667-.667m-2.796 4.371h-2.535v-1.532h2.535z"/><path fill="#FB7722" d="m20.626 19.404.106.016v-.035zm2.642-.882v.898q.686-.101 1.335-.307v-1.46q-.625.495-1.335.869"/><path fill="#CDBFBB" d="M25.878 21.978h-7.756a.667.667 0 1 0 0 1.334h7.756a.667.667 0 0 0 0-1.335"/><path fill="#B9ACAC" d="M26.546 22.645c0 .369-.3.667-.668.667h-1.633a.667.667 0 0 0 0-1.335h1.633c.369 0 .668.3.668.668"/><path fill="#FEE7C9" d="M14.516 2.008a.667.667 0 0 0-.94.947l.738.734a.665.665 0 0 0 .944-.003.667.667 0 0 0-.003-.943zM17.33.505a.667.667 0 1 0-1.295.325l.256 1.021a.668.668 0 0 0 1.295-.324zM13.428 4.73l-1.023-.25a.667.667 0 1 0-.317 1.296l1.023.25a.668.668 0 1 0 .317-1.296M30.428 2.011a.667.667 0 0 0-.944-.003l-.738.735a.667.667 0 1 0 .94.946l.74-.734a.667.667 0 0 0 .002-.944M27.48.02a.667.667 0 0 0-.81.485l-.255 1.022a.667.667 0 0 0 1.294.324L27.965.83a.667.667 0 0 0-.484-.81M32.402 4.969a.667.667 0 0 0-.806-.49l-1.024.25a.667.667 0 0 0 .318 1.297l1.023-.25a.667.667 0 0 0 .49-.807"/><path fill="#FCA863" d="m36.521 19.98 3.944 5.86a.91.91 0 0 1-.387 1.34l-12.83 5.676a.91.91 0 0 1-1.124-.324L22 26.404z"/><path fill="#FC9744" d="m40.078 27.18-2.247.994a.93.93 0 0 0 .195-1.25l-3.948-5.863 2.444-1.081 3.943 5.86a.91.91 0 0 1-.387 1.34"/><path fill="#FCC16D" d="m7.479 19.98-3.944 5.86a.91.91 0 0 0 .387 1.34l12.83 5.676a.91.91 0 0 0 1.124-.324L22 26.404z"/></g><defs><clipPath id="a"><path fill="#fff" d="M0 0h44v44H0z"/></clipPath></defs></svg>