<svg xmlns="http://www.w3.org/2000/svg" width="10" height="11" fill="none"><path fill="#fff" d="M4.167 9.75a.51.51 0 0 0-.177-.384.49.49 0 0 0-.4-.107c-.641.12-1.45.138-1.664-.48a2.85 2.85 0 0 0-.898-1.206 1 1 0 0 1-.082-.055.5.5 0 0 0-.178-.234.5.5 0 0 0-.277-.089H.49a.48.48 0 0 0-.345.146.5.5 0 0 0-.144.352c-.002.407.397.669.558.757.19.196.344.426.452.68.178.511.696 1.287 2.183 1.187l.002.05.002.133c0 .133.051.26.143.354a.484.484 0 0 0 .691 0 .5.5 0 0 0 .144-.354l-.003-.159a21 21 0 0 1-.005-.59m5.215-7.56q.024-.094.044-.21c.08-.558.01-1.126-.2-1.647a.5.5 0 0 0-.3-.29c-.174-.06-.817-.178-2.046.625a6.64 6.64 0 0 0-3.107 0C2.55-.123 1.91-.016 1.737.041a.49.49 0 0 0-.308.292A3.2 3.2 0 0 0 1.23 2.01q.018.096.039.177a3.18 3.18 0 0 0-.614 1.914q-.002.232.02.46c.164 2.301 1.63 2.992 2.653 3.23q-.031.093-.058.2a.5.5 0 0 0 .057.377.48.48 0 0 0 .67.169.5.5 0 0 0 .223-.307.85.85 0 0 1 .228-.44.5.5 0 0 0 .145-.524.5.5 0 0 0-.155-.236.5.5 0 0 0-.256-.111C2.493 6.722 1.76 6.019 1.65 4.47a3 3 0 0 1-.016-.37 2.16 2.16 0 0 1 .545-1.47.5.5 0 0 0 .092-.513 2 2 0 0 1-.076-.278 2.1 2.1 0 0 1 .038-.807c.425.123.825.322 1.181.59a.49.49 0 0 0 .405.066 5.64 5.64 0 0 1 3.018 0 .48.48 0 0 0 .406-.068 3.7 3.7 0 0 1 1.176-.595c.065.257.08.525.043.788a1.6 1.6 0 0 1-.083.304.51.51 0 0 0 .092.512q.058.067.11.134c.296.38.452.853.44 1.338q.002.195-.018.388c-.107 1.528-.843 2.232-2.54 2.43a.5.5 0 0 0-.256.11.5.5 0 0 0-.16.522.5.5 0 0 0 .15.24.82.82 0 0 1 .227.454q.05.202.045.41v1.167c-.005.323-.005.566-.005.677 0 .133.052.26.144.354a.484.484 0 0 0 .691 0 .5.5 0 0 0 .143-.354c0-.108 0-.346.005-.67V8.656A2.5 2.5 0 0 0 7.372 8a2 2 0 0 0-.057-.208 3.17 3.17 0 0 0 1.907-1.106 3.3 3.3 0 0 0 .755-2.105q.024-.238.023-.48a3.1 3.1 0 0 0-.618-1.912"/></svg>