<svg width="27" height="35" viewBox="0 0 27 35" fill="none" xmlns="http://www.w3.org/2000/svg">
<path d="M9.29798 18.8928H9.33216V5.2271L15.3891 7.24609V2.68878L8.55314 0.410156V16.7275C7.73412 15.8188 6.34745 15.2212 4.77478 15.2212C2.25792 15.2212 0.217529 16.7515 0.217529 18.6392C0.217529 20.527 2.25792 22.0572 4.77478 22.0572C7.17597 22.0573 9.12209 20.6599 9.29798 18.8928Z" fill="white"/>
<path d="M13.1101 12.9426V29.26C12.2913 28.3514 10.9046 27.7538 9.33197 27.7538C6.81512 27.7538 4.77466 29.2841 4.77466 31.1718C4.77466 33.0595 6.81512 34.5898 9.33197 34.5898C11.8488 34.5898 13.8894 33.0595 13.8894 31.1718V17.3052L26.0033 14.2769V25.8422C25.1842 24.9334 23.7976 24.3359 22.2249 24.3359C19.7079 24.3359 17.6676 25.8662 17.6676 27.7538C17.6676 29.6415 19.7079 31.1718 22.2249 31.1718C24.6481 31.1718 26.6104 29.7492 26.7545 27.9589H26.7819V9.52466L13.1101 12.9426Z" fill="white"/>
</svg>
