<svg xmlns="http://www.w3.org/2000/svg" width="176" height="163" fill="none"><path fill="url(#a)" d="M22.272.623h130.722c12.272 0 22.22 9.859 22.22 22.021v117.414c0 12.161-9.948 22.02-22.22 22.02H22.272C10 162.078.05 152.219.05 140.058V22.644C.05 10.482 10 .623 22.27.623"/><path fill="url(#b)" d="m109.234 73.802-14.075 6.773h-32.46c-5.5 0-9.853 3.984-9.853 8.737v37.958a3.38 3.38 0 0 1-6.76 0V89.312c0-8.627 7.506-15.497 16.613-15.497z"/><path fill="url(#c)" d="M87.541 23.081c13.399 0 24.336 10.337 24.336 23.187 0 12.849-10.937 23.187-24.336 23.187S63.205 59.117 63.205 46.268s10.937-23.187 24.336-23.187m0 6.76c-9.748 0-17.576 7.399-17.576 16.427s7.828 16.427 17.576 16.427 17.576-7.399 17.576-16.427-7.828-16.427-17.576-16.427"/><path fill="url(#d)" d="m109.18 73.802.503 2.147 3.163 13.519 13.951-3.265 2.147-.503.502 2.147 3.888 16.612.502 2.147-2.146.503-13.951 3.264 3.163 13.519.503 2.147-2.147.503-17.07 3.994-2.147.503-.502-2.147-3.164-13.519-13.951 3.265-2.147.502-.502-2.147-3.888-16.612-.502-2.147 2.147-.502 13.95-3.265-3.163-13.519-.502-2.147 2.146-.502 17.07-3.995zm-3.289 5.298-12.776 2.99 3.164 13.519.502 2.147-2.147.503-13.951 3.264 2.883 12.319 13.95-3.265 2.148-.503.502 2.147 3.164 13.519 12.776-2.99-3.163-13.519-.503-2.146 2.147-.503 13.951-3.265-2.883-12.318-13.951 3.265-2.146.502-.503-2.147z"/><defs><linearGradient id="a" x1="87" x2="86.577" y1="4.806" y2="156.641" gradientUnits="userSpaceOnUse"><stop stop-color="#31394B"/><stop offset="1" stop-color="#262C3B"/></linearGradient><linearGradient id="b" x1="46.087" x2="131.042" y1="102.226" y2="102.748" gradientUnits="userSpaceOnUse"><stop stop-color="#6557E3"/><stop offset="1" stop-color="#C734C0"/></linearGradient><linearGradient id="c" x1="67.03" x2="123.064" y1="49.081" y2="48.733" gradientUnits="userSpaceOnUse"><stop stop-color="#6557E3"/><stop offset="1" stop-color="#C734C0"/></linearGradient><linearGradient id="d" x1="47.089" x2="130.197" y1="98.725" y2="98.622" gradientUnits="userSpaceOnUse"><stop stop-color="#6657E3"/><stop offset="1" stop-color="#C434C0"/></linearGradient></defs></svg>