<svg xmlns="http://www.w3.org/2000/svg" width="176" height="162" fill="none"><path fill="url(#a)" d="M22.221 0h130.722c12.272 0 22.22 9.859 22.22 22.021v117.414c0 12.161-9.948 22.02-22.22 22.02H22.221C9.949 161.455 0 151.596 0 139.435V22.021C0 9.859 9.949 0 22.221 0"/><path fill="#AEAFBF" d="m109.183 73.179-14.075 6.773h-32.46c-5.5 0-9.853 3.984-9.853 8.737v37.958a3.38 3.38 0 0 1-6.76 0V88.689c0-8.627 7.506-15.497 16.613-15.497zM87.49 22.458c13.399 0 24.336 10.337 24.336 23.187 0 12.849-10.937 23.187-24.336 23.187S63.154 58.494 63.154 45.645 74.091 22.458 87.49 22.458m0 6.76c-9.748 0-17.576 7.399-17.576 16.427s7.828 16.427 17.576 16.427 17.576-7.399 17.576-16.427-7.828-16.427-17.576-16.427"/><path fill="#AEAFBF" d="m109.129 73.179.503 2.147 3.163 13.519 13.951-3.265 2.147-.503.502 2.147 3.888 16.612.502 2.147-2.146.503-13.951 3.264 3.163 13.519.503 2.147-2.147.503-17.07 3.994-2.147.503-.502-2.147-3.164-13.519-13.951 3.265-2.147.502-.502-2.147-3.888-16.612-.502-2.147 2.147-.502 13.951-3.265-3.164-13.52-.502-2.146 2.146-.502 17.07-3.995zm-3.289 5.298-12.776 2.99 3.164 13.519.502 2.147-2.147.503-13.951 3.264 2.883 12.319 13.951-3.265 2.147-.503.502 2.147 3.164 13.519 12.776-2.99-3.163-13.519-.503-2.146 2.147-.503 13.951-3.265-2.883-12.318-13.951 3.265-2.146.502-.503-2.147z"/><defs><linearGradient id="a" x1="86.949" x2="86.526" y1="4.183" y2="156.018" gradientUnits="userSpaceOnUse"><stop stop-color="#31394B"/><stop offset="1" stop-color="#262C3B"/></linearGradient></defs></svg>