<svg xmlns="http://www.w3.org/2000/svg" width="12" height="9" fill="none"><path fill="#fff" fill-rule="evenodd" d="M10.05 1.926s-.81-.692-2.56-1.18L7.63.6h.02c.13 0 1.47.02 2.87.975 0 0 1.48 2.428 1.48 5.411 0 0-.87 1.355-3.14 1.414 0 0-.37-.4-.68-.75 1.35-.342 1.86-1.103 1.86-1.103-.42.244-.82.43-1.18.546a7.7 7.7 0 0 1-1.49.4c-.45.078-.88.107-1.29.107-.49 0-.95-.048-1.38-.117-.58-.107-1.09-.253-1.51-.4-.23-.087-.49-.185-.75-.311l-.09-.049-.04-.03c-.19-.097-.29-.155-.29-.155s.49.74 1.8 1.092c-.31.35-.69.77-.69.77C.86 8.341 0 6.986 0 6.986c0-2.983 1.48-5.411 1.48-5.411C2.88.619 4.22.6 4.35.6h.01l.11.107c-1.85.488-2.71 1.219-2.71 1.219s.23-.107.61-.263c1.1-.439 1.97-.566 2.33-.595.07 0 .12-.01.18-.01C5.23 1.01 5.61.99 6 .99c.31 0 .63.01.96.049.97.097 2.02.36 3.09.887M7.04 5.358c0 .556.49 1.014 1.09 1.014.61 0 1.1-.458 1.1-1.014s-.49-1.014-1.1-1.014c-.6 0-1.09.458-1.09 1.014m-3.95 0c0 .556.49 1.014 1.09 1.014.61 0 1.1-.458 1.1-1.014s-.49-1.014-1.1-1.014c-.6 0-1.09.458-1.09 1.014" clip-rule="evenodd"/></svg>