<svg xmlns="http://www.w3.org/2000/svg" width="12" height="13" fill="none"><path fill="#fff" d="M8.69.65H3.31C1.48.65 0 2.093 0 3.877v5.236c0 1.784 1.48 3.237 3.31 3.237h5.38c1.82 0 3.31-1.453 3.31-3.237V3.877C12 2.093 10.51.65 8.69.65m1.95 8.317c0 1.13-.95 2.057-2.11 2.057H3.47c-1.17 0-2.11-.926-2.11-2.057V4.033c0-1.14.94-2.067 2.11-2.067h5.06c1.16 0 2.11.927 2.11 2.067zM6 3.78c-1.54 0-2.79 1.219-2.79 2.72 0 1.492 1.25 2.71 2.79 2.71S8.79 7.993 8.79 6.5c0-1.501-1.25-2.72-2.79-2.72m0 4.319c-.91 0-1.64-.721-1.64-1.599 0-.887.73-1.609 1.64-1.609s1.64.722 1.64 1.609c0 .878-.73 1.599-1.64 1.599m3.08-5.362c-.21 0-.53.087-.69.243a.825.825 0 0 0 0 1.18c.16.156.38.244.61.244s.45-.088.61-.244a.825.825 0 0 0 0-1.18c-.16-.156-.33-.243-.53-.243"/></svg>