<svg xmlns="http://www.w3.org/2000/svg" width="24" height="24"><path d="M21.3 2.875c-.234.008-.46.074-.667.156-.203.082-1.371.582-3.098 1.32L11.34 7.005c-4.453 1.906-8.824 3.781-8.824 3.781l.03-.012s-.265.09-.53.274a1.6 1.6 0 0 0-.399.39 1.02 1.02 0 0 0-.168.688c.113.922 1.07 1.188 1.07 1.188h.004l4.274 1.46c.11.364 1.297 4.329 1.555 5.168.144.461.28.73.421.914q.104.135.227.211c.031.024.066.036.098.051h.004q.005.002.011.004l-.011-.004.023.012c.016.004.023.004.043.012.492.168.895-.149.895-.149l.019-.012 2.625-2.437 4.258 3.324.055.024c.746.332 1.418.144 1.793-.157a1.8 1.8 0 0 0 .519-.695l.016-.043L22.48 4.68c.079-.364.09-.68.016-.965a1.14 1.14 0 0 0-.488-.668 1.2 1.2 0 0 0-.707-.172m.028.973a.5.5 0 0 1 .188.02c.02.015.03.01.05.093.024.082.036.25-.023.516l-.004.003-3.113 16.223a.76.76 0 0 1-.219.285c-.152.125-.32.219-.766.032l-4.656-3.633-.133-.102-.004.004-1.39-1.047 7.828-9.21a.49.49 0 0 0 .066-.52.49.49 0 0 0-.445-.274.5.5 0 0 0-.254.082L7.125 13.875l-4.281-1.469s-.422-.234-.446-.398c0-.012-.003-.004.016-.035a.7.7 0 0 1 .148-.137c.141-.098.297-.156.297-.156l.02-.004.016-.008s4.37-1.875 8.824-3.781a6682 6682 0 0 1 9.273-3.965c.121-.047.238-.067.336-.074M16.133 9.02l-5.938 6.988a.2.2 0 0 0-.027.035c-.008.012-.02.027-.027.039a.5.5 0 0 0-.063.188v.003l-.773 3.477c-.012-.04-.02-.05-.035-.094v-.004c-.247-.789-1.364-4.523-1.52-5.043Zm-5.266 8.132 1.067.801-1.567 1.453Zm0 0" style="stroke:none;fill-rule:nonzero;fill:#fff;fill-opacity:1"/></svg>