<svg xmlns="http://www.w3.org/2000/svg" width="12" height="11" fill="none"><path fill="#fff" d="M12 1.746c-.45.224-.9.303-1.43.37.53-.292.9-.74 1.05-1.345-.45.302-.97.449-1.57.605a2.6 2.6 0 0 0-1.8-.751c-1.28 0-2.4 1.121-2.4 2.467 0 .234 0 .38.07.526a6.88 6.88 0 0 1-5.1-2.545c-.22.371-.3.751-.3 1.278 0 .819.45 1.57 1.13 2.018-.38 0-.75-.146-1.13-.302 0 1.209.83 2.184 1.95 2.408-.22.068-.45.068-.67.068-.15 0-.3 0-.45-.068a2.43 2.43 0 0 0 2.32 1.726C2.85 8.873 1.8 9.244.6 9.244H0c1.12.673 2.4 1.131 3.75 1.131 4.5 0 6.97-3.754 6.97-6.981v-.302c.53-.37.98-.82 1.28-1.346"/></svg>