<svg xmlns="http://www.w3.org/2000/svg" width="50" height="47" fill="none"><path fill="#4E536F" d="M47.176 16.026C46.964 9.41 41.548 4.113 34.899 4.113c-4.062 0-7.663 1.977-9.9 5.023-2.235-3.046-5.836-5.023-9.898-5.023-6.65 0-12.065 5.297-12.277 11.913a11 11 0 0 0 0 .807c.201 6.272 5.08 11.36 11.253 11.87a12.3 12.3 0 0 0-1.227 5.79c.212 6.614 5.627 11.911 12.277 11.911s12.064-5.297 12.276-11.912a11 11 0 0 0 0-.808 12.3 12.3 0 0 0-1.238-5.003c6.058-.623 10.812-5.658 11.01-11.848a11 11 0 0 0 0-.807"/><path fill="#106EA0" d="M27.384 14.33q0 .203-.006.405C27.166 21.35 21.75 26.647 15.1 26.647c-6.65 0-12.065-5.297-12.277-11.912a11 11 0 0 1 0-.808C3.036 7.312 8.452 2.015 15.101 2.015c6.65 0 12.065 5.297 12.277 11.912q.006.201.006.404"/><path fill="#1CAEE4" d="M24.711 16.42c1.241-5.266-2.01-10.543-7.26-11.788-5.252-1.244-10.515 2.015-11.757 7.28-1.24 5.266 2.01 10.543 7.261 11.788s10.515-2.015 11.756-7.28"/><path fill="#009ADD" d="m14.196 18.679.604-2.886 3.055-2.099.482-2.361-3.055 2.108.992-4.477h-2.346l-1.385 6.367-1.285.886-.422 2.302 1.228-.844-.632 3.023h8.539l.417-2.02z"/><path fill="#fff" d="m20.24 18.373-.172.824a.6.6 0 0 1-.585.477H12.17a.596.596 0 0 1-.589-.692q0-.016.003-.03l.482-2.303-.638.438a.3.3 0 0 1-.463-.3l.015-.084.233-1.266a.62.62 0 0 1 .248-.387l1.083-.743 1.28-5.896a.6.6 0 0 1 .583-.47h1.122a.596.596 0 0 1 .583.722l-.831 3.752 2.443-1.686a.29.29 0 0 1 .38.036.29.29 0 0 1 .084.273l-.285 1.394a.6.6 0 0 1-.245.372l-2.76 1.896a.3.3 0 0 0-.123.186l-.427 2.044a.6.6 0 0 0 .586.723h4.719c.233 0 .428.129.526.318.066.117.09.258.06.402"/><path fill="#E6E7E8" d="m20.239 18.373-.17.821-.05.24a.3.3 0 0 1-.293.24H12.17a.596.596 0 0 1-.59-.693h8.146a.3.3 0 0 0 .293-.239l.16-.771c.066.117.09.258.06.401M18.187 11.038l-.284 1.394-.047.237-.198.135-2.76 1.896a.3.3 0 0 0-.124.186l-.427 2.044a.6.6 0 0 0 .587.723h-.515a.3.3 0 0 1-.293-.363l.648-3.097a.3.3 0 0 1 .124-.186l2.858-1.963a.3.3 0 0 0 .124-.187l.224-1.092a.3.3 0 0 1 .083.272M16.112 8.663l-.831 3.751-.18.126.951-4.291c.066.12.093.267.06.414M12.081 16.57l-.015.078-.638.438a.3.3 0 0 1-.463-.3l.015-.084.64-.44a.3.3 0 0 1 .461.309"/><path fill="#A62973" d="M37.41 31.99q0 .202-.007.403c-.212 6.615-5.627 11.912-12.277 11.912S13.062 39.008 12.85 32.393a11 11 0 0 1 0-.808c.212-6.615 5.628-11.912 12.277-11.912 6.65 0 12.065 5.297 12.277 11.912q.007.201.007.404"/><path fill="#EF6EA8" d="M34.632 34.086c1.242-5.265-2.009-10.543-7.26-11.787-5.252-1.245-10.515 2.014-11.756 7.28-1.242 5.265 2.01 10.542 7.26 11.787 5.252 1.245 10.515-2.015 11.756-7.28"/><path fill="#EE5A9C" d="M33.698 33.864c1.12-4.748-1.812-9.507-6.547-10.63-4.736-1.122-9.482 1.817-10.601 6.565s1.812 9.507 6.547 10.63c4.736 1.122 9.482-1.817 10.601-6.565"/><path fill="#E43D91" d="m29.653 32.364-4.21-6.875a.237.237 0 0 0-.404 0l-4.209 6.875a.24.24 0 0 0 .08.328l4.209 2.544c.075.045.17.045.245 0l4.209-2.544a.24.24 0 0 0 .08-.328"/><path fill="#E43D91" d="m29.452 33.787-4.086 2.517a.24.24 0 0 1-.249 0l-4.085-2.517c-.073-.045-.156.043-.106.113l4.121 5.882a.237.237 0 0 0 .389 0l4.122-5.882c.05-.07-.033-.158-.106-.113"/><path fill="#fff" d="m29.653 31.647-4.21-6.875a.237.237 0 0 0-.404 0l-4.209 6.875a.24.24 0 0 0 .08.328l4.209 2.544c.075.045.17.045.245 0l4.209-2.544a.24.24 0 0 0 .08-.328"/><path fill="#fff" d="m29.452 33.07-4.086 2.517a.24.24 0 0 1-.249 0l-4.085-2.517c-.073-.045-.156.043-.106.113l4.121 5.882a.237.237 0 0 0 .389 0l4.122-5.882c.05-.07-.033-.158-.106-.113"/><path fill="#E6E7E8" d="m29.332 31.122-3.968 2.398a.24.24 0 0 1-.245 0l-3.967-2.398-.321.524a.24.24 0 0 0 .08.328l4.208 2.544c.076.046.17.046.245 0l4.21-2.544a.24.24 0 0 0 .079-.328z"/><path fill="#E6E7E8" d="m29.451 33.07-.904.557-3.111 4.44a.237.237 0 0 1-.389 0l-3.11-4.44-.905-.557c-.073-.045-.156.043-.106.113l4.121 5.882a.237.237 0 0 0 .389 0l4.121-5.882c.05-.07-.032-.158-.106-.113"/><path fill="#E43D91" d="M34.659 29.643c-.984-4.368-4.878-7.631-9.533-7.631q-.787 0-1.541.121c1.837 4.346 6.093 7.415 11.074 7.51"/><path fill="#D1D3D4" d="M25.075 24.726q.531.706 1.155 1.33l-.787-1.284a.237.237 0 0 0-.368-.046"/><path fill="#136DA0" d="M22.882 19.882a12.3 12.3 0 0 1 2.244-.209c.344 0 .683.018 1.02.046v-.002q.135-.277.256-.561l.012-.03q.114-.268.215-.543l.022-.06a12 12 0 0 0 .342-1.112q.017-.064.033-.128.058-.234.106-.473l.032-.157c.03-.151.053-.305.077-.459q.015-.087.028-.176.03-.232.053-.468.009-.086.018-.172a12 12 0 0 0 .044-1.048v-.013a12 12 0 0 0-.046-1.046c-.005-.069-.015-.137-.021-.205q-.022-.222-.052-.443-.016-.118-.037-.236-.03-.203-.069-.403-.023-.12-.05-.24a12 12 0 0 0-.262-1.015q-.032-.109-.068-.218-.066-.202-.14-.402-.033-.096-.069-.191a12 12 0 0 0-.18-.44l-.058-.14q-.126-.284-.266-.562v-.002a12.29 12.29 0 0 0-3.445 8.959c.024.735.115 1.453.261 2.149"/><path fill="#E7AD27" d="M47.182 14.33q0 .203-.006.405c-.212 6.615-5.628 11.912-12.277 11.912-6.65 0-12.065-5.297-12.277-11.912a11 11 0 0 1 0-.808c.212-6.615 5.628-11.912 12.277-11.912s12.064 5.297 12.277 11.912q.006.201.006.404"/><path fill="#FEDE3A" d="M44.411 16.426c1.242-5.266-2.01-10.543-7.26-11.788-5.252-1.244-10.515 2.015-11.756 7.28-1.242 5.266 2.009 10.543 7.26 11.788 5.252 1.244 10.515-2.015 11.756-7.28"/><path fill="#E7AD27" d="M38.99 16.187a2.8 2.8 0 0 0-.973-1.23q.133-.127.243-.274.263-.348.395-.791c.083-.28.125-.582.125-.895 0-.477-.087-.905-.257-1.27a2.46 2.46 0 0 0-.758-.937 3.1 3.1 0 0 0-1.128-.517 5 5 0 0 0-.5-.095V9.134a.752.752 0 1 0-1.502 0v.987h-.782v-.987a.752.752 0 1 0-1.502 0v.987h-.985a.752.752 0 0 0 0 1.507h.985v7.096h-.985a.752.752 0 0 0 0 1.506h.985v.987a.752.752 0 1 0 1.502 0v-.986h.782v.986a.752.752 0 1 0 1.502 0v-.996q.531-.03.996-.177c.413-.13.776-.327 1.078-.587.309-.265.552-.596.721-.983.167-.38.252-.815.252-1.292 0-.345-.066-.68-.194-.995m-4.356-4.56h.646c.72 0 1.252.124 1.579.367.177.131.411.375.411.98 0 .695-.29.915-.386.988-.306.232-.804.35-1.482.35h-1.55v-2.684zm2.926 6.23q-.115.271-.325.452a1.6 1.6 0 0 1-.557.299c-.24.077-.522.116-.835.116h-1.99V15.82h2.051q.49 0 .836.127.333.121.54.315c.136.125.233.263.299.42.068.165.102.333.102.514q0 .377-.121.662"/><path fill="#fff" d="M38.99 15.163a2.8 2.8 0 0 0-.973-1.23q.133-.127.243-.274.263-.35.395-.792c.083-.28.125-.581.125-.894 0-.478-.087-.905-.257-1.27a2.46 2.46 0 0 0-.758-.937 3.1 3.1 0 0 0-1.128-.517 5 5 0 0 0-.5-.096V8.11a.752.752 0 1 0-1.502 0v.987h-.782V8.11a.752.752 0 1 0-1.502 0v.987h-.985a.752.752 0 0 0 0 1.506h.985V17.7h-.985a.752.752 0 0 0 0 1.506h.985v.987a.752.752 0 1 0 1.502 0v-.987h.782v.987a.752.752 0 1 0 1.502 0v-.996q.531-.031.996-.177c.413-.13.776-.328 1.078-.588.309-.265.552-.596.721-.982.167-.38.252-.815.252-1.292q-.001-.52-.194-.995m-4.356-4.56h.646c.72 0 1.252.123 1.579.366.177.132.411.376.411.98 0 .695-.29.916-.386.988-.306.233-.804.35-1.482.35h-1.55v-2.684zm2.926 6.23q-.115.27-.325.45a1.6 1.6 0 0 1-.557.3c-.24.077-.522.117-.835.117h-1.99v-2.906h2.051q.49 0 .836.127.333.122.54.315c.136.125.233.263.299.421.068.165.102.332.102.513q0 .377-.121.662"/><path fill="#E6E7E8" d="M32.35 18.796h-.984a.75.75 0 0 1-.722-.548.752.752 0 0 0 .723.958h.984zM38.26 13.25c-.074.097-.465.492-.465.492l.222.191s.234-.262.243-.274q.263-.348.395-.791a3.2 3.2 0 0 0 .118-1.108 3 3 0 0 1-.118.698q-.132.443-.395.791M33.853 10.194v.41h1.427c.72 0 1.252.123 1.579.366.155.116.356.319.402.776q.01-.096.01-.206c0-.604-.236-.848-.412-.98-.327-.242-.858-.366-1.579-.366h-1.427M37.58 15.248a1.2 1.2 0 0 0-.299-.421 1.6 1.6 0 0 0-.54-.315 2.5 2.5 0 0 0-.836-.127h-2.052v.41h2.052q.49 0 .836.126.331.123.54.315a1.2 1.2 0 0 1 .386.752q.013-.11.014-.227c0-.181-.033-.349-.102-.513M31.366 10.604h.984v-.41h-.984a.75.75 0 0 1-.722-.548.752.752 0 0 0 .722.958M35.385 20.538a.75.75 0 0 1-.751-.754v.41a.752.752 0 1 0 1.502 0v-.41a.75.75 0 0 1-.75.754M33.102 20.538a.75.75 0 0 1-.751-.754v.41a.752.752 0 1 0 1.502 0v-.41a.75.75 0 0 1-.751.754M38.932 17.04c-.17.387-.412.718-.721.983-.303.26-.666.458-1.078.587q-.466.145-.996.178v.41q.531-.033.996-.178c.413-.13.776-.327 1.078-.587.309-.266.552-.596.721-.983a3.2 3.2 0 0 0 .244-1.478c-.022.39-.104.749-.244 1.069M34.634 18.797h-.781v.41h.781z"/></svg>