<svg xmlns="http://www.w3.org/2000/svg" width="42" height="42" fill="none"><g clip-path="url(#a)"><path fill="url(#b)" d="M36.743 5.595a20.13 20.13 0 0 1-12.7-4.514 4.82 4.82 0 0 0-6.085 0A20.13 20.13 0 0 1 5.257 5.595a2.616 2.616 0 0 0-2.616 2.616v7.01a29.89 29.89 0 0 0 11.027 23.186l2.153 1.752a8.21 8.21 0 0 0 10.358 0l2.154-1.751A29.89 29.89 0 0 0 39.359 15.22v-7.01a2.616 2.616 0 0 0-2.616-2.616"/><path fill="url(#c)" d="M21 39.692c-.504 0-.998-.175-1.389-.494l-4.118-3.35a26.4 26.4 0 0 1-7.144-9.094 26.4 26.4 0 0 1-2.546-11.281V9.909c0-.673.55-1.245 1.222-1.28A21.8 21.8 0 0 0 19.611 3.78 2.2 2.2 0 0 1 21 3.287c.504 0 .997.175 1.389.494a21.8 21.8 0 0 0 12.586 4.847 1.3 1.3 0 0 1 1.222 1.28v5.564c0 3.878-.88 7.78-2.546 11.281a26.4 26.4 0 0 1-7.144 9.095l-4.118 3.35a2.2 2.2 0 0 1-1.39.494"/><path fill="url(#d)" d="M21 38.156a2.02 2.02 0 0 1-1.272-.452l-3.77-3.068a24.2 24.2 0 0 1-6.542-8.326 24.2 24.2 0 0 1-2.33-10.33v-5.093c0-.617.503-1.14 1.119-1.173a19.98 19.98 0 0 0 11.523-4.439 2.02 2.02 0 0 1 2.543 0 19.98 19.98 0 0 0 11.525 4.439c.615.032 1.119.556 1.119 1.172v5.094a24.2 24.2 0 0 1-2.331 10.33 24.2 24.2 0 0 1-6.541 8.326l-3.771 3.068a2.02 2.02 0 0 1-1.272.452"/><path fill="url(#e)" d="M39.359 8.21a2.615 2.615 0 0 0-2.616-2.615 20.13 20.13 0 0 1-12.7-4.514A4.8 4.8 0 0 0 21 0v42c1.835 0 3.67-.614 5.18-1.84l2.153-1.752A29.89 29.89 0 0 0 39.359 15.22z"/><path fill="url(#f)" d="M34.706 12.222c-.823-.823-2.157-.654-2.98.168L21.461 22.656c-.1.1-.383.29-.461.29a.4.4 0 0 1-.292-.122l-3.935-3.935c-.823-.822-2.072-.822-2.895 0-.823.823-.907 1.988-.085 2.811L29.5 37.406a29.9 29.9 0 0 0 9.816-20.56z"/><path fill="url(#g)" d="M28.332 38.408A29.9 29.9 0 0 0 38.39 22.772l-9.494-9.494c-1.981-2.093-4.786-3.23-7.895-3.23A10.685 10.685 0 0 0 10.297 20.75c0 3.11 1.137 5.914 3.23 7.896l11.411 11.41a.96.96 0 0 0 1.287.066z"/><path fill="url(#h)" d="M21 31.621c6.004 0 10.871-4.867 10.871-10.87 0-6.005-4.867-10.872-10.87-10.872-6.005 0-10.872 4.867-10.872 10.871S14.996 31.621 21 31.621"/><path fill="url(#i)" d="m29.779 14.338-8.318 8.318c-.1.1-.383.29-.461.29a.4.4 0 0 1-.292-.122l-3.935-3.935c-.823-.822-2.072-.822-2.895 0-.823.823-.907 1.989-.085 2.811l9.646 9.646c4.83-1.107 8.432-5.43 8.432-10.596 0-2.398-.777-4.614-2.092-6.412"/><path fill="url(#j)" d="M21 26.99a4.6 4.6 0 0 1-3.272-1.355L13.793 21.7a2.107 2.107 0 1 1 2.98-2.98l3.935 3.935c.1.1.214.121.292.121a.4.4 0 0 0 .292-.12l10.434-10.434a2.107 2.107 0 0 1 2.98 2.979L24.272 25.635A4.6 4.6 0 0 1 21 26.99"/></g><defs><linearGradient id="b" x1="5.618" x2="37.28" y1="1.983" y2="33.645" gradientUnits="userSpaceOnUse"><stop stop-color="#B5DBFF"/><stop offset="1" stop-color="#76E2F8"/></linearGradient><linearGradient id="c" x1="41.66" x2="13.646" y1="38.529" y2="10.515" gradientUnits="userSpaceOnUse"><stop stop-color="#B5DBFF" stop-opacity="0"/><stop offset=".243" stop-color="#93CEF6" stop-opacity=".243"/><stop offset=".576" stop-color="#6ABFEC" stop-opacity=".576"/><stop offset=".84" stop-color="#51B5E5" stop-opacity=".84"/><stop offset="1" stop-color="#48B2E3"/></linearGradient><linearGradient id="d" x1="15.584" x2="27.89" y1="12.758" y2="25.064" gradientUnits="userSpaceOnUse"><stop stop-color="#EDF5FF"/><stop offset="1" stop-color="#D5E8FE"/></linearGradient><linearGradient id="e" x1="24.816" x2="-.466" y1="21.707" y2="9.572" gradientUnits="userSpaceOnUse"><stop stop-color="#B5DBFF" stop-opacity="0"/><stop offset=".173" stop-color="#8FC5E9" stop-opacity=".173"/><stop offset=".454" stop-color="#56A4C8" stop-opacity=".454"/><stop offset=".696" stop-color="#2D8DB1" stop-opacity=".696"/><stop offset=".885" stop-color="#147EA2" stop-opacity=".885"/><stop offset="1" stop-color="#0B799D"/></linearGradient><linearGradient id="f" x1="34.487" x2="25.835" y1="26.615" y2="20.041" gradientUnits="userSpaceOnUse"><stop stop-color="#B5DBFF" stop-opacity="0"/><stop offset=".173" stop-color="#8FC5E9" stop-opacity=".173"/><stop offset=".454" stop-color="#56A4C8" stop-opacity=".454"/><stop offset=".696" stop-color="#2D8DB1" stop-opacity=".696"/><stop offset=".885" stop-color="#147EA2" stop-opacity=".885"/><stop offset="1" stop-color="#0B799D"/></linearGradient><linearGradient id="g" x1="33.031" x2="18.611" y1="32.781" y2="18.361" gradientUnits="userSpaceOnUse"><stop stop-color="#B5DBFF" stop-opacity="0"/><stop offset=".173" stop-color="#8FC5E9" stop-opacity=".173"/><stop offset=".454" stop-color="#56A4C8" stop-opacity=".454"/><stop offset=".696" stop-color="#2D8DB1" stop-opacity=".696"/><stop offset=".885" stop-color="#147EA2" stop-opacity=".885"/><stop offset="1" stop-color="#0B799D"/></linearGradient><linearGradient id="h" x1="15.944" x2="26.422" y1="15.694" y2="26.172" gradientUnits="userSpaceOnUse"><stop stop-color="#B9DD39"/><stop offset="1" stop-color="#90CC1C"/></linearGradient><linearGradient id="i" x1="30.881" x2="26.985" y1="27.114" y2="23.218" gradientUnits="userSpaceOnUse"><stop stop-color="#6B0" stop-opacity="0"/><stop offset="1" stop-color="#6B0"/></linearGradient><linearGradient id="j" x1="20.043" x2="30.896" y1="12.754" y2="23.607" gradientUnits="userSpaceOnUse"><stop stop-color="#0B799D"/><stop offset="1" stop-color="#07485E"/></linearGradient><clipPath id="a"><path fill="#fff" d="M0 0h42v42H0z"/></clipPath></defs></svg>