<svg xmlns="http://www.w3.org/2000/svg" width="42" height="42" fill="none"><g clip-path="url(#a)"><path fill="#DF8621" d="M.062 20.703V7.537A5.13 5.13 0 0 1 5.19 2.408h31.62a5.13 5.13 0 0 1 5.128 5.13V28.83a5.13 5.13 0 0 1-5.129 5.13H26.75a5.13 5.13 0 0 1-4.288-2.315l-2.299-3.5a5.13 5.13 0 0 0-4.287-2.315H5.19a5.13 5.13 0 0 1-5.128-5.128"/><path fill="#DDDAEC" d="M34.1 0H16.503a3.94 3.94 0 0 0-3.941 3.94v23.358a3.94 3.94 0 0 0 3.94 3.94h17.6a3.94 3.94 0 0 0 3.94-3.94V3.94A3.94 3.94 0 0 0 34.102 0"/><path fill="#F1F4F6" d="M27.808 6.015H10.21a3.94 3.94 0 0 0-3.94 3.94v23.358a3.94 3.94 0 0 0 3.94 3.94h17.6a3.94 3.94 0 0 0 3.94-3.94V9.955a3.94 3.94 0 0 0-3.94-3.94"/><path fill="#E7A52E" d="M41.939 23.706V36.87a5.13 5.13 0 0 1-5.13 5.13H5.19a5.13 5.13 0 0 1-5.128-5.13V15.577a5.13 5.13 0 0 1 5.128-5.129h10.062c1.727 0 3.339.87 4.287 2.314l2.299 3.501a5.13 5.13 0 0 0 4.287 2.314H36.81a5.13 5.13 0 0 1 5.13 5.129"/><path fill="#E49824" d="M9.366 42H5.191a5.13 5.13 0 0 1-5.13-5.129V15.577a5.13 5.13 0 0 1 5.13-5.129h4.175a5.13 5.13 0 0 0-5.13 5.13V36.87a5.13 5.13 0 0 0 5.13 5.13"/><path fill="#B3E59F" d="M26.023 16.298a.63.63 0 0 1-.494-.237l-2.207-2.747a.634.634 0 1 1 .988-.794l1.605 1.997 2.321-4.367a.634.634 0 1 1 1.12.595l-2.773 5.217a.63.63 0 0 1-.56.336"/><path fill="#FFE07D" d="M15.76 23.125H4.948a.634.634 0 0 1 0-1.268h10.81a.634.634 0 1 1 0 1.268M15.76 25.47H4.948a.634.634 0 0 1 0-1.267h10.81a.634.634 0 1 1 0 1.268"/></g><defs><clipPath id="a"><path fill="#fff" d="M0 0h42v42H0z"/></clipPath></defs></svg>