<svg xmlns="http://www.w3.org/2000/svg" width="19" height="19" fill="none"><path fill="#939AB2" d="M16.218 2.783A9.44 9.44 0 0 0 9.5 0a9.44 9.44 0 0 0-6.717 2.783A9.44 9.44 0 0 0 0 9.5c0 2.537.988 4.923 2.783 6.718A9.44 9.44 0 0 0 9.5 19a9.44 9.44 0 0 0 6.718-2.782A9.44 9.44 0 0 0 19 9.5a9.44 9.44 0 0 0-2.782-6.717m.127 1.868a8.3 8.3 0 0 1 1.523 4.292h-4.014a11.3 11.3 0 0 0-1.258-2.833c-.271-.442-.274-.914-.006-1.2.284-.305.799-.317 1.344-.033 1.016.53 1.902.176 2.41-.226m-6.288-3.52a8.32 8.32 0 0 1 5.582 2.655c-.067.052-.154.11-.258.157-.3.135-.606.118-.932-.053-1.205-.628-2.17-.278-2.673.26-.618.663-.67 1.66-.13 2.542.461.752.81 1.511 1.046 2.251h-2.635zm0 11.775c.457-.387.749-.91.806-1.472a2.2 2.2 0 0 0-.336-1.377h2.435c.18 1.093.083 2.107-.306 2.944-.36.777-.833 1.796-2.6 2.38zM8.943 1.132v2.683c-.267-.542-.853-.908-1.469-.857-.476.04-.83.262-1.143.458q-.157.102-.308.184c-.335.178-.8.18-1.275.002a4 4 0 0 1-.774-.41 8.3 8.3 0 0 1 4.97-2.06M5.955 8.943c.467-.39.805-1.066.928-1.856.063-.405.666-.708 1.027-.89.108-.054.201-.101.28-.15.349-.21.604-.492.753-.818V8.79c-.296-.13-.627-.226-.954-.226-.37 0-.748.155-1.014.378zm-2.78-4.95c.357.25.749.49 1.184.652.842.314 1.792.198 2.564-.285.244-.154.437-.275.644-.292.19-.016.39.155.412.352.07.615-.666.806-1.08 1.059-.533.327-1.015.791-1.116 1.437-.12.774-.448 1.097-.546 1.177a1.4 1.4 0 0 1-1.211.277c-.73-.166-1.419.07-1.727.573H1.132a8.3 8.3 0 0 1 2.042-4.95m-1.48 8.587a8.4 8.4 0 0 1-.563-2.523h.943c.031.284.115.544.19.777.08.245.156.476.153.689-.004.39-.097.676-.277.849a.84.84 0 0 1-.446.207m7.248 5.288a8.4 8.4 0 0 1-1.52-.24c.421-.422.912-.69 1.52-.834zm0-2.212c-1.117.207-1.974.716-2.668 1.59A8.4 8.4 0 0 1 3.57 15.43a8.4 8.4 0 0 1-1.389-1.827c.282-.09.529-.234.731-.429.502-.483.614-1.158.62-1.64.004-.394-.108-.74-.207-1.045a4 4 0 0 1-.124-.432h3.236a.7.7 0 0 1-.19.25c-.21.175-.466.289-.693.443-.546.374-.888.832-1.018 1.362a1.8 1.8 0 0 0 .042.984c.134.4.407.722.768.906q.335.171.717.171c.483 0 .923-.213 1.37-.366.493-.169 1.01-.183 1.51-.326zm.812-4.334c-.04.399-.341.735-.696.922s-.76.252-1.157.308c-.328.046-.664.085-.977.197-.31.11-.736.434-1.072.262-.217-.111-.293-.399-.235-.635.073-.3.31-.533.565-.707s.537-.308.775-.504c.227-.188.404-.434.518-.706.115-.273.044-.588.36-.744.427-.21 1.138.317 1.448.583.296.255.51.635.471 1.024m5.675 4.108a8.32 8.32 0 0 1-5.373 2.438v-1.322c2.295-.64 3.069-1.91 3.61-3.076.463-1 .605-2.146.424-3.413h3.777a8.32 8.32 0 0 1-2.438 5.373"/></svg>