<svg xmlns="http://www.w3.org/2000/svg" width="199" height="185" fill="none"><g filter="url(#a)"><path fill="#000" fill-opacity=".498" d="M164.943 12c12.272 0 22.22 9.859 22.22 22.021v117.414c0 12.161-9.948 22.02-22.22 22.02H34.221c-12.272 0-22.221-9.859-22.221-22.02V34.021C12 21.859 21.949 12 34.221 12z"/></g><path fill="url(#b)" d="M34.221 12h130.722c12.272 0 22.22 9.859 22.22 22.021v117.414c0 12.161-9.948 22.02-22.22 22.02H34.221c-12.272 0-22.221-9.859-22.221-22.02V34.021C12 21.859 21.949 12 34.221 12"/><path fill="url(#c)" d="m108.341 35.203 1.595 6.816 5.329 22.772 24.112-5.642 6.816-1.595 1.595 6.816 7.343 31.375 1.595 6.816-6.816 1.595-24.112 5.642 5.329 22.773 1.595 6.816-6.816 1.595-32.795 7.674-6.816 1.595-1.595-6.815-5.329-22.773-24.112 5.643-6.816 1.595-1.595-6.816-7.343-31.375-1.595-6.816 6.816-1.595 24.112-5.642-5.329-22.773-1.595-6.816 6.816-1.595 32.795-7.675zm-5.22 8.411L70.325 51.29l6.924 29.588-30.928 7.238 7.342 31.375 30.928-7.237 6.925 29.588 32.795-7.675-6.924-29.588 30.928-7.238-7.343-31.375-30.927 7.237z"/><defs><linearGradient id="b" x1="98.949" x2="98.526" y1="16.183" y2="168.018" gradientUnits="userSpaceOnUse"><stop stop-color="#31394B"/><stop offset="1" stop-color="#262C3B"/></linearGradient><linearGradient id="c" x1="43.207" x2="151.525" y1="105.44" y2="80.084" gradientUnits="userSpaceOnUse"><stop stop-color="#6756E2"/><stop offset="1" stop-color="#E72AB5"/></linearGradient><filter id="a" width="198.163" height="184.455" x=".5" y=".5" color-interpolation-filters="sRGB" filterUnits="userSpaceOnUse"><feFlood flood-opacity="0" result="BackgroundImageFix"/><feBlend in="SourceGraphic" in2="BackgroundImageFix" result="shape"/><feGaussianBlur result="effect1_foregroundBlur_205_148" stdDeviation="5.75"/></filter></defs></svg>