<svg xmlns="http://www.w3.org/2000/svg" width="199" height="185" fill="none"><g filter="url(#a)"><path fill="#000" fill-opacity=".498" d="M164.943 12c12.272 0 22.22 9.859 22.22 22.021v117.414c0 12.161-9.948 22.02-22.22 22.02H34.221c-12.272 0-22.221-9.859-22.221-22.02V34.021C12 21.859 21.949 12 34.221 12z"/></g><path fill="url(#b)" d="M34.221 12h130.722c12.272 0 22.22 9.859 22.22 22.021v117.414c0 12.161-9.948 22.02-22.22 22.02H34.221c-12.272 0-22.221-9.859-22.221-22.02V34.021C12 21.859 21.949 12 34.221 12"/><path fill="#AEAFBF" d="M141.534 32.486c6.522-.293 11.504 4.187 11.883 10.696l.5 73.8c-.069.738.024.487-.103.795-.298 8.874-8.815 14.335-16.514 16.428-10.79 2.492-21.417-2.078-23.455-10.903s5.51-17.591 16.3-20.083l.127-.027c.388-.074 1.29-.251 1.422-.276.402-.076.668-.118.989-.149.181-.018 1.837-.123 2.998-.214q.179-.015.358-.01c3.765.112 7.569.869 10.799 2.878l-.304-44.989-72.517 16.72 1.5 57.763c-.057.752.032.487-.103.833-.257 8.941-8.747 14.447-16.518 16.558-10.79 2.492-21.418-2.077-23.456-10.903-2.037-8.825 5.511-17.591 16.301-20.083 3.325-.634 1.336-.335 5.997-.675 3.651.142 7.331.89 10.478 2.804l-1.698-65.446c-.144-5.222 3.44-9.714 8.544-10.915l65.212-14.402zm-84.17 95.156c-3.137.272-1.794.061-4.048.499-7.399 1.709-12.098 7.167-11.054 11.687 1.044 4.521 7.66 7.366 15.06 5.657 7.398-1.708 12.097-7.166 11.053-11.687-1.399-4.836-6.646-5.906-11.01-6.156m78.623-18.093c-.871.068-1.742.125-2.614.183-.084.009-.16.021-.375.061l-1.308.255c-5.269 1.302-11.977 5.356-11.024 11.679 1.044 4.521 7.66 7.366 15.059 5.657 5.153-1.277 12.018-5.293 11.074-11.558-1.636-4.703-6.333-5.954-10.812-6.277m6.67-70.114-.885.088-65.153 14.39c-1.873.441-3.155 2.046-3.103 3.902l.316 12.196 72.653-16.752-.068-10.053c-.291-2.683-1.392-3.197-3.76-3.77"/><defs><linearGradient id="b" x1="98.949" x2="98.526" y1="16.183" y2="168.018" gradientUnits="userSpaceOnUse"><stop stop-color="#31394B"/><stop offset="1" stop-color="#262C3B"/></linearGradient><filter id="a" width="198.162" height="184.455" x=".5" y=".5" color-interpolation-filters="sRGB" filterUnits="userSpaceOnUse"><feFlood flood-opacity="0" result="BackgroundImageFix"/><feBlend in="SourceGraphic" in2="BackgroundImageFix" result="shape"/><feGaussianBlur result="effect1_foregroundBlur_309_177" stdDeviation="5.75"/></filter></defs></svg>