<svg xmlns="http://www.w3.org/2000/svg" width="199" height="185" fill="none"><g filter="url(#a)"><path fill="#000" fill-opacity=".498" d="M164.943 12c12.272 0 22.22 9.859 22.22 22.021v117.414c0 12.161-9.948 22.02-22.22 22.02H34.221c-12.272 0-22.221-9.859-22.221-22.02V34.021C12 21.859 21.949 12 34.221 12z"/></g><path fill="url(#b)" d="M34.221 12h130.722c12.272 0 22.22 9.859 22.22 22.021v117.414c0 12.161-9.948 22.02-22.22 22.02H34.221c-12.272 0-22.221-9.859-22.221-22.02V34.021C12 21.859 21.949 12 34.221 12"/><path fill="url(#c)" d="M125.282 37.878c3.022.112 5.724 1.957 6.423 5.002l5.093 15.078.091.32h16.493c7.433 0 13.5 6.067 13.5 13.5v62.2c0 7.533-6.067 13.6-13.6 13.6h-107.4c-7.533 0-13.6-6.067-13.6-13.6v-62.2c0-7.533 6.067-13.6 13.6-13.6h16.821l.063-.22 5.1-15.1.01.003c.77-3.081 3.413-4.716 6.406-4.983zm-.279 7H74.564v.005q-.034.106-.066.214l-5.093 15.078c-.639 3.166-3.455 4.739-6.423 5.003h-17.1a6.57 6.57 0 0 0-6.6 6.6v62.2c0 3.667 2.933 6.6 6.6 6.6h107.4c3.667 0 6.6-2.933 6.6-6.6v-62.2c0-3.567-2.933-6.5-6.5-6.5h-16.8l-.219-.007c-2.938-.285-5.533-2.133-6.209-5.11l-5.088-15.064z"/><path fill="url(#d)" d="M99.582 73.178c15.795 0 28.6 12.804 28.6 28.6 0 15.795-12.805 28.6-28.6 28.6s-28.6-12.805-28.6-28.6 12.804-28.6 28.6-28.6m0 7c-11.93 0-21.6 9.67-21.6 21.6 0 11.929 9.67 21.6 21.6 21.6 11.929 0 21.6-9.671 21.6-21.6s-9.671-21.6-21.6-21.6"/><defs><linearGradient id="b" x1="98.949" x2="98.526" y1="16.183" y2="168.018" gradientUnits="userSpaceOnUse"><stop stop-color="#31394B"/><stop offset="1" stop-color="#262C3B"/></linearGradient><linearGradient id="c" x1="32.282" x2="166.882" y1="92.728" y2="92.728" gradientUnits="userSpaceOnUse"><stop stop-color="#6457E3"/><stop offset="1" stop-color="#EB28B3"/></linearGradient><linearGradient id="d" x1="43.812" x2="130.074" y1="141.809" y2="49.131" gradientUnits="userSpaceOnUse"><stop stop-color="#6457E3"/><stop offset="1" stop-color="#EB28B3"/></linearGradient><filter id="a" width="198.163" height="184.455" x=".5" y=".5" color-interpolation-filters="sRGB" filterUnits="userSpaceOnUse"><feFlood flood-opacity="0" result="BackgroundImageFix"/><feBlend in="SourceGraphic" in2="BackgroundImageFix" result="shape"/><feGaussianBlur result="effect1_foregroundBlur_205_146" stdDeviation="5.75"/></filter></defs></svg>