<svg xmlns="http://www.w3.org/2000/svg" width="199" height="185" fill="none"><g filter="url(#a)"><path fill="#000" fill-opacity=".498" d="M164.943 12c12.272 0 22.22 9.859 22.22 22.021v117.414c0 12.161-9.948 22.02-22.22 22.02H34.221c-12.272 0-22.221-9.859-22.221-22.02V34.021C12 21.859 21.949 12 34.221 12z"/></g><path fill="url(#b)" d="M34.221 12h130.722c12.272 0 22.22 9.859 22.22 22.021v117.414c0 12.161-9.948 22.02-22.22 22.02H34.221c-12.272 0-22.221-9.859-22.221-22.02V34.021C12 21.859 21.949 12 34.221 12"/><path fill="url(#c)" d="M94.321 37.878c.614 0 1.161.403 1.366 1.007l36.187 106.675c.334.985-.366 2.018-1.366 2.018h-23.154c-.633 0-1.193-.43-1.382-1.06l-6.268-20.869H64.166l-6.739 20.899c-.198.615-.751 1.03-1.373 1.03H33.732c-1.002 0-1.701-1.036-1.365-2.021L68.832 38.882c.206-.602.752-1.004 1.364-1.004zm-12.292 30.83-11.151 35.534h21.949z"/><path fill="url(#d)" d="m105.073 37.963 57.463.002c2.4 0 4.346 2.032 4.346 4.538s-1.946 4.537-4.347 4.537l-57.462-.002c-2.4 0-4.346-2.032-4.346-4.538s1.946-4.537 4.347-4.537z"/><path fill="url(#e)" d="M162.447 61.816c2.449-.001 4.434 2.05 4.435 4.582s-1.983 4.585-4.432 4.586L118.555 71c-2.448 0-4.434-2.051-4.435-4.582 0-2.532 1.983-4.585 4.432-4.586z"/><path fill="url(#f)" d="M131.432 85.152h31.104c2.4 0 4.346 2.032 4.346 4.538s-1.946 4.537-4.346 4.537h-31.104c-2.4 0-4.346-2.032-4.346-4.538 0-2.505 1.946-4.537 4.346-4.537"/><defs><linearGradient id="b" x1="98.949" x2="98.526" y1="16.183" y2="168.018" gradientUnits="userSpaceOnUse"><stop stop-color="#31394B"/><stop offset="1" stop-color="#262C3B"/></linearGradient><linearGradient id="c" x1="46.254" x2="145.087" y1="138.521" y2="39.096" gradientUnits="userSpaceOnUse"><stop stop-color="#6956E2"/><stop offset="1" stop-color="#E52BB6"/></linearGradient><linearGradient id="d" x1="70.385" x2="164.597" y1="101.27" y2="39.096" gradientUnits="userSpaceOnUse"><stop stop-color="#6956E2"/><stop offset="1" stop-color="#E52BB6"/></linearGradient><linearGradient id="e" x1="79.72" x2="164.028" y1="120.359" y2="60.793" gradientUnits="userSpaceOnUse"><stop stop-color="#6956E2"/><stop offset="1" stop-color="#E52BB6"/></linearGradient><linearGradient id="f" x1="110.945" x2="164.854" y1="126.997" y2="84.655" gradientUnits="userSpaceOnUse"><stop stop-color="#6956E2"/><stop offset="1" stop-color="#E52BB6"/></linearGradient><filter id="a" width="198.163" height="184.455" x=".5" y=".5" color-interpolation-filters="sRGB" filterUnits="userSpaceOnUse"><feFlood flood-opacity="0" result="BackgroundImageFix"/><feBlend in="SourceGraphic" in2="BackgroundImageFix" result="shape"/><feGaussianBlur result="effect1_foregroundBlur_205_150" stdDeviation="5.75"/></filter></defs></svg>