<svg xmlns="http://www.w3.org/2000/svg" width="199" height="185" fill="none"><g filter="url(#a)"><path fill="#000" fill-opacity=".498" d="M164.943 12c12.272 0 22.22 9.859 22.22 22.021v117.414c0 12.161-9.948 22.02-22.22 22.02H34.221c-12.272 0-22.221-9.859-22.221-22.02V34.021C12 21.859 21.949 12 34.221 12z"/></g><path fill="url(#b)" d="M34.221 12h130.722c12.272 0 22.22 9.859 22.22 22.021v117.414c0 12.161-9.948 22.02-22.22 22.02H34.221c-12.272 0-22.221-9.859-22.221-22.02V34.021C12 21.859 21.949 12 34.221 12"/><path fill="#AEAFBF" d="M94.32 37.878c.615 0 1.162.403 1.367 1.007l36.186 106.675c.334.985-.366 2.018-1.366 2.018h-23.154c-.633 0-1.193-.43-1.382-1.06l-6.267-20.869H64.166l-6.74 20.899c-.198.615-.75 1.03-1.373 1.03H33.733c-1.002 0-1.701-1.036-1.365-2.021L68.832 38.882c.206-.602.752-1.004 1.364-1.004zM82.03 68.708l-11.151 35.534h21.948zM105.073 37.963l57.463.002c2.4 0 4.346 2.032 4.346 4.538s-1.946 4.537-4.347 4.537l-57.462-.002c-2.4 0-4.346-2.032-4.346-4.538s1.946-4.537 4.347-4.537zM162.446 61.816c2.449-.001 4.434 2.05 4.435 4.582s-1.983 4.585-4.432 4.586L118.554 71c-2.448 0-4.434-2.051-4.435-4.582 0-2.532 1.983-4.585 4.432-4.586zM131.432 85.152h31.104c2.4 0 4.346 2.032 4.346 4.538s-1.946 4.537-4.346 4.537h-31.104c-2.4 0-4.346-2.032-4.346-4.538 0-2.505 1.946-4.537 4.346-4.537"/><defs><linearGradient id="b" x1="98.949" x2="98.526" y1="16.183" y2="168.018" gradientUnits="userSpaceOnUse"><stop stop-color="#31394B"/><stop offset="1" stop-color="#262C3B"/></linearGradient><filter id="a" width="198.162" height="184.455" x=".5" y=".5" color-interpolation-filters="sRGB" filterUnits="userSpaceOnUse"><feFlood flood-opacity="0" result="BackgroundImageFix"/><feBlend in="SourceGraphic" in2="BackgroundImageFix" result="shape"/><feGaussianBlur result="effect1_foregroundBlur_309_179" stdDeviation="5.75"/></filter></defs></svg>