<svg width="24" height="24" viewBox="0 0 24 24" fill="none" xmlns="http://www.w3.org/2000/svg">
<path d="M14.8281 12L23.4141 3.41406C24.1953 2.63281 24.1953 1.36719 23.4141 0.585938C22.6328 -0.195312 21.3672 -0.195312 20.5859 0.585938L12 9.17188L3.41406 0.585938C2.63281 -0.195312 1.36719 -0.195312 0.585938 0.585938C-0.195312 1.36719 -0.195312 2.63281 0.585938 3.41406L9.17188 12L0.585938 20.5859C-0.195312 21.3672 -0.195312 22.6328 0.585938 23.4141C0.976562 23.8047 1.48828 24 2 24C2.51172 24 3.02344 23.8047 3.41406 23.4141L12 14.8281L20.5859 23.4141C20.9766 23.8047 21.4883 24 22 24C22.5117 24 23.0234 23.8047 23.4141 23.4141C24.1953 22.6328 24.1953 21.3672 23.4141 20.5859L14.8281 12Z" fill="white"/>
</svg>
