<svg xmlns="http://www.w3.org/2000/svg" width="14" height="14" fill="none"><g fill="#fff" clip-path="url(#a)"><path d="M9.47 14H2.178c-.885 0-1.604-.719-1.604-1.604V4.521c0-.885.72-1.604 1.604-1.604h.292a.438.438 0 0 1 0 .875h-.292a.73.73 0 0 0-.729.73v7.874c0 .402.327.73.73.73H9.47a.73.73 0 0 0 .73-.73v-.292a.438.438 0 0 1 .874 0v.292c0 .885-.72 1.604-1.604 1.604"/><path d="M11.803 10.5H5.678c-.885 0-1.604-.72-1.604-1.604V1.604C4.074.72 4.794 0 5.678 0h6.125c.885 0 1.604.72 1.604 1.604v7.292c0 .885-.719 1.604-1.604 1.604M5.678.875a.73.73 0 0 0-.729.73v7.29c0 .403.327.73.73.73h6.124a.73.73 0 0 0 .73-.73v-7.29a.73.73 0 0 0-.73-.73z"/></g><defs><clipPath id="a"><path fill="#fff" d="M0 0h14v14H0z"/></clipPath></defs></svg>