<svg xmlns="http://www.w3.org/2000/svg" width="396" height="99" fill="none"><g filter="url(#a)"><path fill="#fff" d="M10.224 77q-.384 0-.384-.48l.096-65.952q0-.384.384-.384h30.816q.384 0 .384.48v10.752q0 .384-.384.384h-19.68v14.976h19.68q.384 0 .384.384l.096 10.848q0 .384-.384.384H21.456v16.8h19.776q.384 0 .384.48v10.944q0 .384-.384.384zm40.313 0q-.384 0-.384-.48l.191-65.952q0-.384.384-.384h19.393q5.184 0 9.504 2.592 4.416 2.496 7.007 6.816 2.592 4.224 2.593 9.6 0 3.552-1.056 6.432-1.057 2.784-2.496 4.8-1.44 1.92-2.593 2.88 5.185 5.76 5.185 13.536l.096 19.68q0 .48-.48.48H77.032q-.383 0-.383-.288V56.84q0-3.456-2.496-5.952-2.4-2.592-5.953-2.592h-6.336L61.77 76.52q0 .48-.384.48zm11.328-40.224h8.256q2.976 0 5.28-2.208 2.303-2.208 2.303-5.376 0-3.072-2.303-5.28-2.209-2.208-5.28-2.208h-8.256zM96.849 77q-.384 0-.384-.48l.192-65.952q0-.384.384-.384h19.392q5.184 0 9.504 2.592 4.416 2.496 7.008 6.816 2.592 4.224 2.592 9.6 0 3.552-1.056 6.432-1.056 2.784-2.496 4.8-1.44 1.92-2.592 2.88 5.184 5.76 5.184 13.536l.096 19.68q0 .48-.48.48h-10.848q-.384 0-.384-.288V56.84q0-3.456-2.496-5.952-2.4-2.592-5.952-2.592h-6.336l-.096 28.224q0 .48-.384.48zm11.328-40.224h8.256q2.976 0 5.28-2.208t2.304-5.376q0-3.072-2.304-5.28-2.208-2.208-5.28-2.208h-8.256zm51.892 41.184q-5.184 0-9.504-2.592a21 21 0 0 1-6.816-7.008q-2.592-4.416-2.592-9.696l.096-30.432q0-5.28 2.496-9.6a19.86 19.86 0 0 1 6.912-6.912q4.32-2.592 9.408-2.592 5.184 0 9.408 2.592t6.72 6.912q2.592 4.32 2.592 9.6l.096 30.432q0 5.28-2.592 9.696-2.496 4.32-6.816 7.008-4.224 2.592-9.408 2.592m0-11.616q2.88 0 4.992-2.304 2.208-2.4 2.208-5.376l-.096-30.432q0-3.168-2.016-5.376t-5.088-2.208q-2.976 0-5.088 2.208-2.112 2.112-2.112 5.376v30.432q0 3.168 2.112 5.472 2.112 2.208 5.088 2.208M186.568 77q-.384 0-.384-.48l.192-65.952q0-.384.384-.384h19.392q5.184 0 9.504 2.592 4.416 2.496 7.008 6.816 2.592 4.224 2.592 9.6 0 3.552-1.056 6.432-1.056 2.784-2.496 4.8-1.44 1.92-2.592 2.88 5.184 5.76 5.184 13.536l.096 19.68q0 .48-.48.48h-10.848q-.384 0-.384-.288V56.84q0-3.456-2.496-5.952-2.4-2.592-5.952-2.592h-6.336L197.8 76.52q0 .48-.384.48zm11.328-40.224h8.256q2.976 0 5.28-2.208t2.304-5.376q0-3.072-2.304-5.28-2.208-2.208-5.28-2.208h-8.256zM265.754 77q-.384 0-.384-.48V65.288h-20.736q-.384 0-.384-.48v-10.56l20.928-43.68q.192-.384.576-.384h10.848q.288 0 .288.384l.096 43.296h6.72q.48 0 .48.48v10.464q0 .48-.384.48h-6.816V76.52q0 .48-.384.48zm-10.176-23.136h9.792V32.936zm54.161 24.096q-6.144 0-10.848-2.592-4.704-2.688-7.392-7.008-2.592-4.416-2.592-9.696l.096-30.432q0-5.28 2.592-9.6 2.688-4.32 7.392-6.912t10.752-2.592q6.144 0 10.752 2.592t7.2 6.912q2.688 4.32 2.688 9.6l.096 30.432q0 5.28-2.688 9.696-2.592 4.32-7.296 7.008-4.608 2.592-10.752 2.592m9.12-19.296-.096-30.432q0-3.36-2.496-5.472t-6.528-2.112q-4.128 0-6.624 2.112t-2.496 5.472v30.432q0 3.552 2.496 5.664 2.496 2.016 6.624 2.016 4.032 0 6.528-2.016 2.592-2.112 2.592-5.664M355.848 77q-.384 0-.384-.48V65.288h-20.736q-.384 0-.384-.48v-10.56l20.928-43.68q.192-.384.576-.384h10.848q.288 0 .288.384l.096 43.296h6.72q.48 0 .48.48v10.464q0 .48-.384.48h-6.816V76.52q0 .48-.384.48zm-10.176-23.136h9.792V32.936z"/></g><defs><filter id="a" width="394.44" height="98.832" x=".84" y=".128" color-interpolation-filters="sRGB" filterUnits="userSpaceOnUse"><feFlood flood-opacity="0" result="BackgroundImageFix"/><feColorMatrix in="SourceAlpha" result="hardAlpha" values="0 0 0 0 0 0 0 0 0 0 0 0 0 0 0 0 0 0 127 0"/><feOffset dx="6" dy="6"/><feGaussianBlur stdDeviation="7.5"/><feComposite in2="hardAlpha" operator="out"/><feColorMatrix values="0 0 0 0 0 0 0 0 0 0 0 0 0 0 0 0 0 0 0.25 0"/><feBlend in2="BackgroundImageFix" result="effect1_dropShadow_1567_3367"/><feBlend in="SourceGraphic" in2="effect1_dropShadow_1567_3367" result="shape"/></filter></defs></svg>